<svg width="21" height="20" viewBox="0 0 21 20" fill="none" xmlns="http://www.w3.org/2000/svg">
<path d="M15.3469 14.7917H6.47189C5.64689 14.7917 4.85522 14.4418 4.29689 13.8334C3.73855 13.2251 3.45522 12.4084 3.52189 11.5834L4.21356 3.28342C4.23856 3.02508 4.14689 2.77509 3.97189 2.58342C3.79689 2.39175 3.55522 2.29175 3.29689 2.29175H1.85522C1.51356 2.29175 1.23022 2.00841 1.23022 1.66675C1.23022 1.32508 1.51356 1.04175 1.85522 1.04175H3.30523C3.91356 1.04175 4.48855 1.30008 4.89689 1.74174C5.12189 1.99174 5.28855 2.28342 5.38022 2.60842H15.7886C16.6302 2.60842 17.4052 2.94175 17.9719 3.54175C18.5302 4.15008 18.8136 4.94175 18.7469 5.78342L18.2969 12.0334C18.2052 13.5584 16.8719 14.7917 15.3469 14.7917ZM5.42189 3.85008L4.77189 11.6834C4.73022 12.1667 4.88856 12.6251 5.21356 12.9834C5.53856 13.3417 5.98855 13.5334 6.47189 13.5334H15.3469C16.2136 13.5334 16.9969 12.8001 17.0636 11.9334L17.5136 5.68342C17.5469 5.19175 17.3886 4.72509 17.0636 4.38342C16.7386 4.03342 16.2886 3.84174 15.7969 3.84174H5.42189V3.85008Z" fill="#4F4F4F"/>
<path d="M13.7301 18.9583C12.8135 18.9583 12.0635 18.2083 12.0635 17.2917C12.0635 16.375 12.8135 15.625 13.7301 15.625C14.6468 15.625 15.3968 16.375 15.3968 17.2917C15.3968 18.2083 14.6468 18.9583 13.7301 18.9583ZM13.7301 16.875C13.4968 16.875 13.3135 17.0583 13.3135 17.2917C13.3135 17.525 13.4968 17.7083 13.7301 17.7083C13.9635 17.7083 14.1468 17.525 14.1468 17.2917C14.1468 17.0583 13.9635 16.875 13.7301 16.875Z" fill="#4F4F4F"/>
<path d="M7.0634 18.9583C6.14673 18.9583 5.39673 18.2083 5.39673 17.2917C5.39673 16.375 6.14673 15.625 7.0634 15.625C7.98006 15.625 8.73006 16.375 8.73006 17.2917C8.73006 18.2083 7.98006 18.9583 7.0634 18.9583ZM7.0634 16.875C6.83006 16.875 6.64673 17.0583 6.64673 17.2917C6.64673 17.525 6.83006 17.7083 7.0634 17.7083C7.29673 17.7083 7.48006 17.525 7.48006 17.2917C7.48006 17.0583 7.29673 16.875 7.0634 16.875Z" fill="#4F4F4F"/>
<path d="M17.6885 7.29175H7.68848C7.34681 7.29175 7.06348 7.00841 7.06348 6.66675C7.06348 6.32508 7.34681 6.04175 7.68848 6.04175H17.6885C18.0301 6.04175 18.3135 6.32508 18.3135 6.66675C18.3135 7.00841 18.0301 7.29175 17.6885 7.29175Z" fill="#4F4F4F"/>
</svg>
