<svg width="56" height="56" viewBox="0 0 56 56" fill="none" xmlns="http://www.w3.org/2000/svg">
<rect width="56" height="56" rx="10" fill="#040408"/>
<path d="M33.6 21.31L27.95 18.27C27.35 17.95 26.64 17.95 26.04 18.27L20.4 21.31C19.99 21.54 19.73 21.98 19.73 22.46C19.73 22.95 19.98 23.39 20.4 23.61L26.05 26.65C26.35 26.81 26.68 26.89 27 26.89C27.32 26.89 27.66 26.81 27.95 26.65L33.6 23.61C34.01 23.39 34.27 22.95 34.27 22.46C34.27 21.98 34.01 21.54 33.6 21.31Z" fill="#84BC25"/>
<path d="M25.12 27.71L19.87 25.09C19.46 24.88 19 24.91 18.61 25.14C18.23 25.38 18 25.79 18 26.24V31.2C18 32.06 18.48 32.83 19.25 33.22L24.5 35.84C24.68 35.93 24.88 35.98 25.08 35.98C25.31 35.98 25.55 35.91 25.76 35.79C26.14 35.55 26.37 35.14 26.37 34.69V29.73C26.36 28.87 25.88 28.1 25.12 27.71Z" fill="#EBF4DC"/>
<path d="M36.0001 26.24V28.7C35.5201 28.56 35.0101 28.5 34.5001 28.5C33.1401 28.5 31.8101 28.97 30.7601 29.81C29.3201 30.94 28.5001 32.65 28.5001 34.5C28.5001 34.99 28.5601 35.48 28.6901 35.95C28.5401 35.93 28.3901 35.87 28.2501 35.78C27.8701 35.55 27.6401 35.14 27.6401 34.69V29.73C27.6401 28.87 28.1201 28.1 28.8801 27.71L34.1301 25.09C34.5401 24.88 35.0001 24.91 35.3901 25.14C35.7701 25.38 36.0001 25.79 36.0001 26.24Z" fill="#292D32"/>
<path d="M37.98 31.67C37.16 30.66 35.91 30.02 34.5 30.02C33.44 30.02 32.46 30.39 31.69 31.01C30.65 31.83 30 33.1 30 34.52C30 35.36 30.24 36.16 30.65 36.84C30.92 37.29 31.26 37.68 31.66 38H31.67C32.44 38.64 33.43 39.02 34.5 39.02C35.64 39.02 36.67 38.6 37.46 37.9C37.81 37.6 38.11 37.24 38.35 36.84C38.76 36.16 39 35.36 39 34.52C39 33.44 38.62 32.44 37.98 31.67ZM36.76 33.96L34.36 36.18C34.22 36.31 34.03 36.38 33.85 36.38C33.66 36.38 33.47 36.31 33.32 36.16L32.21 35.05C31.92 34.76 31.92 34.28 32.21 33.99C32.5 33.7 32.98 33.7 33.27 33.99L33.87 34.59L35.74 32.86C36.04 32.58 36.52 32.6 36.8 32.9C37.09 33.21 37.07 33.68 36.76 33.96Z" fill="#292D32"/>
</svg>
