<svg width="56" height="56" viewBox="0 0 56 56" fill="none" xmlns="http://www.w3.org/2000/svg">
<rect width="56" height="56" rx="10" fill="#040408"/>
<path d="M40 16H16V40H40V16Z" fill="#84BC25" fill-opacity="0.01"/>
<path d="M37.6297 30.6601L37.2197 32.5201C36.5097 35.72 33.9997 38.0001 30.3797 38.0001H25.6197C21.9997 38.0001 19.4897 35.72 18.7797 32.5201L18.3697 30.6601C18.1697 29.7501 18.7097 28.7201 19.5797 28.3701L20.9997 27.8L26.5098 25.5901C26.9898 25.4001 27.4997 25.3 27.9997 25.3C28.4997 25.3 29.0097 25.4001 29.4897 25.5901L34.9997 27.8L36.4198 28.3701C37.2898 28.7201 37.8298 29.7501 37.6297 30.6601Z" fill="#EBF4DC"/>
<path d="M35 24V27.8L29.49 25.59C28.53 25.21 27.47 25.21 26.51 25.59L21 27.8V24C21 22.35 22.35 21 24 21H32C33.65 21 35 22.35 35 24Z" fill="#84BC25"/>
<path d="M30.5 21H25.5V19C25.5 18.45 25.95 18 26.5 18H29.5C30.05 18 30.5 18.45 30.5 19V21Z" fill="#EBF4DC"/>
</svg>
