<svg width="56" height="56" viewBox="0 0 56 56" fill="none" xmlns="http://www.w3.org/2000/svg">
<rect width="56" height="56" rx="10" fill="#040408"/>
<rect width="24" height="24" transform="translate(16 16)" fill="white" fill-opacity="0.01"/>
<path d="M36.5 26.19H33.61C31.24 26.19 29.31 24.26 29.31 21.89V19C29.31 18.45 28.86 18 28.31 18H24.07C20.99 18 18.5 20 18.5 23.57V32.43C18.5 36 20.99 38 24.07 38H31.93C35.01 38 37.5 36 37.5 32.43V27.19C37.5 26.64 37.05 26.19 36.5 26.19ZM27.53 29.53C27.38 29.68 27.19 29.75 27 29.75C26.81 29.75 26.62 29.68 26.47 29.53L25.75 28.81V33C25.75 33.41 25.41 33.75 25 33.75C24.59 33.75 24.25 33.41 24.25 33V28.81L23.53 29.53C23.24 29.82 22.76 29.82 22.47 29.53C22.18 29.24 22.18 28.76 22.47 28.47L24.47 26.47C24.54 26.41 24.61 26.36 24.69 26.32C24.71 26.31 24.74 26.3 24.76 26.29C24.82 26.27 24.88 26.26 24.95 26.25C24.98 26.25 25 26.25 25.03 26.25C25.11 26.25 25.19 26.27 25.27 26.3C25.28 26.3 25.28 26.3 25.29 26.3C25.37 26.33 25.45 26.39 25.51 26.45C25.52 26.46 25.53 26.46 25.53 26.47L27.53 28.47C27.82 28.76 27.82 29.24 27.53 29.53Z" fill="#84BC25"/>
<path d="M33.4302 24.81C34.3802 24.82 35.7002 24.82 36.8302 24.82C37.4002 24.82 37.7002 24.15 37.3002 23.75C35.8602 22.3 33.2802 19.69 31.8002 18.21C31.3902 17.8 30.6802 18.08 30.6802 18.65V22.14C30.6802 23.6 31.9202 24.81 33.4302 24.81Z" fill="#EBF4DC"/>
</svg>
