<svg width="17" height="17" viewBox="0 0 17 17" fill="none" xmlns="http://www.w3.org/2000/svg">
<path d="M14.9293 14.8854H14.0959V8.05205C14.0959 6.43871 13.2093 5.55205 11.5959 5.55205H8.76261V4.73205C9.14928 4.82538 9.53595 4.87871 9.92928 4.87871C10.5559 4.87871 11.1826 4.75871 11.7826 4.51871C11.9693 4.44538 12.0959 4.25871 12.0959 4.05205V2.05205C12.0959 1.88538 12.0159 1.73205 11.8759 1.63871C11.7359 1.54538 11.5626 1.52538 11.4093 1.58538C10.4559 1.96538 9.40261 1.96538 8.44928 1.58538C8.29595 1.52538 8.12261 1.54538 7.98261 1.63871C7.84261 1.73205 7.76261 1.88538 7.76261 2.05205V4.05205V5.55205H4.92928C3.31595 5.55205 2.42928 6.43871 2.42928 8.05205V14.8854H1.59595C1.32261 14.8854 1.09595 15.112 1.09595 15.3854C1.09595 15.6587 1.32261 15.8854 1.59595 15.8854H2.92928H13.5959H14.9293C15.2026 15.8854 15.4293 15.6587 15.4293 15.3854C15.4293 15.112 15.2026 14.8854 14.9293 14.8854ZM5.08928 14.8854H3.42928V9.21871H5.08928V14.8854ZM7.75595 14.8854H6.08928V9.21871H7.75595V14.8854ZM10.4226 14.8854H8.75595V9.21871H10.4226V14.8854ZM13.0959 14.8854H11.4226V9.21871H13.0959V14.8854Z" fill="#AE0000"/>
</svg>
