<svg width="20" height="20" viewBox="0 0 20 20" fill="none" xmlns="http://www.w3.org/2000/svg">
<path opacity="0.4" d="M9.99996 18.3333C14.6023 18.3333 18.3333 14.6023 18.3333 9.99996C18.3333 5.39759 14.6023 1.66663 9.99996 1.66663C5.39759 1.66663 1.66663 5.39759 1.66663 9.99996C1.66663 14.6023 5.39759 18.3333 9.99996 18.3333Z" fill="#84BC25"/>
<path d="M13.3333 9.37496H10.625V6.66663C10.625 6.32496 10.3416 6.04163 9.99996 6.04163C9.65829 6.04163 9.37496 6.32496 9.37496 6.66663V9.37496H6.66663C6.32496 9.37496 6.04163 9.65829 6.04163 9.99996C6.04163 10.3416 6.32496 10.625 6.66663 10.625H9.37496V13.3333C9.37496 13.675 9.65829 13.9583 9.99996 13.9583C10.3416 13.9583 10.625 13.675 10.625 13.3333V10.625H13.3333C13.675 10.625 13.9583 10.3416 13.9583 9.99996C13.9583 9.65829 13.675 9.37496 13.3333 9.37496Z" fill="#84BC25"/>
</svg>
