<svg width="16" height="16" viewBox="0 0 16 16" fill="none" xmlns="http://www.w3.org/2000/svg">
<path opacity="0.4" d="M8.00004 14.6666C11.6819 14.6666 14.6667 11.6819 14.6667 7.99998C14.6667 4.31808 11.6819 1.33331 8.00004 1.33331C4.31814 1.33331 1.33337 4.31808 1.33337 7.99998C1.33337 11.6819 4.31814 14.6666 8.00004 14.6666Z" fill="#292D32"/>
<path d="M10.6667 7.49998H8.50004V5.33331C8.50004 5.05998 8.27337 4.83331 8.00004 4.83331C7.72671 4.83331 7.50004 5.05998 7.50004 5.33331V7.49998H5.33337C5.06004 7.49998 4.83337 7.72665 4.83337 7.99998C4.83337 8.27331 5.06004 8.49998 5.33337 8.49998H7.50004V10.6666C7.50004 10.94 7.72671 11.1666 8.00004 11.1666C8.27337 11.1666 8.50004 10.94 8.50004 10.6666V8.49998H10.6667C10.94 8.49998 11.1667 8.27331 11.1667 7.99998C11.1667 7.72665 10.94 7.49998 10.6667 7.49998Z" fill="#292D32"/>
</svg>
