<svg width="20" height="20" viewBox="0 0 20 20" fill="none" xmlns="http://www.w3.org/2000/svg">
<path opacity="0.4" d="M10.0001 18.3333C14.6025 18.3333 18.3334 14.6023 18.3334 9.99996C18.3334 5.39759 14.6025 1.66663 10.0001 1.66663C5.39771 1.66663 1.66675 5.39759 1.66675 9.99996C1.66675 14.6023 5.39771 18.3333 10.0001 18.3333Z" fill="#8E8E93"/>
<path d="M10.8836 10L12.8003 8.08338C13.042 7.84172 13.042 7.44172 12.8003 7.20005C12.5586 6.95838 12.1586 6.95838 11.917 7.20005L10.0003 9.11671L8.08363 7.20005C7.84196 6.95838 7.44196 6.95838 7.20029 7.20005C6.95863 7.44172 6.95863 7.84172 7.20029 8.08338L9.11696 10L7.20029 11.9167C6.95863 12.1584 6.95863 12.5584 7.20029 12.8C7.32529 12.925 7.48363 12.9834 7.64196 12.9834C7.80029 12.9834 7.95863 12.925 8.08363 12.8L10.0003 10.8834L11.917 12.8C12.042 12.925 12.2003 12.9834 12.3586 12.9834C12.517 12.9834 12.6753 12.925 12.8003 12.8C13.042 12.5584 13.042 12.1584 12.8003 11.9167L10.8836 10Z" fill="#8E8E93"/>
</svg>
