<?xml version="1.0" encoding="UTF-8"?>
<svg version="1.1" xmlns="http://www.w3.org/2000/svg" width="1688" height="1344">
<path d="M0 0 C557.04 0 1114.08 0 1688 0 C1688 443.52 1688 887.04 1688 1344 C1130.96 1344 573.92 1344 0 1344 C0 900.48 0 456.96 0 0 Z " fill="#FEFEFE" transform="translate(0,0)"/>
<path d="M0 0 C1.66411423 -0.00956978 1.66411423 -0.00956978 3.36184692 -0.01933289 C5.17409256 -0.02100212 5.17409256 -0.02100212 7.02294922 -0.02270508 C8.26954315 -0.02603348 9.51613708 -0.02936188 10.80050659 -0.03279114 C13.45200134 -0.03786675 16.10339378 -0.04063069 18.75488281 -0.04003906 C22.76228513 -0.03991911 26.76949846 -0.06028191 30.77685547 -0.0793457 C49.8498752 -0.1222329 67.23699301 1.26826599 85.70263672 6.14526367 C86.38938477 6.32428223 87.07613281 6.50330078 87.78369141 6.68774414 C114.36294865 13.72490696 158.16774512 28.60782005 173.70263672 53.14526367 C175.46706254 56.7975525 176.56823553 60.36078013 177.25341797 64.36010742 C178.78775748 69.72530019 183.18541457 73.01637048 187.14013672 76.70776367 C194.76525897 84.07670592 201.46512666 91.58960811 207.70263672 100.14526367 C208.54711455 101.27199638 209.39217093 102.3982957 210.23779297 103.52416992 C235.52613116 137.610357 249.75103169 178.78136899 251.70263672 221.14526367 C251.79158203 222.88356445 251.79158203 222.88356445 251.88232422 224.65698242 C252.24424613 240.03866345 250.38743017 255.68882061 247.02392578 270.67480469 C245.55824613 276.86080823 245.55824613 276.86080823 245.70263672 283.14526367 C247.88857573 285.90803614 247.88857573 285.90803614 250.82763672 288.39526367 C255.92950549 293.14029559 259.47321522 297.93056937 262.70263672 304.14526367 C263.25951172 305.07338867 263.81638672 306.00151367 264.39013672 306.95776367 C270.60311589 322.04642738 269.26721735 337.08823958 266.17773438 352.6862793 C265.26496211 357.41055589 264.4599638 362.1541412 263.64013672 366.89526367 C263.46716064 367.88800293 263.29418457 368.88074219 263.1159668 369.90356445 C262.24247022 374.9359477 261.39970058 379.969164 260.64013672 385.02026367 C254.8200934 423.33133143 254.8200934 423.33133143 238.19873047 437.36010742 C231.03220086 442.48546584 221.73210443 447.67640883 212.70263672 447.14526367 C212.62787109 447.8284668 212.55310547 448.51166992 212.47607422 449.21557617 C207.88960736 484.37848872 192.41350543 519.07791733 167.95263672 544.81713867 C167.49354416 545.30743561 167.0344516 545.79773254 166.56144714 546.30288696 C164.70263672 548.14526367 164.70263672 548.14526367 162.23977661 550.15432739 C157.04360305 554.64554181 154.09124968 557.8906119 153.47558594 564.88012695 C153.43567911 567.40831722 153.44871665 569.93775028 153.50732422 572.46557617 C153.50352837 573.81893795 153.49532224 575.17229379 153.48294067 576.52560425 C153.46230013 580.05465149 153.50078092 583.5805613 153.5524292 587.10919189 C153.59457973 590.72280917 153.5796586 594.33616766 153.56982422 597.94995117 C153.55886419 605.01581046 153.61048316 612.07993407 153.70263672 619.14526367 C154.57857986 619.34351746 155.45452301 619.54177124 156.35700989 619.74603271 C157.51496567 620.0102301 158.67292145 620.27442749 159.8659668 620.54663086 C161.01003494 620.80675964 162.15410309 621.06688843 163.33283997 621.3348999 C168.08935234 622.478739 172.72924012 623.91645947 177.39013672 625.39526367 C185.59787934 627.94475611 193.83351134 630.31453515 202.14013672 632.52026367 C212.07611669 635.16204419 221.99196716 637.86560968 231.89013672 640.64526367 C232.57246368 640.8368103 233.25479065 641.02835693 233.95779419 641.22570801 C243.45389347 643.89666639 252.90211398 646.70073889 262.32446289 649.62182617 C270.49449409 652.13277573 278.73682297 654.33320625 286.99951172 656.51635742 C295.20444606 658.69977074 303.31281494 661.12684609 311.41674805 663.65649414 C317.695076 665.59494639 323.99894336 667.24950042 330.39013672 668.77026367 C337.85852971 670.57405206 344.75939369 672.79616997 351.70263672 676.14526367 C352.32090332 676.43804199 352.93916992 676.73082031 353.57617188 677.0324707 C391.88279727 695.23714143 420.32842261 725.94935282 435.04638672 765.78198242 C442.91992236 788.46660219 443.27093585 811.46870308 443.10821247 835.18019176 C443.08282333 839.51890999 443.08082782 843.85764532 443.07611084 848.19642639 C443.06378928 856.37331242 443.03111795 864.54997877 442.99071288 872.72676903 C442.94565354 882.05236579 442.92392318 891.3779743 442.90393114 900.70365322 C442.86237266 919.8509802 442.79223661 938.99810414 442.70263672 958.14526367 C441.62884766 958.60779541 440.55505859 959.07032715 439.44873047 959.546875 C438.01247044 960.16937169 436.57627602 960.79201976 435.14013672 961.41479492 C434.43566406 961.71776489 433.73119141 962.02073486 433.00537109 962.33288574 C392.52482105 979.92653494 363.0947916 1014.98572461 346.82421875 1055.32299805 C345.11235048 1059.84746251 343.84900746 1064.45314159 342.70263672 1069.14526367 C342.48381836 1069.99088867 342.265 1070.83651367 342.03955078 1071.70776367 C338.21812774 1086.80264969 337.08173661 1101.47861281 336.89111328 1116.97290039 C336.88225098 1117.68507217 336.87338867 1118.39724396 336.86425781 1119.1309967 C336.84448023 1121.07619917 336.83617024 1123.02150854 336.82861328 1124.96679688 C336.70263672 1128.14526367 336.70263672 1128.14526367 335.70263672 1132.14526367 C93.48263672 1132.14526367 -148.73736328 1132.14526367 -398.29736328 1132.14526367 C-398.29736328 752.35372289 -398.29736328 752.35372289 -349.71142578 703.54760742 C-331.06472101 685.88083458 -307.1271341 673.10005251 -282.02416992 667.69628906 C-276.02984865 666.38790466 -270.21449492 664.66187008 -264.35986328 662.83276367 C-256.05119165 660.24355295 -247.71170235 657.86705894 -239.29736328 655.64526367 C-231.07585078 653.47135566 -222.91861368 651.16822695 -214.79736328 648.64526367 C-205.45654464 645.74475805 -196.05779809 643.1291629 -186.60205078 640.62963867 C-180.02750129 638.89153938 -173.48209314 637.07134609 -166.9465332 635.19189453 C-163.19057044 634.11463405 -159.43049211 633.05262492 -155.66845703 631.99682617 C-154.69431099 631.72327553 -154.69431099 631.72327553 -153.70048523 631.44419861 C-151.06192635 630.70347108 -148.42322038 629.96326904 -145.78442383 629.22338867 C-133.94429151 625.90275559 -122.1190548 622.53092877 -110.29736328 619.14526367 C-109.85194808 611.52291721 -109.51705916 603.90195065 -109.31293201 596.26945782 C-109.21478907 592.72176002 -109.08255622 589.18310742 -108.86401367 585.640625 C-107.4804204 567.9119923 -107.4804204 567.9119923 -114.39379883 552.2019043 C-118.29305724 548.06994446 -122.55201426 544.52864139 -127.03459167 541.05136108 C-132.05233261 536.82455225 -135.60314951 531.25584787 -139.19335938 525.81713867 C-140.21932206 524.26344728 -141.28234105 522.73440027 -142.34814453 521.20776367 C-157.18985709 498.84109464 -163.40912348 472.94285328 -169.29736328 447.14526367 C-170.05927979 447.03327637 -170.82119629 446.92128906 -171.60620117 446.8059082 C-185.02682507 444.75805468 -195.09835135 437.70057567 -203.77001953 427.27416992 C-211.3570602 416.69888306 -213.76482911 404.63744374 -215.67236328 392.02026367 C-215.88279613 390.66816481 -216.094075 389.31619737 -216.30615234 387.96435547 C-216.74830629 385.14121491 -217.18679088 382.31754135 -217.62255859 379.4934082 C-218.62785432 372.99451012 -219.67143113 366.50176324 -220.71759033 360.00933838 C-221.04233317 357.98905687 -221.36416767 355.96832874 -221.68554688 353.94750977 C-221.98066162 352.10600342 -221.98066162 352.10600342 -222.28173828 350.22729492 C-222.45415039 349.14681885 -222.6265625 348.06634277 -222.80419922 346.953125 C-223.09690188 345.28660358 -223.42892522 343.62501204 -223.84375 341.98461914 C-227.44329669 327.38882541 -222.51991549 310.33124027 -215.11376953 297.72338867 C-206.77104749 285.88210578 -206.77104749 285.88210578 -201.29736328 283.14526367 C-201.82643318 278.27417184 -202.58078673 273.49598396 -203.48876953 268.68041992 C-214.91007339 207.27853308 -199.34197405 143.23279564 -164.86132812 91.42260742 C-158.99077691 82.87429307 -152.36606479 74.99834159 -145.34033203 67.37573242 C-143.4569733 65.31952241 -141.65653698 63.21448141 -139.85986328 61.08276367 C-132.14436298 52.26504904 -121.95489823 42.06698843 -110.29736328 39.14526367 C-108.1685644 39.25305096 -106.04234241 39.42369816 -103.92236328 39.64526367 C-94.87632639 39.78779577 -89.46041544 35.48753277 -82.32958984 30.51782227 C-79.09061797 28.33023218 -75.71254389 26.41693623 -72.29736328 24.52026367 C-71.30869263 23.9707605 -71.30869263 23.9707605 -70.30004883 23.41015625 C-68.30471519 22.31122387 -66.30309791 21.2250867 -64.29736328 20.14526367 C-63.6320459 19.78658203 -62.96672852 19.42790039 -62.28125 19.05834961 C-52.85773428 14.03095525 -43.51451643 10.26113307 -33.29736328 7.14526367 C-30.48657433 6.21651171 -27.68063721 5.27446408 -24.87548828 4.32885742 C-19.67055546 2.66083365 -14.78470486 1.71878954 -9.32861328 1.35620117 C-6.00220138 1.01076609 -3.52308979 0.01373613 0 0 Z " fill="#000000" transform="translate(741.29736328125,30.854736328125)"/>
<path d="M0 0 C4.34808109 3.13977224 7.82303914 7.36764989 9.85546875 12.33984375 C10.26953125 15.13671875 10.26953125 15.13671875 10.48046875 18.08984375 C10.55523438 19.0746875 10.63 20.05953125 10.70703125 21.07421875 C10.75601563 21.821875 10.805 22.56953125 10.85546875 23.33984375 C11.94601562 23.48679687 11.94601562 23.48679687 13.05859375 23.63671875 C20.6825335 24.77053543 27.63906777 26.65693639 34.85546875 29.33984375 C36.60150391 29.97212891 36.60150391 29.97212891 38.3828125 30.6171875 C72.58021609 43.57129316 100.67653335 70.00975356 115.85546875 103.33984375 C120.12406654 113.09389031 122.97432578 122.84444241 124.85546875 133.33984375 C125.10598999 134.44465088 125.10598999 134.44465088 125.36157227 135.57177734 C127.41168809 145.21127306 127.23471701 154.92295985 127.31176758 164.73339844 C127.39849818 174.02405671 127.66232775 182.49184271 130.85546875 191.33984375 C131.08580811 191.99710449 131.31614746 192.65436523 131.5534668 193.33154297 C132.16160044 194.99306313 132.81916681 196.63626011 133.48046875 198.27734375 C134.82254055 201.62438947 136.0240815 204.83439569 136.85546875 208.33984375 C137.5849472 208.3309613 138.31442566 208.32207886 139.06600952 208.31292725 C145.97939094 208.23239605 152.8927012 208.17168502 159.80643272 208.13259506 C163.35993014 208.11182186 166.91303629 208.08369602 170.46630859 208.03808594 C174.56221018 207.98584654 178.65770817 207.96681391 182.75390625 207.94921875 C184.01472015 207.92857361 185.27553406 207.90792847 186.57455444 207.88665771 C195.25222392 207.88447383 202.22204229 209.13424055 209.44140625 214.12890625 C215.84501868 220.70029892 218.97631264 227.09791367 219.35546875 236.33984375 C219.038135 244.85314227 216.14640787 252.45918327 209.85546875 258.33984375 C202.87127877 262.45872502 197.11186499 264.49032837 189.00282842 264.46864492 C188.18889689 264.47041993 187.37496537 264.47219494 186.53636925 264.47402373 C183.78009076 264.47879448 181.02386391 264.47638332 178.26758289 264.47406483 C176.27456705 264.47601642 174.2815516 264.47840475 172.28853676 264.4811928 C166.76878306 264.48762002 161.24904386 264.48775226 155.72928713 264.48691539 C149.74044811 264.48708435 143.75161438 264.49298444 137.76277798 264.49815625 C127.25219763 264.50641257 116.74162014 264.51090941 106.23103714 264.51288223 C94.9492251 264.51500912 83.66741695 264.51926509 72.38560677 264.52612495 C71.31806706 264.52677088 71.31806706 264.52677088 70.22896091 264.52742985 C67.33049401 264.52918815 64.43202712 264.53095779 61.53356024 264.53274287 C26.37503391 264.55435377 -8.78349319 264.56522313 -43.94202465 264.5742191 C-55.34113997 264.57715213 -66.7402551 264.58052189 -78.1393702 264.58418632 C-79.34526447 264.58457375 -79.34526447 264.58457375 -80.57552025 264.58496902 C-83.82779185 264.58601521 -87.08006344 264.58706364 -90.33233504 264.58811484 C-145.96228413 264.60607991 -201.59223352 264.62146002 -257.22218509 264.62887387 C-261.59274949 264.62945785 -265.96331388 264.63005511 -270.33387827 264.63065149 C-271.63436723 264.63082867 -271.63436723 264.63082867 -272.9611287 264.63100942 C-281.74517492 264.63220683 -290.52922113 264.63341559 -299.31326735 264.63464196 C-301.0745122 264.63488719 -302.83575706 264.63513105 -304.59700191 264.63537353 C-361.17227479 264.64316472 -417.74752693 264.6655511 -474.32279074 264.69804995 C-514.96788014 264.72139008 -555.61296543 264.74294468 -596.25806141 264.75005627 C-597.51143271 264.7502768 -597.51143271 264.7502768 -598.79012464 264.75050178 C-617.13172026 264.75368635 -635.47331584 264.75573742 -653.8149117 264.75672933 C-661.19452277 264.75714408 -668.57413383 264.75769898 -675.95374489 264.75829124 C-676.76141148 264.75835191 -677.56907808 264.75841258 -678.40121942 264.75847509 C-704.4354613 264.76049243 -730.46967874 264.77474077 -756.50391209 264.79523625 C-782.7210847 264.81580258 -808.93822902 264.82371891 -835.15540889 264.81415848 C-838.77616055 264.81283998 -842.39691223 264.81166195 -846.01766396 264.81056786 C-847.08234069 264.81023808 -847.08234069 264.81023808 -848.16852605 264.80990165 C-859.41914715 264.80678418 -870.66971425 264.81712602 -881.92032283 264.83304341 C-892.97626115 264.8484074 -904.03213921 264.84923137 -915.08808412 264.83549517 C-921.00521249 264.82855898 -926.92215445 264.82806318 -932.83926662 264.84505526 C-938.21773263 264.86037536 -943.5958611 264.85742748 -948.97431671 264.83964498 C-950.91228606 264.83648411 -952.8502807 264.84008918 -954.78822114 264.85113673 C-957.41427544 264.86513681 -960.03913276 264.85453903 -962.6651451 264.8377884 C-963.41472751 264.84770578 -964.16430992 264.85762315 -964.93660694 264.86784105 C-972.39362325 264.76731455 -978.81334465 261.52694422 -984.14453125 256.33984375 C-990.20680263 248.12758077 -992.18396313 240.53680202 -991.14453125 230.33984375 C-989.18233889 222.83181432 -984.43557679 216.31051744 -978.06769941 211.90206136 C-970.79196527 207.91804016 -964.41689247 207.63505682 -956.23274803 207.70898724 C-954.83627571 207.7035726 -953.43981049 207.69596827 -952.04336053 207.68638846 C-948.21244091 207.66642222 -944.38214751 207.67743173 -940.55123313 207.69357358 C-936.38125599 207.70561445 -932.21137987 207.68859774 -928.04142058 207.67528707 C-920.73543909 207.65595785 -913.42963761 207.65512793 -906.12364197 207.66644096 C-895.25995917 207.68317897 -884.39643933 207.67128284 -873.53276487 207.65352726 C-855.25787612 207.62446943 -836.98304876 207.61862209 -818.70814133 207.62599754 C-800.61339866 207.63322446 -782.51870616 207.6301385 -764.42396927 207.61327553 C-763.29894308 207.61223288 -762.17391689 207.61119023 -761.014799 207.61011599 C-755.30137197 207.60476724 -749.58794513 207.59923421 -743.87451835 207.59363023 C-703.40511416 207.55426757 -662.93573044 207.53803314 -622.46630859 207.53540039 C-583.15054161 207.53278976 -543.83480092 207.51970281 -504.51904297 207.49243164 C-503.30718483 207.49159522 -502.09532669 207.49075879 -500.84674558 207.48989702 C-488.6767809 207.48148573 -476.50681638 207.47286145 -464.33685196 207.46408112 C-439.54517628 207.44619937 -414.75349972 207.42973926 -389.96182251 207.41413879 C-388.8219384 207.41341975 -387.6820543 207.41270072 -386.50762825 207.41195989 C-310.38660489 207.36410569 -234.26556786 207.34939155 -158.14453125 207.33984375 C-157.35241196 205.44419949 -156.56085549 203.54832004 -155.76953125 201.65234375 C-155.32867188 200.59660156 -154.8878125 199.54085938 -154.43359375 198.453125 C-149.96032236 187.64949682 -148.92858467 178.27180952 -148.85397339 166.70385742 C-148.63546832 143.16244331 -145.22022755 121.81020053 -135.14453125 100.33984375 C-134.85320313 99.7169043 -134.561875 99.09396484 -134.26171875 98.45214844 C-119.25296787 67.11962762 -90.61072791 42.13649384 -58.37890625 29.7265625 C-39.84702594 23.33984375 -39.84702594 23.33984375 -31.14453125 23.33984375 C-31.1909375 22.71078125 -31.23734375 22.08171875 -31.28515625 21.43359375 C-31.5514417 15.11882449 -30.93553746 10.50536684 -27.14453125 5.33984375 C-19.56016067 -2.74775521 -10.07111905 -5.64867157 0 0 Z " fill="#000000" transform="translate(1254.14453125,983.66015625)"/>
<path d="M0 0 C6.01072826 3.07121564 11.47790329 6.5641465 16.93969727 10.52124023 C18.6870795 11.76397768 20.43582312 13.0048027 22.18579102 14.24389648 C23.0789502 14.8769873 23.97210937 15.51007813 24.89233398 16.16235352 C40.62571944 27.21589249 56.49926859 38.34855263 74.62719727 45.08374023 C76.3171582 45.73149414 76.3171582 45.73149414 78.04125977 46.39233398 C88.073256 50.01201571 98.07761281 51.75657519 108.62719727 53.08374023 C109.36043213 53.17945313 110.09366699 53.27516602 110.84912109 53.3737793 C127.7848438 55.44549546 145.67402423 54.88786618 161.93969727 49.39624023 C168.34951622 47.32605691 175.53525757 46.68137017 181.98657227 48.89233398 C191.29562798 54.10612682 196.35797308 64.67611544 201.63232422 73.52392578 C202.07664795 74.26811768 202.52097168 75.01230957 202.97875977 75.77905273 C203.41349609 76.50898438 203.84823242 77.23891602 204.29614258 77.9909668 C205.57799631 80.00638319 206.98087911 81.83063612 208.46313477 83.70092773 C211.01573366 87.25417785 211.21087353 89.67581707 210.62719727 94.08374023 C209.84544531 97.47109365 208.86088799 100.7695663 207.81469727 104.08374023 C207.42314453 105.37924805 207.42314453 105.37924805 207.02368164 106.70092773 C205.49980836 111.65257523 203.71466054 116.34543582 201.62719727 121.08374023 C198.72441716 129.63685168 198.7251889 137.69678732 202.52172852 146.05249023 C205.80408548 152.08367619 210.49291189 156.05456767 216.62719727 159.08374023 C219.82086051 159.87927368 222.88530626 160.37223816 226.15844727 160.69702148 C228.62719727 161.08374023 228.62719727 161.08374023 230.62719727 163.08374023 C230.47290039 166.17480469 230.47290039 166.17480469 229.90844727 170.13452148 C229.81011597 170.84490067 229.71178467 171.55527985 229.61047363 172.28718567 C229.29368631 174.55441618 228.96114429 176.81897994 228.62719727 179.08374023 C228.423356 180.5138141 228.22021756 181.94398835 228.01782227 183.37426758 C227.40443963 187.67579247 226.76693604 191.97357002 226.12719727 196.27124023 C225.9121997 197.72629564 225.6973557 199.18137374 225.48266602 200.63647461 C224.22812325 209.12365738 222.94294542 217.60580152 221.62719727 226.08374023 C219.83475586 226.13981445 219.83475586 226.13981445 218.00610352 226.19702148 C203.03301737 226.48042054 203.03301737 226.48042054 190.31469727 233.58374023 C186.0292472 238.28418448 184.29485167 243.01631677 182.62719727 249.08374023 C182.44624512 249.73713379 182.26529297 250.39052734 182.07885742 251.0637207 C180.01158506 258.58653341 178.10908004 266.15106957 176.22094727 273.72045898 C167.42452059 308.67273682 155.19308723 338.04477477 123.62719727 358.08374023 C119.09069371 360.73899385 114.47263541 363.21149688 109.81469727 365.64624023 C108.57524776 366.29935965 107.33599203 366.95284693 106.09692383 367.60668945 C103.68533414 368.87676085 101.27075277 370.14083938 98.85327148 371.3996582 C96.16689013 372.80200863 93.49084775 374.22116081 90.81860352 375.65014648 C73.39836707 384.84358148 55.37486761 388.98400168 35.62719727 388.08374023 C34.62688477 388.0540918 33.62657227 388.02444336 32.59594727 387.99389648 C14.27815214 387.08245279 -1.6028201 379.75818658 -17.62280273 371.39624023 C-18.20963837 371.09071228 -18.796474 370.78518433 -19.40109253 370.47039795 C-47.58868618 355.76336963 -70.14463742 338.67664613 -83.37280273 309.08374023 C-83.81108398 308.12983398 -84.24936523 307.17592773 -84.70092773 306.19311523 C-88.62238612 296.91067576 -90.62456126 287.13172548 -92.89233398 277.34545898 C-94.49304009 270.47380413 -96.34475538 263.69121891 -98.29467773 256.91186523 C-98.95698283 254.56020221 -99.58075423 252.19676344 -100.13842773 249.81811523 C-102.12113889 241.38006544 -106.00461241 234.93596313 -113.37280273 230.08374023 C-119.09180929 227.14337697 -123.92776327 226.56611771 -130.31030273 226.39624023 C-131.18493164 226.36208008 -132.05956055 226.32791992 -132.96069336 226.29272461 C-135.09763528 226.21098366 -137.23519492 226.14566893 -139.37280273 226.08374023 C-141.76316291 212.53228359 -143.89964125 198.94692593 -145.83853149 185.32409668 C-146.06919031 183.70918046 -146.30271885 182.09467145 -146.53915405 180.48059082 C-146.87369653 178.18926539 -147.19700261 175.89662143 -147.51733398 173.60327148 C-147.61917999 172.91769669 -147.721026 172.23212189 -147.82595825 171.52577209 C-148.33267027 167.79409117 -148.36608854 164.72695658 -147.37280273 161.08374023 C-146.13916992 160.98899414 -146.13916992 160.98899414 -144.88061523 160.89233398 C-135.61950395 159.87639221 -128.79581887 157.40387757 -122.71655273 150.09155273 C-117.96297229 142.98881916 -116.52013025 135.51210762 -117.37280273 127.08374023 C-118.49735473 122.96401088 -120.04462684 119.0484185 -121.62280273 115.08374023 C-124.49541881 107.49675657 -127.18832342 100.01523144 -128.93530273 92.08374023 C-129.09095703 91.39795898 -129.24661133 90.71217773 -129.40698242 90.00561523 C-131.17521911 81.3891717 -130.84619677 74.7155967 -127.08374023 66.79467773 C-126.74283356 66.0471524 -126.40192688 65.29962708 -126.0506897 64.52944946 C-125.33078392 62.96108697 -124.60257424 61.39651168 -123.86645508 59.83569336 C-122.75163819 57.46688995 -121.66798118 55.08562288 -120.58764648 52.70092773 C-119.87981927 51.16884105 -119.17024067 49.63756204 -118.45874023 48.10717773 C-118.13972748 47.40595795 -117.82071472 46.70473816 -117.49203491 45.98226929 C-114.66714985 40.05528458 -111.06256261 35.06903919 -105.74780273 31.14624023 C-100.14357318 29.38194574 -93.87665414 29.31118966 -88.12280273 30.57983398 C-72.34114878 33.47164274 -55.95481199 31.03119414 -42.09155273 22.97827148 C-36.70492406 19.22465811 -32.08543638 14.62898526 -27.37280273 10.08374023 C-19.36053952 2.5876044 -11.58533105 -4.4736853 0 0 Z " fill="#FEFEFE" transform="translate(722.372802734375,196.916259765625)"/>
<path d="M0 0 C4.30184521 1.40372057 8.37404761 3.0144654 12.5 4.875 C22.45630766 9.22461239 32.80392364 11.79367954 43.375 14.1875 C44.11202148 14.35459473 44.84904297 14.52168945 45.60839844 14.69384766 C54.75291841 16.69640266 63.4663764 17.15717254 72.8125 17.125 C74.48022461 17.13080078 74.48022461 17.13080078 76.18164062 17.13671875 C99.94279292 17.10891167 120.8965907 11.37720041 142.6159668 1.95214844 C144.74438974 1.10208705 146.77672936 0.52908222 149 0 C149.01000031 0.93576874 149.02000061 1.87153748 149.03030396 2.83566284 C149.33206416 27.56126657 151.00474534 51.94224097 153.60229492 76.5256958 C154.05946287 80.88321846 154.49946826 85.24247383 154.94140625 89.6015625 C156.40302345 103.96634368 157.92225939 118.32465279 159.4765625 132.6796875 C161.7219418 153.43496063 163.73383689 174.21488636 165.79681396 194.9888916 C168.01132799 217.28540489 170.24283093 239.57764581 172.66094971 261.85314941 C173.58953962 270.47173425 174.47724702 279.09465147 175.36254883 287.71777344 C175.58325072 289.86211371 175.80530318 292.00631532 176.02856445 294.15039062 C176.35921458 297.32652809 176.68591741 300.50304945 177.01171875 303.6796875 C177.16165535 305.10920242 177.16165535 305.10920242 177.31462097 306.56759644 C178.63162296 319.53343226 178.63162296 319.53343226 175.54296875 325.46484375 C175.01388916 326.49843018 174.48480957 327.5320166 173.93969727 328.59692383 C173.36147217 329.69931396 172.78324707 330.8017041 172.1875 331.9375 C171.27696332 333.71454877 170.36645001 335.49161113 169.45854187 337.27000427 C168.84406787 338.47312273 168.22826689 339.67556434 167.61116028 340.87733459 C164.99530469 345.97711597 162.50831357 351.12961039 160.0625 356.3125 C154.5755582 367.88050437 148.94271242 379.3762474 143.3125 390.875 C136.91276754 403.94649024 130.52303694 417.02226905 124.1875 430.125 C116.80744265 445.38514306 109.33894279 460.60167169 101.87121582 475.81906128 C92.85866895 494.18601376 83.8966271 512.57662715 75 531 C72.83092202 528.25178606 71.15602911 525.53889116 69.62182617 522.39477539 C69.17164124 521.47742111 68.7214563 520.56006683 68.25762939 519.61491394 C67.77429138 518.6192189 67.29095337 517.62352386 66.79296875 516.59765625 C66.02385162 515.02598442 66.02385162 515.02598442 65.23919678 513.42256165 C63.55135332 509.9711195 61.86943944 506.51682259 60.1875 503.0625 C59.00746308 500.64557002 57.82612669 498.22927602 56.64477539 495.81298828 C54.2392226 490.89134267 51.83629823 485.96842302 49.43554688 481.04443359 C46.38316134 474.78404974 43.32580609 468.52610796 40.265625 462.26953125 C39.36970705 460.43774572 38.47379231 458.60595863 37.57788086 456.77416992 C37.14168427 455.88233002 36.70548767 454.99049011 36.256073 454.07162476 C34.92870824 451.35701989 33.60205587 448.64206803 32.27563477 445.92700195 C26.3211132 433.73935978 20.35235338 421.55875672 14.37792969 409.38085938 C0.0800655 380.23690166 0.0800655 380.23690166 -5.71484375 368.3203125 C-6.06879715 367.59264175 -6.42275055 366.86497101 -6.78742981 366.11524963 C-8.43509459 362.72406852 -10.0758168 359.32981736 -11.70239258 355.9284668 C-14.58236306 349.91451948 -17.52726874 343.95651183 -20.671875 338.07421875 C-21.24574951 336.97029785 -21.81962402 335.86637695 -22.41088867 334.72900391 C-23.45328831 332.73049343 -24.52537063 330.74693529 -25.63793945 328.78662109 C-28.63108924 322.95931462 -29.2290115 318.12248656 -28.7253418 311.6496582 C-28.67202572 310.85765959 -28.61870964 310.06566097 -28.56377792 309.2496624 C-28.05978771 302.08363695 -27.3713428 294.93660731 -26.60208893 287.79459763 C-26.24910978 284.51437024 -25.90696432 281.2330267 -25.56371689 277.95176888 C-25.36829301 276.08413965 -25.17238816 274.2165607 -24.97604752 272.34902763 C-23.70197525 260.21275691 -22.48078102 248.07109296 -21.25441933 235.92992973 C-20.60358965 229.48726594 -19.95090826 223.0447896 -19.29841769 216.60229385 C-19.07381179 214.3845015 -18.84924905 212.16670477 -18.62469769 209.9489069 C-9.57714202 120.59272753 -9.57714202 120.59272753 -5.43669128 80.71381378 C-5.18898456 78.32680587 -4.94178658 75.93974574 -4.69470215 73.55267334 C-4.31806332 69.91547644 -3.93993236 66.27843812 -3.56039619 62.64154243 C-3.3646942 60.76427612 -3.1701049 58.88689391 -2.97557068 57.00950623 C-2.5300575 52.76064315 -2.081861 48.53453744 -1.43505859 44.31103516 C-0.86679792 39.9862589 -0.76820657 35.7052294 -0.68359375 31.34765625 C-0.66281265 30.44752304 -0.64203156 29.54738983 -0.62062073 28.61997986 C-0.55566163 25.76755813 -0.49649172 22.91505075 -0.4375 20.0625 C-0.39426367 18.11913206 -0.35064781 16.17577252 -0.30664062 14.23242188 C-0.20003585 9.48836721 -0.09862005 4.74422709 0 0 Z " fill="#FDFDFD" transform="translate(689,624)"/>
<path d="M0 0 C8.01257027 4.88357385 14.72779221 12.3241544 21.53125 18.74609375 C24.02016552 21.09136707 26.53465108 23.39137286 29.125 25.625 C32.69973065 28.71262449 36.20139011 31.87556031 39.6875 35.0625 C40.23486816 35.55766113 40.78223633 36.05282227 41.34619141 36.56298828 C50.5496862 45.01517737 50.5496862 45.01517737 51.61328125 49.703125 C50.66830279 54.7831366 48.43272778 59.12170593 46.1875 63.75 C41.46875185 73.73696076 37.04495429 83.81060704 32.79370117 94.00488281 C32.36935791 95.0203418 31.94501465 96.03580078 31.5078125 97.08203125 C31.10079102 98.07025879 30.69376953 99.05848633 30.27441406 100.07666016 C29.41652845 102.04453799 28.48897345 103.98331881 27.49902344 105.88818359 C24.69546818 111.3445959 23.32459594 114.72945644 25.20019531 120.68164062 C25.46413086 121.44669922 25.72806641 122.21175781 26 123 C26.46804042 124.81457731 26.92312483 126.63253141 27.3671875 128.453125 C27.86729116 130.38606534 28.36997406 132.31833988 28.875 134.25 C29.14183594 135.27287109 29.40867187 136.29574219 29.68359375 137.34960938 C31.28478051 143.43334555 33.0247029 149.44406908 34.9375 155.4375 C36.7264169 161.43563313 38.23126806 167.50879553 39.7890625 173.5703125 C41.08562355 178.58630121 42.42428533 183.56276071 44 188.5 C46.21751845 195.44822448 47.97431756 202.50897823 49.7890625 209.5703125 C51.08562355 214.58630121 52.42428533 219.56276071 54 224.5 C55.91710188 230.58577875 57.63970127 236.71833156 59.3125 242.875 C59.73112305 244.35709961 59.73112305 244.35709961 60.15820312 245.86914062 C63.09366352 256.85657636 60.25197912 263.16937031 55.125 273 C50.36878583 282.23127282 45.80735464 291.53288547 41.3434906 300.90841675 C36.67902488 310.69727175 31.91588433 320.43640398 27.13781738 330.17019653 C18.88089925 346.99242496 10.66860273 363.83476359 2.546875 380.72265625 C0.72982348 384.49859389 -1.10788728 388.26113343 -3 392 C-5.11071224 389.31332792 -6.79218264 386.66275643 -8.3125 383.60546875 C-8.74151611 382.74622803 -9.17053223 381.8869873 -9.61254883 381.00170898 C-10.07040771 380.07302002 -10.5282666 379.14433105 -11 378.1875 C-11.49072998 377.19886963 -11.98145996 376.21023926 -12.48706055 375.19165039 C-16.09713749 367.8934564 -19.61845711 360.55504164 -23.11279297 353.20092773 C-28.20533975 342.51249096 -33.41898836 331.88349931 -38.625 321.25 C-46.40909274 305.34981592 -54.17186593 289.439672 -61.89697266 273.51074219 C-62.22994354 272.8243013 -62.56291443 272.13786041 -62.90597534 271.43061829 C-63.79146887 269.60485653 -64.67651476 267.77887769 -65.56152344 265.95288086 C-66.41513495 264.20060129 -67.2838286 262.45533222 -68.18457031 260.72680664 C-71.52965189 253.64304555 -66.69154464 243.15760029 -64.50585938 236.171875 C-62.47053465 229.65883587 -60.68097986 223.11285372 -59 216.5 C-56.94377852 208.45210869 -54.68899515 200.49803109 -52.25 192.55859375 C-50.32935351 186.24646908 -48.63411999 179.89179227 -47 173.5 C-45.15418163 166.28015837 -43.18810816 159.1236583 -41 152 C-38.71842066 144.56432765 -36.64638048 137.08972353 -34.6875 129.5625 C-34.43291016 128.58474609 -34.17832031 127.60699219 -33.91601562 126.59960938 C-32.93823732 122.8047337 -32.93823732 122.8047337 -32 119 C-31.75636719 118.20819336 -31.51273438 117.41638672 -31.26171875 116.60058594 C-30.89622003 112.9687834 -32.06287912 110.86163893 -33.61328125 107.57421875 C-33.89859711 106.95761383 -34.18391296 106.34100891 -34.47787476 105.70571899 C-35.41101914 103.69394183 -36.36184199 101.69105172 -37.3125 99.6875 C-38.61338324 96.89627732 -39.90456294 94.10060806 -41.1953125 91.3046875 C-41.51974838 90.6049733 -41.84418427 89.90525909 -42.17845154 89.18434143 C-45.65313254 81.65753137 -48.80514488 74.00787719 -51.88989258 66.31323242 C-52.26009521 65.40162354 -52.63029785 64.49001465 -53.01171875 63.55078125 C-53.32584717 62.76356689 -53.63997559 61.97635254 -53.96362305 61.1652832 C-54.9417301 58.92692136 -54.9417301 58.92692136 -56.58520508 56.94995117 C-58.41510783 54.42787468 -58.66624392 52.22012871 -58.53515625 49.13671875 C-57.44544903 44.78584393 -54.12485705 42.04443794 -51 39 C-49.9171875 37.88238281 -49.9171875 37.88238281 -48.8125 36.7421875 C-44.80008256 32.63224603 -40.65436441 28.75044466 -36.296875 25.01171875 C-33.31174231 22.39718927 -30.40834649 19.69933371 -27.5 17 C-7.51061423 -1.50212285 -7.51061423 -1.50212285 0 0 Z " fill="#000000" transform="translate(767,698)"/>
<path d="M0 0 C2.82634194 2.24707791 5.56407337 4.56322071 8.27734375 6.9453125 C9.05078125 7.62207031 9.82421875 8.29882812 10.62109375 8.99609375 C22.20915515 19.82929904 30.41731688 34.32460355 35.02734375 49.3828125 C35.2385083 50.06263184 35.44967285 50.74245117 35.66723633 51.44287109 C37.40050509 57.45201067 37.68597373 62.44024224 38.27734375 68.9453125 C-25.41265625 68.9453125 -89.10265625 68.9453125 -154.72265625 68.9453125 C-152.66556445 46.31730274 -143.57440756 27.95636098 -128.72265625 10.9453125 C-128.18125 10.31882812 -127.63984375 9.69234375 -127.08203125 9.046875 C-94.50241757 -26.00089123 -37.32989284 -28.17148298 0 0 Z " fill="#FDFDFD" transform="translate(1301.72265625,1065.0546875)"/>
<path d="M0 0 C1.46346611 -0.01723618 1.46346611 -0.01723618 2.95649719 -0.03482056 C4.03077469 -0.0422226 5.10505219 -0.04962463 6.21188354 -0.05725098 C7.34049301 -0.06864105 8.46910248 -0.08003113 9.63191223 -0.09176636 C20.04962635 -0.18936384 30.46793156 -0.24072019 40.88603401 -0.27745819 C48.58307014 -0.3050036 56.27918181 -0.35570453 63.97583306 -0.43793249 C70.04561571 -0.50057385 76.11503227 -0.52469293 82.18511581 -0.53572083 C84.76312754 -0.54612836 87.34112007 -0.56856856 89.91891861 -0.60331726 C93.53163923 -0.64949662 97.14190213 -0.65152521 100.75485229 -0.64318848 C101.81698441 -0.66678436 102.87911652 -0.69038025 103.97343445 -0.71469116 C110.6470978 -0.64027489 114.12036351 0.70194619 118.93229485 5.37163544 C122.95347388 10.38875551 121.59715373 17.90786063 121.62155151 23.9798584 C121.65248901 25.88734863 121.65248901 25.88734863 121.68405151 27.83337402 C121.69178589 29.67898926 121.69178589 29.67898926 121.69967651 31.56188965 C121.70902222 32.68442139 121.71836792 33.80695312 121.72799683 34.96350098 C121.17982273 39.890685 119.4942073 43.1289018 115.87155151 46.4798584 C112.4118266 48.81517271 109.8358193 49.29306849 105.76124573 49.30780029 C104.81499329 49.31351044 103.86874084 49.31922058 102.89381409 49.32510376 C101.85739273 49.32622162 100.82097137 49.32733948 99.75314331 49.32849121 C98.66018951 49.33345612 97.56723572 49.33842102 96.44116211 49.34353638 C92.81769181 49.35816717 89.19426528 49.36496154 85.57077026 49.3704834 C83.05594379 49.37623408 80.54111733 49.38199182 78.02629089 49.38775635 C73.42422866 49.39692477 68.82217901 49.40322403 64.22010869 49.4062531 C57.45318019 49.41073188 50.68645387 49.42827265 43.91958684 49.45725369 C38.05323944 49.48150321 32.18695932 49.4891988 26.32056618 49.49092865 C23.82749137 49.4939569 21.33441746 49.50199119 18.84137535 49.51511383 C15.35347543 49.53216252 11.86606796 49.53029665 8.37814331 49.52380371 C6.83262032 49.53762589 6.83262032 49.53762589 5.25587463 49.55172729 C-1.70092957 49.51114594 -5.89654132 48.31816929 -11.45657349 43.9407959 C-15.13639086 39.15348935 -14.443731 32.67300679 -14.39016724 26.9095459 C-14.37850406 24.80239925 -14.430711 22.70331493 -14.48782349 20.5970459 C-14.54897711 14.27064723 -14.48595086 9.23701524 -10.20657349 4.2532959 C-6.78509294 0.99639515 -4.70631912 0.04520568 0 0 Z " fill="#FEFEFE" transform="translate(945.6284484863281,985.8326416015625)"/>
<path d="M0 0 C0.76749492 0.00291284 1.53498984 0.00582568 2.32574219 0.00882679 C3.13513998 0.00797237 3.94453777 0.00711794 4.77846277 0.00623763 C7.51164669 0.00458035 10.24477027 0.01010822 12.97794861 0.01555592 C14.9288102 0.01583776 16.87967191 0.01568011 18.83053344 0.01511341 C24.14436356 0.01482533 29.45817131 0.02072377 34.7719962 0.02768737 C40.31870881 0.03391915 45.86542188 0.03452457 51.41213745 0.03571278 C61.92356821 0.03882662 72.43498863 0.04704071 82.94641483 0.05706227 C94.90993332 0.06822178 106.87345229 0.07373345 118.83697468 0.0787577 C143.45420305 0.08922328 168.07142149 0.10702408 192.68864197 0.12908131 C194.66864197 9.03908131 194.66864197 9.03908131 196.68864197 18.12908131 C128.37864197 18.12908131 60.06864197 18.12908131 -10.31135803 18.12908131 C-6.04978929 0.01741415 -6.04978929 0.01741415 0 0 Z " fill="#F3F3F3" transform="translate(1150.3113580346107,1173.8709186911583)"/>
</svg>
