<svg width="40" height="40" viewBox="0 0 40 40" fill="none" xmlns="http://www.w3.org/2000/svg">
<rect width="40" height="40" rx="20" fill="#3C3C43" fill-opacity="0.29"/>
<path d="M30.2335 25.9295C30.1194 25.3551 29.8924 24.8204 29.5785 24.3496L30.1948 23.7333L28.9675 22.506L28.3512 23.1223C27.8804 22.8084 27.3457 22.5824 26.7713 22.4673V21.5958H25.0345V22.4673C24.4601 22.5814 23.9254 22.8084 23.4546 23.1223L22.8383 22.506L21.611 23.7333L22.2273 24.3496C21.9134 24.8204 21.6874 25.3551 21.5723 25.9295H20.6997V27.6663H21.5713C21.6853 28.2407 21.9124 28.7754 22.2263 29.2462L21.61 29.8625L22.8373 31.0897L23.4535 30.4735C23.9244 30.7874 24.459 31.0133 25.0334 31.1284V32H26.7703V31.1284C27.3447 31.0144 27.8793 30.7874 28.3502 30.4735L28.9664 31.0897L30.1937 29.8625L29.5774 29.2462C29.8913 28.7754 30.1173 28.2407 30.2324 27.6663H31.104V25.9295H30.2335ZM25.9018 29.7222C24.2863 29.7222 22.9774 28.4123 22.9774 26.7978C22.9774 25.1824 24.2874 23.8734 25.9018 23.8734C27.5173 23.8734 28.8262 25.1834 28.8262 26.7978C28.8262 28.4133 27.5173 29.7222 25.9018 29.7222ZM20.5102 29.8624L21.4268 30.779H9.83507C9.31716 30.779 8.89551 30.3573 8.89551 29.8394V10.9726C8.89551 10.4547 9.31716 10.033 9.83507 10.033H13.5338C13.5097 10.1565 13.5097 10.2873 13.538 10.4202L13.7012 11.1756H10.4273C10.2128 11.1756 10.0391 11.3493 10.0391 11.5637V29.2472C10.0391 29.4617 10.2128 29.6354 10.4273 29.6354H20.7363L20.5102 29.8624ZM29.2531 20.9071L28.6452 19.6139H30.358L29.7501 20.9061C29.7041 21.0055 29.6099 21.0641 29.5011 21.0641C29.3933 21.0651 29.3002 21.0055 29.2531 20.9071ZM30.5411 10.1305H28.4632V9.44932C28.4632 9.18984 28.6756 8.97745 28.9351 8.97745H30.0692C30.3287 8.97745 30.5411 9.18984 30.5411 9.44932V10.1305ZM25.0336 11.1757H21.7597L21.9229 10.4203C21.9511 10.2874 21.9511 10.1566 21.9271 10.0331H25.6258C26.1437 10.0331 26.5654 10.4548 26.5654 10.9727V20.8183H25.4228V11.5649C25.4228 11.3504 25.2481 11.1757 25.0336 11.1757ZM30.5411 18.8397H28.4632V10.9046H30.5411V18.8397ZM10.8153 28.8589H21.1337C21.0751 28.7228 21.0217 28.5837 20.9747 28.4424H19.9221V27.2382C19.7547 27.1513 19.6291 27.0362 19.5088 26.9243C19.4073 26.8301 19.311 26.7422 19.1719 26.737C18.9877 26.7307 18.7408 26.9598 18.4834 27.2005C18.09 27.5667 17.6778 27.9507 17.0908 27.9507C16.2203 27.9507 16.0801 27.3135 15.9399 26.6721C15.8656 26.3331 15.7913 25.9931 15.5287 25.9931C15.2086 25.9931 15.0223 26.1793 14.812 26.3907C14.405 26.7977 13.9373 27.2664 12.7267 27.2664C12.5122 27.2664 12.3386 27.0927 12.3386 26.8782C12.3386 26.6637 12.5123 26.4901 12.7267 26.4901C13.6182 26.4901 13.9624 26.1458 14.2616 25.8456C14.5944 25.5118 14.8894 25.2167 15.5287 25.2167C16.416 25.2167 16.5583 25.8644 16.6985 26.5089C16.7717 26.8416 16.8439 27.1743 17.0898 27.1743C17.3733 27.1743 17.6705 26.8981 17.954 26.6345C18.3307 26.2829 18.6927 25.9471 19.198 25.9648C19.5496 25.9774 19.7463 26.103 19.921 26.2547V25.1519H20.9736C21.051 24.9206 21.1441 24.6946 21.253 24.477L20.643 23.867H17.005C16.7906 23.867 16.6169 23.6934 16.6169 23.4789C16.6169 23.2644 16.7906 23.0907 17.005 23.0907H20.8165C20.9107 23.0907 20.9965 23.1242 21.0635 23.1796L21.9852 22.2579L17.0049 22.2558C16.7904 22.2558 16.6167 22.0821 16.6167 21.8676C16.6167 21.6531 16.7904 21.4794 17.0049 21.4794H22.7323C22.7417 21.4794 22.7522 21.4794 22.7616 21.4805L22.8359 21.4062L23.5798 22.1501C23.7974 22.0413 24.0234 21.9471 24.2546 21.8707V20.8182H24.6428L24.6449 11.9529H21.5898C21.436 12.5367 20.9128 12.9437 20.3028 12.9437H15.1561C14.5472 12.9437 14.023 12.5367 13.8692 11.9529H10.8151L10.8153 28.8589ZM17.0051 14.1333H22.7325C22.947 14.1333 23.1207 14.307 23.1207 14.5215C23.1207 14.7359 22.947 14.9096 22.7325 14.9096L17.0051 14.9107C16.7906 14.9107 16.6169 14.737 16.6169 14.5225C16.6169 14.307 16.7906 14.1333 17.0051 14.1333ZM17.0051 15.7435H20.8166C21.031 15.7435 21.2047 15.9172 21.2047 16.1317C21.2047 16.3462 21.031 16.5199 20.8166 16.5199L17.0051 16.5209C16.7906 16.5209 16.6169 16.3472 16.6169 16.1327C16.6169 15.9182 16.7906 15.7435 17.0051 15.7435ZM17.0051 17.8057H22.7325C22.947 17.8057 23.1207 17.9794 23.1207 18.1939C23.1207 18.4084 22.947 18.5821 22.7325 18.5821L17.0051 18.5831C16.7906 18.5831 16.6169 18.4094 16.6169 18.195C16.6169 17.9805 16.7906 17.8057 17.0051 17.8057ZM17.0051 19.417H20.8166C21.031 19.417 21.2047 19.5907 21.2047 19.8052C21.2047 20.0197 21.031 20.1934 20.8166 20.1934H17.0051C16.7906 20.1934 16.6169 20.0197 16.6169 19.8052C16.6169 19.5907 16.7906 19.417 17.0051 19.417ZM12.4484 14.9975C12.598 14.8437 12.8429 14.8406 12.9967 14.9902L13.5711 15.5499L14.8235 14.285C14.9741 14.1332 15.22 14.1322 15.3717 14.2829C15.5234 14.4335 15.5245 14.6794 15.3738 14.8311L13.8504 16.3681C13.7008 16.5188 13.457 16.5209 13.3053 16.3723L12.4557 15.5436C12.303 15.3961 12.2998 15.1513 12.4484 14.9975ZM12.4484 18.67C12.598 18.5162 12.8429 18.513 12.9967 18.6627L13.5711 19.2224L14.8235 17.9574C14.9741 17.8057 15.22 17.8047 15.3717 17.9553C15.5234 18.106 15.5245 18.3519 15.3738 18.5036L13.8504 20.0406C13.7008 20.1913 13.457 20.1934 13.3053 20.0448L12.4557 19.2161C12.303 19.0696 12.2998 18.8238 12.4484 18.67ZM12.4484 22.3425C12.598 22.1887 12.8429 22.1855 12.9967 22.3352L13.5711 22.8949L14.8235 21.6299C14.9741 21.4782 15.22 21.4772 15.3717 21.6278C15.5234 21.7785 15.5245 22.0244 15.3738 22.1761L13.8504 23.7131C13.7008 23.8638 13.457 23.8659 13.3053 23.7173L12.4557 22.8886C12.303 22.7421 12.2998 22.4963 12.4484 22.3425ZM14.2972 10.2568C14.2721 10.1417 14.3589 10.034 14.4771 10.034H16.8323L15.8949 8.70833C15.6846 8.41013 15.8959 8 16.2611 8H19.1959C19.5611 8 19.7724 8.41013 19.5621 8.70833L18.6246 10.034H20.9798C21.0981 10.034 21.1849 10.1417 21.1598 10.2568L20.8417 11.731C20.7863 11.9884 20.5644 12.1673 20.3008 12.1673H15.1562C14.8925 12.1673 14.6707 11.9884 14.6153 11.731L14.2972 10.2568Z" fill="black"/>
</svg>
