<svg width="40" height="40" viewBox="0 0 40 40" fill="none" xmlns="http://www.w3.org/2000/svg">
<rect width="40" height="40" rx="20" fill="#3C3C43" fill-opacity="0.29"/>
<path d="M17.4429 19.5253C17.4429 18.9389 17.9195 18.4613 18.5069 18.4613C19.0944 18.4613 19.572 18.9378 19.572 19.5253C19.572 19.7482 19.3913 19.9279 19.1694 19.9279C18.9465 19.9279 18.7668 19.7472 18.7668 19.5253C18.7668 19.3836 18.6508 19.2675 18.508 19.2675C18.3663 19.2675 18.2502 19.3826 18.2502 19.5253C18.2502 19.7482 18.0694 19.9279 17.8476 19.9279C17.6237 19.929 17.4429 19.7482 17.4429 19.5253ZM25.2403 27.0474V31.5974C25.2403 31.8203 25.0606 32 24.8377 32H8.4026C8.18075 32 8 31.8192 8 31.5974V27.0474C8 26.0111 8.67375 25.1361 9.67514 24.8711L13.8357 23.765V23.1487C12.709 22.3209 11.9613 21.0032 11.911 19.5119C11.9089 19.4667 11.9079 19.4215 11.9079 19.3753C11.1797 19.3137 10.6056 18.7015 10.6056 17.958C10.6056 17.2267 11.1592 16.6228 11.8699 16.5437C11.8145 16.4975 11.7611 16.4513 11.7087 16.404C11.5505 16.2592 11.4057 16.1051 11.2773 15.9449C11.2208 15.873 11.189 15.7847 11.189 15.6933V14.7874H11.9942V14.7741H21.243V14.7874H22.0492V15.6933C22.0492 15.7847 22.0184 15.873 21.9609 15.9449C21.8325 16.1062 21.6877 16.2592 21.5285 16.404C21.4761 16.4513 21.4217 16.4985 21.3672 16.5447C22.0769 16.6238 22.6305 17.2277 22.6305 17.959C22.6305 18.7026 22.0574 19.3147 21.3293 19.3763C21.3293 19.4225 21.3282 19.4677 21.3262 19.5129C21.2758 21.0042 20.5292 22.322 19.4004 23.1508V23.766L23.5652 24.8711C24.5676 25.1361 25.2403 26.0122 25.2403 27.0474ZM16.6202 23.2555C18.7739 23.2555 20.5252 21.5033 20.5252 19.3505V17.1146C19.4581 17.701 18.0849 18.0369 16.6202 18.0369C15.1556 18.0369 13.7814 17.701 12.7152 17.1146V19.3505C12.7152 21.5032 14.4674 23.2555 16.6202 23.2555ZM16.1087 27.11L14.0875 24.5321L12.7862 24.8782L15.1135 28.3794L16.1087 27.11ZM16.6202 26.4568L18.5963 23.9354V23.6252C17.9954 23.9046 17.3258 24.0607 16.6202 24.0607C15.9146 24.0607 15.2439 23.9045 14.6421 23.6252V23.9354L16.6202 26.4568ZM20.4542 24.8782L19.1519 24.5321L17.1317 27.11L18.1269 28.3795L20.4542 24.8782ZM9.65866 11.6682C9.63811 11.2635 9.94007 10.9041 10.3468 10.8516C12.3116 10.6134 13.5656 9.72085 14.5741 9.00398C14.8802 8.78624 15.1698 8.58082 15.4512 8.41239C16.353 7.87523 16.8378 7.866 17.7108 8.36617C18.0179 8.5418 18.3332 8.76671 18.667 9.00398C19.6756 9.72088 20.9296 10.6124 22.8901 10.8506C23.2958 10.8999 23.5998 11.2584 23.5824 11.6672C23.5403 12.6079 23.2599 13.3823 22.7463 13.9801H21.5128L11.728 13.9811H10.4935C9.9789 13.3834 9.69975 12.609 9.65866 11.6682ZM16.4538 13.3546C16.5061 13.3782 16.5626 13.3906 16.6201 13.3906C16.6766 13.3906 16.7331 13.3782 16.7865 13.3546C17.5394 13.0147 18.4052 12.2351 18.2635 10.4564C18.2522 10.3126 18.1638 10.1852 18.0334 10.1236L16.7927 9.53919C16.6838 9.48784 16.5585 9.48784 16.4496 9.53919L15.2069 10.1236C15.0765 10.1852 14.9881 10.3126 14.9768 10.4564C14.833 12.2363 15.7009 13.0148 16.4538 13.3546ZM15.3497 21.3113C15.1782 21.4531 15.1535 21.7068 15.2952 21.8783C15.6639 22.325 16.1344 22.5715 16.6202 22.5715C17.1111 22.5715 17.5692 22.3322 17.9441 21.8793C18.0858 21.7078 18.0622 21.4541 17.8917 21.3124C17.7202 21.1706 17.4665 21.1943 17.3248 21.3648C17.1728 21.5476 16.9273 21.7653 16.6202 21.7653C16.3121 21.7653 16.0676 21.5476 15.9166 21.3658C15.7749 21.1943 15.5212 21.1696 15.3497 21.3113ZM14.4736 19.5253C14.4736 19.3835 14.5897 19.2675 14.7324 19.2675C14.8742 19.2675 14.9902 19.3825 14.9902 19.5253C14.9902 19.7481 15.171 19.9279 15.3928 19.9279C15.6157 19.9279 15.7954 19.7471 15.7954 19.5253C15.7954 18.9388 15.3178 18.4612 14.7314 18.4612C14.1439 18.4612 13.6663 18.9378 13.6663 19.5253C13.6663 19.7481 13.8471 19.9279 14.0689 19.9279C14.2938 19.9289 14.4736 19.7481 14.4736 19.5253ZM33.767 22.361V23.6509C33.767 24.4038 33.1549 25.0159 32.402 25.0159H25.2722C24.5194 25.0159 23.9072 24.4038 23.9072 23.6509L23.9083 13.0836C23.9083 12.8607 24.089 12.681 24.3109 12.681L32.3496 12.68C32.5725 12.68 32.7522 12.8607 32.7522 13.0826L32.7533 21.9585H33.3644C33.5862 21.9585 33.767 22.1391 33.767 22.361ZM31.947 13.4861H24.7134V23.6509C24.7134 23.959 24.964 24.2096 25.2721 24.2096C25.5812 24.2096 25.8318 23.959 25.8318 23.6509V22.3609C25.8318 22.138 26.0126 21.9583 26.2344 21.9583H31.946L31.947 13.4861ZM28.1367 15.6912H31.071C31.2938 15.6912 31.4736 15.5104 31.4736 15.2886C31.4736 15.0657 31.2928 14.886 31.071 14.886L28.1367 14.885C27.9138 14.885 27.7341 15.0657 27.7341 15.2876C27.7341 15.5115 27.9149 15.6912 28.1367 15.6912ZM25.8083 16.2129C25.8843 16.2982 25.9942 16.3465 26.1082 16.3465C26.1144 16.3465 26.1216 16.3465 26.1277 16.3454C26.2489 16.3393 26.3609 16.2787 26.4328 16.1821L27.3941 14.8736C27.5256 14.6939 27.4876 14.4423 27.3078 14.3098C27.1281 14.1783 26.8765 14.2163 26.744 14.3961L26.0754 15.305L25.8586 15.0647C25.7097 14.8993 25.455 14.886 25.2896 15.0349C25.1243 15.1838 25.1109 15.4385 25.2599 15.6039L25.8083 16.2129ZM28.1367 17.8942H31.071C31.2938 17.8942 31.4736 17.7135 31.4736 17.4916C31.4736 17.2688 31.2928 17.089 31.071 17.089L28.1367 17.088C27.9138 17.088 27.7341 17.2688 27.7341 17.4906C27.7341 17.7135 27.9149 17.8942 28.1367 17.8942ZM25.8083 18.415C25.8854 18.5002 25.9942 18.5485 26.1082 18.5485C26.1144 18.5485 26.1216 18.5485 26.1277 18.5474C26.2489 18.5413 26.3609 18.4807 26.4328 18.3841L27.3941 17.0757C27.5256 16.8959 27.4876 16.6443 27.3078 16.5118C27.1281 16.3793 26.8765 16.4183 26.744 16.5981L26.0764 17.507L25.8597 17.2667C25.7107 17.1013 25.456 17.088 25.2907 17.2369C25.1253 17.3858 25.112 17.6406 25.2609 17.8059L25.8083 18.415ZM28.1367 20.0963H31.071C31.2938 20.0963 31.4736 19.9155 31.4736 19.6937C31.4736 19.4708 31.2928 19.2911 31.071 19.2911H28.1367C27.9138 19.2911 27.7341 19.4718 27.7341 19.6937C27.7341 19.9165 27.9149 20.0963 28.1367 20.0963ZM25.8083 20.618C25.8854 20.7033 25.9942 20.7515 26.1082 20.7515C26.1144 20.7515 26.1216 20.7515 26.1277 20.7505C26.2489 20.7443 26.3609 20.6837 26.4328 20.5872L27.3941 19.2787C27.5256 19.099 27.4876 18.8473 27.3078 18.7149C27.1281 18.5824 26.8765 18.6214 26.744 18.8011L26.0764 19.7101L25.8597 19.4697C25.7107 19.3044 25.456 19.291 25.2907 19.44C25.1253 19.5889 25.112 19.8436 25.2609 20.009L25.8083 20.618Z" fill="black"/>
</svg>
