<svg width="40" height="40" viewBox="0 0 40 40" fill="none" xmlns="http://www.w3.org/2000/svg">
<rect width="40" height="40" rx="20" fill="#84BC25"/>
<path fill-rule="evenodd" clip-rule="evenodd" d="M13.9694 16.2796C13.261 15.477 12.1122 15.477 11.4038 16.2796C10.6954 17.0823 10.6954 18.3839 11.4038 19.1866C12.1122 19.9893 13.261 19.9893 13.9694 19.1866C14.6778 18.3839 14.6778 17.0823 13.9694 16.2796ZM12.6866 14.8597C14.0871 14.8597 15.2225 16.1463 15.2225 17.7331C15.2225 19.32 14.087 20.6066 12.6866 20.6066C11.2862 20.6066 10.1507 19.3199 10.1507 17.7331C10.1507 16.1463 11.2861 14.8597 12.6866 14.8597ZM15.82 19.8382C15.0092 21.2152 13.9383 22.3792 12.6866 23.24C10.1814 21.5171 8.44815 18.6199 8 15.307L12.6866 12.2238L17.3732 15.307C17.1491 16.9632 16.6072 18.5011 15.82 19.8382ZM24.7321 22.9319C24.9314 22.9319 25.093 23.115 25.093 23.3409C25.093 23.5667 24.9314 23.7499 24.7321 23.7499H19.0604C18.861 23.7499 18.6994 23.5667 18.6994 23.3409C18.6994 23.115 18.861 22.9319 19.0604 22.9319H24.7321ZM24.7321 21.4532C24.9314 21.4532 25.093 21.6363 25.093 21.8621C25.093 22.088 24.9314 22.2711 24.7321 22.2711H19.0604C18.861 22.2711 18.6994 22.088 18.6994 21.8621C18.6994 21.6363 18.861 21.4532 19.0604 21.4532H24.7321ZM24.7321 19.9745C24.9314 19.9745 25.093 20.1576 25.093 20.3835C25.093 20.6094 24.9314 20.7925 24.7321 20.7925H19.0604C18.861 20.7925 18.6994 20.6094 18.6994 20.3835C18.6994 20.1576 18.861 19.9745 19.0604 19.9745H24.7321ZM24.7321 18.4958C24.9314 18.4958 25.093 18.6789 25.093 18.9048C25.093 19.1307 24.9314 19.3138 24.7321 19.3138H19.0604C18.861 19.3138 18.6994 19.1307 18.6994 18.9048C18.6994 18.6789 18.861 18.4958 19.0604 18.4958H24.7321ZM24.7321 17.0171C24.9314 17.0171 25.093 17.2002 25.093 17.4261C25.093 17.652 24.9314 17.8351 24.7321 17.8351H19.0604C18.861 17.8351 18.6994 17.652 18.6994 17.4261C18.6994 17.2002 18.861 17.0171 19.0604 17.0171H24.7321ZM24.7321 15.5384C24.9314 15.5384 25.093 15.7215 25.093 15.9474C25.093 16.1733 24.9314 16.3564 24.7321 16.3564H19.0604C18.861 16.3564 18.6994 16.1733 18.6994 15.9474C18.6994 15.7215 18.861 15.5384 19.0604 15.5384H24.7321ZM24.7321 12.4961C24.9314 12.4961 25.093 12.6792 25.093 12.9051C25.093 13.131 24.9314 13.3141 24.7321 13.3141H20.6606C20.4612 13.3141 20.2996 13.131 20.2996 12.9051C20.2996 12.6792 20.4612 12.4961 20.6606 12.4961H24.7321ZM24.7321 14.0597C24.9314 14.0597 25.093 14.2428 25.093 14.4687C25.093 14.6946 24.9314 14.8777 24.7321 14.8777H19.0604C18.861 14.8777 18.6994 14.6946 18.6994 14.4687C18.6994 14.2428 18.861 14.0597 19.0604 14.0597H24.7321ZM12.2839 30H21.3112C20.8336 29.4747 20.5365 28.7394 20.5365 27.9313V25.3346H10.4582V27.9313C10.4582 29.0683 11.2805 30 12.2839 30ZM30.1743 10.0001H28.7839C27.7805 10.0001 26.9582 10.9318 26.9582 12.0687V14.6654H32V12.0687C32.0001 10.9318 31.1778 10.0001 30.1743 10.0001ZM27.011 10.0001C26.5332 10.5264 26.2363 11.2595 26.2363 12.0687V28.4066C26.2363 29.2821 25.6028 30 24.8301 30H23.0841C22.0807 30 21.2584 29.0683 21.2584 27.9313V24.9256C21.2584 24.6998 21.0968 24.5167 20.8975 24.5167H13.0475V23.9463C14.3938 23.0233 15.5459 21.7727 16.4177 20.2919C17.3032 18.788 17.8995 17.0462 18.1168 15.1688C18.1449 15.0031 18.0798 14.828 17.9436 14.7386L13.0491 11.5187C13.0839 10.6758 13.7046 10 14.4538 10L27.011 10.0001ZM13.384 16.725C13.5249 16.5654 13.7535 16.5654 13.8944 16.725C14.0353 16.8847 14.0353 17.1437 13.8944 17.3033L12.6253 18.7413C12.4844 18.901 12.2559 18.901 12.1149 18.7413L11.4788 18.0205C11.3379 17.8609 11.3379 17.6019 11.4788 17.4422C11.6198 17.2825 11.8483 17.2825 11.9892 17.4422L12.3701 17.8738L13.384 16.725Z" fill="black"/>
</svg>
