<svg width="40" height="40" viewBox="0 0 40 40" fill="none" xmlns="http://www.w3.org/2000/svg">
<rect width="40" height="40" rx="20" fill="#3C3C43" fill-opacity="0.29"/>
<g style="mix-blend-mode:plus-darker">
<path d="M16.6899 14.6208H19.5864V9.65527H11.3105V9.93872C12.2875 10.4047 12.9657 11.3994 12.9657 12.5518C12.9657 13.7042 12.2875 14.699 11.3105 15.1649V15.4484H15.5246C15.6959 14.968 16.1511 14.6208 16.6899 14.6208ZM18.345 10.8967V12.5518H16.2761V10.8967H18.345ZM14.2071 12.5518V10.8967H15.4485V12.5518H14.2071Z" fill="#090909"/>
<path d="M10.0691 15.4481C9.92838 15.4481 9.791 15.4345 9.65527 15.415V16.6895C9.65527 16.9175 9.84065 17.1033 10.0691 17.1033H15.4484V16.2757H10.4829V15.415C10.3471 15.4345 10.2098 15.4481 10.0691 15.4481Z" fill="#090909"/>
<path d="M12.1379 12.5516C12.1379 11.4108 11.2098 10.4827 10.069 10.4827C8.92814 10.4827 8 11.4108 8 12.5516C8 13.6925 8.92814 14.6206 10.069 14.6206C11.2098 14.6206 12.1379 13.6925 12.1379 12.5516ZM8.82759 12.9654V12.1378H9.65517V11.3103H10.4828V12.1378H11.3103V12.9654H10.4828V13.793H9.65517V12.9654H8.82759Z" fill="#090909"/>
<path d="M10.4829 9.68828V8.82759H20.4139V14.6207H21.2415V8.41379C21.2415 8.18579 21.0561 8 20.8277 8H10.0691C9.84065 8 9.65527 8.18579 9.65527 8.41379V9.68828C9.791 9.66883 9.92838 9.65517 10.0691 9.65517C10.2098 9.65517 10.3471 9.66883 10.4829 9.68828Z" fill="#090909"/>
<path d="M25.3788 24.7673V15.862C25.3788 15.634 25.1935 15.4482 24.965 15.4482H16.6892C16.4608 15.4482 16.2754 15.634 16.2754 15.862V25.7931C16.2754 26.0211 16.4608 26.2069 16.6892 26.2069H24.226C24.5107 25.6524 24.9026 25.1616 25.3788 24.7673ZM18.3444 16.6896H23.3099V21.6551H18.3444V16.6896ZM18.7581 25.3793H17.9306V24.5517H18.7581V25.3793ZM23.7237 25.3793H19.5857V24.5517H23.7237V25.3793ZM23.7237 23.7241H17.9306V22.8965H23.7237V23.7241Z" fill="#090909"/>
<path d="M28.2759 24.5518C26.2222 24.5518 24.5518 26.2227 24.5518 28.2759C24.5518 30.3291 26.2222 32 28.2759 32C30.3296 32 32 30.3291 32 28.2759C32 26.2227 30.3296 24.5518 28.2759 24.5518ZM27.8621 27.8621H28.6897C29.3741 27.8621 29.9311 28.4191 29.9311 29.1035C29.9311 29.7879 29.3741 30.3449 28.6897 30.3449V31.1724H27.8621V30.3449C27.1777 30.3449 26.6207 29.7879 26.6207 29.1035H27.4483C27.4483 29.3315 27.6337 29.5173 27.8621 29.5173H28.6897C28.9181 29.5173 29.1035 29.3315 29.1035 29.1035C29.1035 28.8755 28.9181 28.6897 28.6897 28.6897H27.8621C27.1777 28.6897 26.6207 28.1327 26.6207 27.4483C26.6207 26.7639 27.1777 26.2069 27.8621 26.2069V25.3793H28.6897V26.2069C29.3741 26.2069 29.9311 26.7639 29.9311 27.4483H29.1035C29.1035 27.2203 28.9181 27.0345 28.6897 27.0345H27.8621C27.6337 27.0345 27.4483 27.2203 27.4483 27.4483C27.4483 27.6763 27.6337 27.8621 27.8621 27.8621Z" fill="#090909"/>
<path d="M20.4141 19.4148L19.879 18.8798L19.2939 19.4649L20.4141 20.585L22.7756 18.2235L22.1905 17.6384L20.4141 19.4148Z" fill="#090909"/>
<path d="M20.0001 29.5173C14.752 29.5173 10.4829 25.2478 10.4829 20C10.4829 19.6036 10.5077 19.2031 10.5565 18.8096L9.73555 18.7078C9.68217 19.1348 9.65527 19.5693 9.65527 20C9.65527 25.7042 14.296 30.3449 20.0001 30.3449C21.0275 30.3449 22.043 30.1947 23.0171 29.8976L22.7762 29.106C21.88 29.3791 20.946 29.5173 20.0001 29.5173Z" fill="#090909"/>
<path d="M29.5175 20.0001C29.5175 20.9468 29.3793 21.8807 29.1062 22.7758L29.8982 23.017C30.1948 22.0434 30.3451 21.0283 30.3451 20.0001C30.3451 15.414 27.4005 11.4366 23.0172 10.1025L22.7764 10.8941C26.8084 12.1214 29.5175 15.781 29.5175 20.0001Z" fill="#090909"/>
</g>
</svg>
