<svg width="40" height="40" viewBox="0 0 40 40" fill="none" xmlns="http://www.w3.org/2000/svg">
<rect width="40" height="40" rx="20" fill="#3C3C43" fill-opacity="0.29"/>
<path fill-rule="evenodd" clip-rule="evenodd" d="M23.0349 15.5951C22.9234 15.4681 22.9356 15.276 23.0625 15.1645C23.1884 15.053 23.3816 15.0652 23.492 15.1921C24.3443 16.1582 24.3443 17.6078 23.492 18.575C23.3805 18.6975 23.1906 18.7075 23.0659 18.5971C22.9411 18.4878 22.9278 18.299 23.0349 18.172C23.683 17.4356 23.683 16.3315 23.0349 15.5951ZM19.015 15.1921C19.1254 15.0651 19.3186 15.053 19.4445 15.1645C19.5715 15.276 19.5836 15.4681 19.4721 15.5951C18.824 16.3315 18.824 17.4355 19.4721 18.1719C19.5792 18.2989 19.5659 18.4877 19.4412 18.597C19.3164 18.7074 19.1265 18.6974 19.015 18.5749C18.1627 17.6077 18.1627 16.1582 19.015 15.1921ZM24.3288 14.6809L24.3277 14.6798C24.3189 14.6666 24.3112 14.6522 24.3046 14.6379C23.9965 14.0925 23.6222 13.5879 23.1884 13.1364H19.3166C18.3295 14.1367 17.6771 15.4195 17.4507 16.8072C17.2608 17.9698 17.5976 19.1566 18.3682 20.0465C19.2735 20.4318 20.2484 20.6306 21.2321 20.6295C22.1794 20.6284 23.1178 20.4484 23.9989 20.1006L24.1402 20.0443C24.9108 19.1545 25.2464 17.9687 25.0565 16.8073C24.9483 16.0599 24.7009 15.3389 24.3288 14.6809ZM24.7329 14.1632H24.7318C25.4704 14.0218 26.2344 14.1985 26.8361 14.65C27.4378 15.1005 27.8231 15.7839 27.896 16.5313C27.97 17.2799 27.7249 18.0251 27.2214 18.5837C26.718 19.1424 26.0037 19.4648 25.2507 19.4692C25.0652 19.8456 24.8279 20.1934 24.5441 20.5025C24.5154 20.5357 24.479 20.561 24.4381 20.5787L24.4348 20.5809V21.4476H26.0313V20.1227H26.0324C26.0324 19.9914 26.1163 19.8754 26.2399 19.8335L26.6506 19.6635V19.6646C26.771 19.5939 26.9244 19.6127 27.0227 19.7109L27.96 20.6483L29.0905 19.521L28.1543 18.5837H28.1532C28.0605 18.4899 28.0384 18.3486 28.0969 18.2304L28.2702 17.8131C28.3078 17.6817 28.4281 17.5923 28.5639 17.5923H29.8888V15.9936H28.5639C28.4314 15.9936 28.3155 15.9097 28.2736 15.7839L28.1058 15.3732V15.3743C28.0351 15.2539 28.0539 15.1005 28.1532 15.0022L29.0906 14.066L27.9611 12.9354L27.0238 13.8717C26.9311 13.9655 26.7886 13.9876 26.6716 13.9291L26.2532 13.7546C26.1229 13.7171 26.0324 13.5979 26.0324 13.461V12.1372H24.6291C24.5673 12.5413 24.2913 12.8802 23.9071 13.0204C24.2151 13.3759 24.4911 13.7591 24.7329 14.1632ZM25.5014 18.8422C25.9253 17.4853 25.6648 16.0124 25.0421 14.7341C26.1649 14.6292 27.164 15.4429 27.2899 16.5624C27.4147 17.683 26.6197 18.6975 25.5014 18.8422ZM24.0286 11.9826H24.0297C24.0264 12.0014 24.0242 12.0191 24.0242 12.0378C24.0242 12.3359 23.6444 12.5269 23.3176 12.5269H19.1897C19.0009 12.5302 18.8154 12.4717 18.6631 12.3591C18.2402 12.0279 18.6189 11.5498 19.1886 11.5498L23.3176 11.5487C23.4777 11.5476 23.6356 11.5885 23.7747 11.6691C23.8961 11.7375 23.9866 11.8501 24.0286 11.9826ZM20.9484 14.8762C20.9484 14.7084 21.0853 14.5715 21.2542 14.5715C21.422 14.5715 21.5589 14.7084 21.5589 14.8762V15.0915C21.8802 15.1534 22.1595 15.3466 22.3307 15.6248C22.4168 15.7694 22.3693 15.956 22.2247 16.0421C22.079 16.1282 21.8924 16.0796 21.8062 15.935C21.5468 15.4956 20.7442 15.6524 20.7442 16.1271V16.1282C20.7475 16.2563 20.8038 16.3777 20.8998 16.4639C20.9959 16.5489 21.1228 16.5908 21.2509 16.5798C21.6969 16.55 22.1132 16.8061 22.2865 17.219C22.4588 17.6319 22.3506 18.1078 22.016 18.4048C21.8835 18.5207 21.7279 18.6046 21.559 18.6532V18.8905C21.559 19.0595 21.4221 19.1963 21.2542 19.1963C21.0853 19.1963 20.9484 19.0594 20.9484 18.8905V18.6752C20.6283 18.6134 20.3478 18.4202 20.1767 18.142C20.0906 17.9974 20.1392 17.8108 20.2838 17.7247C20.4284 17.6385 20.6161 17.686 20.7011 17.8318C20.9606 18.2712 21.7632 18.1144 21.7632 17.6396V17.6385C21.7588 17.5094 21.7014 17.3879 21.6053 17.3029C21.5082 17.2179 21.3801 17.176 21.2509 17.1881C20.8049 17.2168 20.3898 16.9596 20.2187 16.5467C20.0464 16.1338 20.1569 15.6568 20.4914 15.3609C20.6239 15.2461 20.7795 15.1611 20.9485 15.1125V14.8751L20.9484 14.8762ZM23.4071 10.9403C24.2086 10.1354 24.6536 9.43987 24.7529 8.9828H24.754C24.7827 8.89999 24.7827 8.80946 24.754 8.72556C24.7397 8.70016 24.6977 8.68471 24.6271 8.68029C24.3257 8.66042 23.8057 8.85252 23.0615 9.32393C22.5636 9.63969 21.7367 8.985 21.3745 8.59417C21.369 8.67366 21.3602 8.76419 21.3492 8.86024C21.2995 9.26212 21.2277 9.90687 20.9705 10.0659H20.9694C20.9009 10.1078 20.8181 10.1211 20.7386 10.1023C20.6602 10.0835 20.5929 10.0349 20.5498 9.96539C19.7825 8.71781 19.1908 8.14482 18.79 8.02117C18.7171 7.98695 18.631 7.99467 18.5637 8.04104C18.4753 8.14151 18.4234 8.26958 18.4157 8.40315C18.3274 9.00265 18.5659 9.98192 19.1996 10.9392L23.3176 10.938C23.3474 10.938 23.3772 10.938 23.4059 10.9403L23.4071 10.9403ZM10.4192 27.5264C10.831 27.5264 11.2031 27.7748 11.3609 28.1568C11.5188 28.5377 11.4316 28.9771 11.1401 29.2686C10.8487 29.5601 10.4093 29.6473 10.0284 29.4894C9.64746 29.3315 9.39795 28.9595 9.39795 28.5466C9.39905 27.9835 9.85504 27.5275 10.4192 27.5264ZM10.7085 28.2573C10.5914 28.1402 10.4148 28.1049 10.2613 28.1678C10.109 28.2319 10.0085 28.3809 10.0085 28.5465C10.0085 28.7132 10.109 28.8623 10.2613 28.9252C10.4148 28.9892 10.5914 28.9539 10.7085 28.8369C10.8685 28.6768 10.8685 28.4174 10.7085 28.2573ZM26.3206 24.7277C26.3063 24.6063 26.2765 24.4881 26.2312 24.3755C26.0468 23.9063 25.5831 23.6082 25.0797 23.6347H22.1462C22.0115 23.6358 21.879 23.5939 21.7698 23.5155C19.5021 21.9268 14.6663 22.0526 12.9363 24.3181C12.4152 25.0004 11.4944 25.1848 10.7514 25.3316L10.5803 25.3658L13.2001 28.0188C14.0768 26.9855 14.4334 27.2703 15.0251 27.7417V27.7406C15.4425 28.127 15.9912 28.339 16.5597 28.3346L26.6464 28.3136C27.0935 28.3136 27.8785 27.8102 28.7308 27.1312V27.1301C30.0159 26.0691 31.226 24.9198 32.3511 23.6899C33.2056 22.7459 32.2418 21.5767 31.0947 22.2811L26.9391 24.8348C26.9811 25.3481 26.8033 25.856 26.4478 26.2303C26.0923 26.6045 25.5944 26.8088 25.0788 26.7922L20.9297 26.7735C20.848 26.7757 20.7674 26.7448 20.7089 26.6873C20.6504 26.6299 20.6173 26.5504 20.6173 26.4687C20.6173 26.3859 20.6515 26.3076 20.7111 26.2501C20.7696 26.1938 20.8502 26.1629 20.9319 26.1662L25.081 26.185C25.9731 26.1894 26.4092 25.4574 26.3208 24.7288L26.3206 24.7277ZM9.77435 25.4144L9.41 25.0468L7.32227 27.0208L10.2292 32L13.4574 29.144L9.77435 25.4144Z" fill="black"/>
</svg>
