<svg width="40" height="40" viewBox="0 0 40 40" fill="none" xmlns="http://www.w3.org/2000/svg">
<rect width="40" height="40" rx="20" fill="#3C3C43" fill-opacity="0.29"/>
<path d="M31.1427 21.7142H23.4284C22.9551 21.7142 22.5713 22.0976 22.5713 22.5714C22.5713 23.0451 22.9551 23.4285 23.4284 23.4285H30.2856V29.4285H30.0471C29.7497 28.9187 29.203 28.5714 28.5713 28.5714C27.9396 28.5714 27.3929 28.9187 27.0955 29.4285H23.4284V25.1428C23.4284 24.669 23.0446 24.2857 22.5713 24.2857H19.1427C18.856 24.2857 18.5886 24.4288 18.4295 24.6674L16.7153 27.2388C16.6215 27.3794 16.5713 27.5451 16.5713 27.7142V30.2857C16.5713 30.7594 16.9551 31.1428 17.4284 31.1428H18.5241C18.8214 31.6526 19.3681 31.9999 19.9999 31.9999C20.6316 31.9999 21.1783 31.6526 21.4756 31.1428H27.0955C27.3929 31.6526 27.9396 31.9999 28.5713 31.9999C29.203 31.9999 29.7497 31.6526 30.0471 31.1428H31.1427C31.6161 31.1428 31.9999 30.7594 31.9999 30.2857V22.5714C31.9999 22.0976 31.6161 21.7142 31.1427 21.7142ZM21.7141 29.4285H21.4756C21.1783 28.9187 20.6316 28.5714 19.9999 28.5714C19.3681 28.5714 18.8214 28.9187 18.5241 29.4285H18.2856V27.9737L19.6014 25.9999H21.7141V29.4285Z" fill="black"/>
<path d="M14.5598 13.9473L20.0445 15.9738L18.4077 18.7017C18.2487 18.9662 18.2445 19.296 18.3968 19.5656C18.5487 19.8343 18.8338 20 19.1426 20H20.8569C21.0842 20 21.3022 19.9096 21.4629 19.7489L23.8388 17.373C23.8416 17.3741 23.8433 17.3765 23.846 17.3775L30.0197 19.6576C30.1796 19.7137 30.3458 19.7414 30.5115 19.7414C30.8158 19.7414 31.1179 19.6484 31.3724 19.4676C31.7654 19.1897 31.9998 18.7352 31.9998 18.2539C31.9998 15.8541 30.3684 13.7941 28.0326 13.245L25.8805 12.7386C25.8608 12.7026 25.8535 12.6627 25.8282 12.6289L23.2567 9.20033C23.0952 8.98438 22.8411 8.85714 22.5712 8.85714H20.8569C20.5815 8.85714 20.3229 8.9894 20.1617 9.21289C20.0006 9.43638 19.9567 9.72433 20.0437 9.98549L20.5428 11.4827L17.0969 10.6719L15.5701 8.3817C15.411 8.14314 15.1436 8 14.8569 8H13.9998C13.7428 8 13.4996 8.11551 13.3368 8.3139C13.174 8.51228 13.1087 8.77344 13.1594 9.02539L14.0165 13.3111C14.0747 13.6032 14.2806 13.8435 14.5598 13.9473ZM22.0459 10.5714H22.1426L23.3156 12.1351L22.5038 11.9441L22.0459 10.5714ZM15.858 11.904C15.9786 12.0848 16.1631 12.2129 16.3749 12.2631L27.64 14.9141C27.6656 14.9201 27.6887 14.9312 27.7141 14.9378V15.7143C27.7141 16.1881 28.0978 16.5714 28.5712 16.5714H29.8383C30.0685 16.9805 30.2236 17.4359 30.27 17.9233L25.0856 16.0072C25.1961 15.7039 25.1349 15.3517 24.8915 15.1083C24.5567 14.7734 24.0143 14.7734 23.6795 15.1083L20.8883 17.899L22.449 15.2983C22.6926 14.8923 22.5612 14.3658 22.1552 14.1222C21.7484 13.8778 21.2227 14.01 20.9791 14.416L20.9424 14.4771L15.6036 12.505L15.3227 11.1013L15.858 11.904Z" fill="black"/>
<path d="M16.5714 18.2857C16.5714 17.9609 16.3881 17.6646 16.0977 17.5189L12.6691 15.8046C12.428 15.6841 12.1434 15.6841 11.9023 15.8046L8.47377 17.5189C8.18331 17.6646 8 17.9609 8 18.2857V22.5714C8 22.8962 8.18331 23.1925 8.47377 23.3381L11.9023 25.0524C12.0229 25.1127 12.1543 25.1428 12.2857 25.1428C12.4171 25.1428 12.5485 25.1127 12.6691 25.0524L16.0977 23.3381C16.3881 23.1925 16.5714 22.8962 16.5714 22.5714V18.2857ZM12.2857 17.5298L13.7979 18.2857L12.2857 19.0415L10.7736 18.2857L12.2857 17.5298ZM9.71429 19.6727L11.4286 20.5298V22.8987L9.71429 22.0415V19.6727ZM13.1429 22.8987V20.5298L14.8571 19.6727V22.0415L13.1429 22.8987Z" fill="black"/>
</svg>
