<svg width="40" height="40" viewBox="0 0 40 40" fill="none" xmlns="http://www.w3.org/2000/svg">
<rect width="40" height="40" rx="20" fill="#3C3C43" fill-opacity="0.29"/>
<path fill-rule="evenodd" clip-rule="evenodd" d="M17.684 25.1107C18.3257 26.0811 19.0586 26.9881 19.8726 27.8193V25.1107H17.684ZM19.8726 12.1209C18.944 12.9737 18.1243 13.938 17.4321 14.9918C17.3829 15.0684 17.3353 15.145 17.2885 15.2215H19.8726V12.1209ZM20.4571 27.8193C21.2711 26.9883 22.0037 26.0813 22.6448 25.1107H20.4571V27.8193ZM23.3345 25.1107H26.6227C25.8938 26.0309 24.9773 26.7853 23.9341 27.3236C22.9887 27.8111 21.9574 28.1095 20.8978 28.2021C21.8188 27.2623 22.6358 26.2258 23.3345 25.1107ZM23.0296 15.2215C22.3145 14.0813 21.4492 13.0425 20.4571 12.133V15.2215H23.0296ZM29.5383 10.5137L30.9514 15.2651L26.1278 14.113L26.9292 13.2667C26.9556 13.239 26.9763 13.2063 26.99 13.1706C27.0038 13.1349 27.0104 13.0968 27.0094 13.0585C27.0085 13.0203 27 12.9826 26.9845 12.9476C26.969 12.9126 26.9467 12.881 26.9189 12.8546C25.1847 11.2123 22.9125 10.2565 20.5258 10.1652C18.139 10.074 15.8005 10.8536 13.9459 12.3587L11.4538 11.7291C13.5906 9.4841 16.5128 8.15231 19.609 8.01227C22.7052 7.87224 25.7356 8.93481 28.0664 10.9777C28.1768 11.075 28.2891 11.1775 28.4033 11.2854C28.431 11.3118 28.4636 11.3324 28.4994 11.3462C28.5351 11.36 28.5732 11.3665 28.6114 11.3656C28.6497 11.3646 28.6874 11.3562 28.7224 11.3406C28.7574 11.3251 28.7889 11.3028 28.8153 11.2751L29.538 10.5124L29.5383 10.5137ZM26.5642 14.8157C26.6712 14.9475 26.7742 15.0828 26.8732 15.2215H23.7076C23.6557 15.1313 23.6023 15.0404 23.5474 14.9488C22.8266 13.7898 21.9551 12.7315 20.9557 11.8019C22.6797 11.965 24.3075 12.6707 25.6051 13.8176L25.3586 14.0779C25.3233 14.1149 25.2985 14.1606 25.2865 14.2104C25.2746 14.2601 25.2759 14.3121 25.2905 14.3612C25.305 14.4102 25.3322 14.4546 25.3693 14.4898C25.4065 14.525 25.4522 14.5497 25.502 14.5616L26.564 14.8154L26.5642 14.8157ZM28.864 28.2533C26.7335 30.5006 23.8172 31.8381 20.724 31.9862C17.6308 32.1344 14.5999 31.0819 12.2644 29.0484C12.1432 28.9427 12.0209 28.8315 11.8975 28.7146C11.8698 28.6882 11.8371 28.6675 11.8014 28.6537C11.7657 28.64 11.7276 28.6334 11.6893 28.6343C11.651 28.6353 11.6133 28.6438 11.5784 28.6593C11.5434 28.6748 11.5118 28.6971 11.4854 28.7249L10.7906 29.4584L9.37988 24.7045L14.2032 25.8574L13.3739 26.7332C13.3476 26.761 13.3269 26.7936 13.3131 26.8293C13.2994 26.865 13.2928 26.9031 13.2937 26.9414C13.2947 26.9797 13.3032 27.0174 13.3187 27.0524C13.3342 27.0873 13.3565 27.1189 13.3842 27.1453C15.124 28.7928 17.4049 29.7492 19.7994 29.8353C22.194 29.9215 24.5377 29.1313 26.3913 27.6131L28.8773 28.2414L28.8665 28.2533H28.864ZM13.736 25.148L13.7065 25.1107H16.9938C17.6935 26.2256 18.5111 27.2621 19.4324 28.2021C17.6807 28.0492 16.0249 27.3363 14.71 26.1688L14.9716 25.8923C15.0072 25.8552 15.0321 25.8092 15.0439 25.7592C15.053 25.7219 15.0545 25.6831 15.0486 25.6452C15.0426 25.6073 15.0291 25.5709 15.009 25.5382C14.9889 25.5055 14.9625 25.4771 14.9313 25.4546C14.9001 25.4322 14.8648 25.4162 14.8274 25.4075L13.736 25.148ZM15.5174 21.5046L13.8983 22.4402L12.5766 23.2032C12.7142 23.5279 12.8726 23.8435 13.0506 24.148C13.1258 24.2766 13.2039 24.4029 13.2849 24.5268H16.6543C16.1251 23.5827 15.742 22.5639 15.5179 21.5051L15.5174 21.5046ZM16.0585 20.2922H19.8734V24.5262H17.3242C16.6957 23.4786 16.2612 22.3262 16.0414 21.1244C16.0529 21.0926 16.0587 21.059 16.0588 21.0251L16.0585 20.2922ZM16.0585 18.3355V19.7078H19.8734V15.8062H16.9557C16.5304 16.5992 16.2276 17.4521 16.0577 18.3357L16.0585 18.3355ZM13.7303 14.8592C14.4412 13.9703 15.328 13.2376 16.335 12.7069C17.275 12.2125 18.3024 11.906 19.3596 11.8046C18.4417 12.662 17.6298 13.6263 16.9413 14.6769C16.8254 14.8573 16.7156 15.0388 16.6121 15.2215H14.355L13.9129 14.9675C13.9081 14.9642 13.9031 14.9611 13.898 14.9583L13.7303 14.8592ZM15.4743 16.876V20.8579L13.6061 21.9367L12.0292 22.8463V18.866L15.4743 16.8771V16.876ZM15.9094 16.1185L15.3683 15.8054H16.3039C16.2157 15.9858 16.1335 16.1662 16.0574 16.3465C16.0547 16.3166 16.0474 16.2873 16.0358 16.2597L16.0339 16.2556L16.0314 16.2502C16.0166 16.2193 15.9965 16.1911 15.9719 16.1672L15.9678 16.1634H15.9665L15.9643 16.1612L15.9595 16.1569L15.9565 16.1544L15.953 16.1515C15.9405 16.1414 15.9273 16.1323 15.9135 16.1244L15.9094 16.1185ZM9.3834 17.0027L11.2519 15.9239L12.8301 15.0127L11.7368 14.3817L9.86825 15.4604L8.29032 16.3722L9.3834 17.0032V17.0027ZM10.2427 17.4989L12.1126 16.4207L13.6902 15.5086L13.6218 15.4691C13.6164 15.4664 13.611 15.4637 13.6058 15.4604L13.4113 15.3498L11.5444 16.4285L9.96673 17.3395L10.243 17.4989H10.2427ZM14.2722 15.8452L12.4034 16.9242L10.8258 17.8355L11.7378 18.362L15.1846 16.372L14.2722 15.8452ZM10.0947 19.4318C10.1391 19.4578 10.1896 19.4716 10.2411 19.4718C10.2925 19.4721 10.3432 19.4587 10.3878 19.4331C10.4325 19.4076 10.4696 19.3707 10.4954 19.3261C10.5212 19.2816 10.5349 19.2311 10.5349 19.1796V18.3409L11.4448 18.8663V22.8463L9.86852 21.9361L9.85255 21.9275L8 20.8579V16.8779L9.09119 17.5078V18.7554C9.09123 18.8135 9.1086 18.8703 9.14109 18.9185C9.17357 18.9667 9.21969 19.0041 9.27355 19.0259L10.0947 19.4318ZM9.6756 18.5746L9.9505 18.7099V18.004L9.6756 17.8452V18.5757V18.5746ZM24.8562 18.3376L26.4525 17.4155L27.7076 16.6907C27.5745 16.3869 27.4229 16.0916 27.2539 15.8062H24.0174C24.4165 16.6057 24.6989 17.458 24.8562 18.3376ZM24.292 19.7078H20.4571V15.8062H23.3618C23.8482 16.7079 24.1732 17.6876 24.3221 18.7013C24.3022 18.7413 24.292 18.7854 24.292 18.83V19.7078ZM24.292 21.0784V20.2922H20.4571V24.5262H23.0041C23.6406 23.4654 24.0771 22.2968 24.292 21.0784ZM25.8072 24.5262H23.6738C23.9062 24.1037 24.1127 23.6673 24.292 23.2197V23.484C24.2921 23.5351 24.3055 23.5853 24.3311 23.6296C24.3566 23.6738 24.3934 23.7106 24.4376 23.7362L25.8075 24.5271L25.8072 24.5262ZM32.3508 19.3349L28.906 21.3241V25.3047L32.3508 23.3157V19.3349ZM26.2598 19.4613L25.1668 18.83L26.7447 17.9191L28.6132 16.8403L29.7066 17.4715L28.13 18.3828L26.2615 19.4618L26.2598 19.4613ZM27.1194 19.9575L26.8429 19.7979L28.4206 18.8869L30.2885 17.8084L30.4823 17.9201C30.4874 17.9234 30.4928 17.9264 30.4982 17.9291L30.5667 17.9683L28.9882 18.8798L27.1197 19.9588L27.1194 19.9575ZM31.1487 18.3035L32.061 18.8303L28.6143 20.8203L27.7022 20.2941L29.2802 19.3831L31.1489 18.3041L31.1487 18.3035ZM26.9714 21.8901L26.15 21.4843C26.0962 21.4624 26.0501 21.4249 26.0176 21.3768C25.9851 21.3286 25.9677 21.2718 25.9676 21.2137V19.9656L24.8764 19.3357V23.3152L26.745 24.3939L26.9733 24.5257H27.1992V24.6564L28.3215 25.3041V21.3257L27.4116 20.8003V21.639C27.4117 21.6905 27.3981 21.7411 27.3723 21.7856C27.3465 21.8301 27.3094 21.8671 27.2648 21.8926C27.2201 21.9182 27.1695 21.9315 27.118 21.9312C27.0665 21.9309 27.0161 21.917 26.9717 21.8909L26.9714 21.8901ZM26.5521 21.033V20.3025L26.8269 20.4613V21.1688L26.5521 21.033Z" fill="black"/>
</svg>
