<svg width="40" height="40" viewBox="0 0 40 40" fill="none" xmlns="http://www.w3.org/2000/svg">
<rect width="40" height="40" rx="20" fill="#84BC25"/>
<path fill-rule="evenodd" clip-rule="evenodd" d="M21.3501 8.00003C23.7673 8.26203 26.0318 9.31212 27.7941 10.9871C26.7877 11.5288 25.7178 11.9426 24.6084 12.2171C24.2123 11.3406 23.7142 10.5141 23.1237 9.75408C22.6091 9.10012 22.0175 8.51164 21.3614 8.00013L21.3501 8.00003ZM11.1039 21.6844H13.3289V23.2221L14.407 23.9613L15.4634 23.2221V21.6844H17.6883V27.5452H11.104L11.1039 21.6844ZM18.6884 26.1394H19.2208V27.6719L20.302 28.4111L21.3584 27.6719V26.1383H23.5802V32H16.9989V28.5452H18.68L18.6884 26.1394ZM29.1331 20.6104L31.1418 24.2805L30.1104 24.0903C30.021 27.5754 27.3283 30.2681 24.5823 29.7129L24.5833 29.2513C28.189 28.6015 27.984 25.3544 27.7429 23.8522L26.8384 23.7098L29.1331 20.6104ZM11.6363 18.109L8.7793 14.5115H9.93127C9.31681 10.2301 12.883 7.19931 16.4801 8.26927C11.5021 9.41294 11.9389 12.5757 12.5271 14.2983L13.5419 14.2568L11.6363 18.109ZM23.3505 12.506C22.498 12.6589 21.6361 12.7524 20.77 12.7857V9.14356C21.2722 9.56255 21.7307 10.0325 22.1372 10.544C22.6123 11.1522 23.0189 11.8094 23.3505 12.506ZM19.5234 12.7857C18.6553 12.7639 17.7892 12.6765 16.9346 12.5247C17.2704 11.8219 17.68 11.1555 18.1562 10.5389C18.5627 10.0264 19.0212 9.55747 19.5234 9.13848L19.5234 12.7857ZM28.6655 11.9456C30.1855 13.7693 31.0817 16.0325 31.22 18.4032H25.9476C25.9476 18.2514 25.9476 18.1038 25.931 17.952C25.8665 16.3935 25.5754 14.8526 25.068 13.3772C26.325 13.0497 27.5342 12.56 28.6655 11.9227V11.9456ZM24.7095 18.4032H20.7701V14.0126C21.8056 13.9783 22.8359 13.8608 23.8517 13.6633C24.3497 15.0575 24.6325 16.5203 24.6928 17.9999C24.6928 18.134 24.6929 18.2795 24.7095 18.4032ZM19.5237 18.4032H15.601C15.601 18.2691 15.601 18.1235 15.6145 17.9915H15.6155C15.6727 16.5266 15.9514 15.0784 16.4421 13.6965C17.4589 13.8867 18.4892 13.999 19.5237 14.0323L19.5237 18.4032ZM31.2211 19.6498C31.0392 22.9529 30.6971 21.6107 29.5795 19.6498H31.2211ZM26.71 25.183C26.1215 24.9397 25.5185 24.737 24.903 24.5759C25.4936 22.9955 25.8398 21.334 25.9281 19.6498H28.4328L25.5662 23.3843C25.4196 23.5568 25.378 23.7949 25.457 24.0081C25.5361 24.2202 25.7242 24.373 25.9478 24.4073L26.6704 24.5196C26.6964 24.74 26.71 24.9616 26.71 25.183ZM24.5838 25.7715C25.2554 25.9461 25.9115 26.1759 26.5447 26.4608C26.4667 26.7394 26.3492 27.0045 26.1943 27.2478C25.8075 27.8467 25.2492 28.3145 24.5921 28.5901L24.5838 25.7715ZM15.71 20.6844C15.6705 20.3423 15.6404 19.9919 15.6144 19.6509L19.5237 19.6499V24.004C19.2441 24.0175 18.9633 24.0352 18.6837 24.0601L18.6827 20.6841L15.71 20.6844ZM20.7703 19.6509H24.6929V19.6499C24.6035 21.2396 24.2656 22.8052 23.6897 24.2901C22.7311 24.1134 21.759 24.0156 20.7848 23.9959L20.7703 19.6509ZM16.0073 29.3168V29.3157C15.4719 29.0984 14.9531 28.8406 14.4551 28.5453H16.0042L16.0073 29.3168ZM10.1239 23.7503V23.7493C9.51044 22.4642 9.1528 21.072 9.07378 19.6499H14.369C14.394 19.9919 14.4169 20.3423 14.4647 20.6833L10.1124 20.6844L10.1239 23.7503ZM9.07378 18.4031C9.10601 17.8386 9.17983 17.2761 9.29419 16.722L10.6946 18.4031H9.07378ZM13.035 12.6621C13.7431 12.9688 14.474 13.2204 15.2205 13.4158C14.7173 14.8797 14.4282 16.4069 14.3596 17.952C14.3596 18.1038 14.3596 18.2545 14.3461 18.4116H12.6067L14.5509 14.6624V14.6635C14.6549 14.4701 14.6486 14.2351 14.5322 14.048C14.4168 13.8619 14.2099 13.7506 13.9905 13.7579L13.2533 13.7745C13.1463 13.4148 13.0735 13.0447 13.0381 12.6714L13.035 12.6621ZM14.3607 9.56369H14.3596C15.7538 8.71115 17.3196 8.17676 18.9437 8C18.2877 8.51153 17.695 9.09999 17.1814 9.75394C16.5836 10.5223 16.0794 11.3592 15.6801 12.2482C14.8057 12.0246 13.9542 11.7221 13.136 11.3426C13.1682 11.222 13.2088 11.1035 13.2566 10.987C13.4916 10.4183 13.8794 9.92551 14.3774 9.56369H14.3607Z" fill="black"/>
</svg>
