<svg width="40" height="40" viewBox="0 0 40 40" fill="none" xmlns="http://www.w3.org/2000/svg">
<rect width="40" height="40" rx="20" fill="#84BC25"/>
<path d="M25.833 26.9497V27.993C25.3835 27.8903 25.2313 27.7712 25.2313 27.486C25.2313 27.25 25.4884 27.0365 25.833 26.9497ZM20.8973 28.3977C20.8973 29.1477 21.0551 29.8616 21.3389 30.5081H10.1489C9.64348 30.5081 9.23242 30.097 9.23242 29.5916V7.91673C9.23242 7.41133 9.64348 7 10.1489 7H22.3227V10.8016C22.3227 11.2394 22.6787 11.5954 23.1165 11.5954H26.7717V20.1643H24.5417V15.3655C24.5417 15.0477 24.2837 14.7892 23.967 14.7892H22.3778C22.06 14.7892 21.8015 15.0477 21.8015 15.3655V23.4369C21.8015 23.7539 22.06 24.0116 22.3778 24.0116H23.0154C23.0374 24.0492 23.0614 24.0859 23.0872 24.121C21.7088 25.1115 20.8973 26.68 20.8973 28.3977ZM11.6434 10.0711C11.6434 10.2556 11.7928 10.4051 11.9773 10.4051H15.2154C15.3999 10.4051 15.5494 10.2556 15.5494 10.0711C15.5494 9.88657 15.3999 9.73712 15.2154 9.73712H11.9773C11.7928 9.73712 11.6434 9.88657 11.6434 10.0711ZM11.6434 11.7924C11.6434 11.9769 11.7928 12.1264 11.9773 12.1264H17.483C17.6675 12.1264 17.817 11.9769 17.817 11.7924C17.817 11.6079 17.6675 11.4584 17.483 11.4584H11.9773C11.7928 11.4584 11.6434 11.6079 11.6434 11.7924ZM11.5009 18.2713C11.5613 18.3829 11.6762 18.4464 11.7948 18.4464C11.8485 18.4464 11.903 18.4333 11.9534 18.406L19.1434 14.5142L19.0065 15.0241C18.9586 15.2022 19.0641 15.3853 19.2422 15.4332C19.2711 15.441 19.3004 15.4446 19.329 15.4446C19.4762 15.4446 19.6112 15.3463 19.6513 15.1972L19.99 13.9373C19.9908 13.9337 19.9914 13.93 19.9922 13.9264C19.9936 13.9209 19.9947 13.9153 19.9958 13.9097C19.9967 13.9047 19.9972 13.8997 19.9981 13.895C19.9989 13.8891 19.9997 13.8833 20 13.8772C20.0003 13.8724 20.0006 13.868 20.0006 13.8633C20.0006 13.8569 20.0011 13.8505 20.0008 13.8441C20.0008 13.8399 20.0006 13.8354 20.0003 13.8313C20 13.8246 19.9994 13.8179 19.9986 13.8115C19.9981 13.8073 19.9975 13.8031 19.9967 13.7992C19.9956 13.7926 19.9944 13.7862 19.993 13.7795C19.9922 13.775 19.9908 13.7709 19.9897 13.7664C19.988 13.7603 19.9864 13.7542 19.9844 13.748C19.9828 13.743 19.9811 13.7383 19.9791 13.7336C19.9772 13.7283 19.9752 13.723 19.973 13.7177C19.9705 13.7121 19.968 13.7069 19.9652 13.7013C19.9635 13.6979 19.9622 13.6946 19.9605 13.6913C19.9599 13.6899 19.9591 13.6888 19.9583 13.6876C19.9574 13.6863 19.9569 13.6849 19.956 13.6832C19.9552 13.6818 19.9541 13.6807 19.9533 13.6793C19.943 13.662 19.9315 13.6459 19.9187 13.6312C19.9176 13.63 19.9165 13.6289 19.9154 13.6275C19.9018 13.6122 19.887 13.5983 19.8712 13.5861C19.87 13.5852 19.8689 13.5844 19.8678 13.5836C19.8517 13.5713 19.8344 13.5607 19.8166 13.5516C19.8149 13.5507 19.8133 13.5499 19.8116 13.5493C19.7938 13.5407 19.7751 13.5337 19.7559 13.5285C19.7551 13.5285 19.7543 13.5276 19.7534 13.5276L18.4935 13.1906C18.3154 13.143 18.1323 13.2488 18.0847 13.4269C18.0371 13.605 18.1429 13.7881 18.321 13.8357L18.7705 13.9559L11.6353 17.8182C11.473 17.9059 11.4129 18.1085 11.5006 18.2708L11.5009 18.2713ZM11.4605 23.2716C11.4605 23.5886 11.7185 23.8463 12.0352 23.8463H13.6257C13.9427 23.8463 14.2007 23.5883 14.2007 23.2716V20.785C14.2007 20.468 13.9427 20.2103 13.6257 20.2103H12.0352C11.7182 20.2103 11.4605 20.4682 11.4605 20.785V23.2716ZM17.0119 27.4373C17.0119 27.2527 16.8624 27.1033 16.6779 27.1033H11.8641C11.6795 27.1033 11.5301 27.2527 11.5301 27.4373C11.5301 27.6218 11.6795 27.7712 11.8641 27.7712H16.6784C16.863 27.7712 17.0124 27.6218 17.0124 27.4373H17.0119ZM17.1251 25.3901C17.1251 25.2055 16.9757 25.0561 16.7912 25.0561H11.9773C11.7928 25.0561 11.6434 25.2055 11.6434 25.3901C11.6434 25.5746 11.7928 25.724 11.9773 25.724H16.7917C16.9762 25.724 17.1257 25.5746 17.1257 25.3901H17.1251ZM17.6481 18.9788C17.6481 18.6618 17.3901 18.4041 17.0734 18.4041H15.4829C15.1659 18.4041 14.9079 18.6621 14.9079 18.9788V23.327C14.9079 23.644 15.1659 23.9017 15.4829 23.9017H17.0734C17.3903 23.9017 17.6481 23.6437 17.6481 23.327V18.9788ZM18.9299 23.9571H20.519C20.8369 23.9571 21.0954 23.6991 21.0954 23.3824V17.1726C21.0954 16.8547 20.8369 16.5962 20.519 16.5962H18.9299C18.6129 16.5962 18.3552 16.8547 18.3552 17.1726V23.3824C18.3552 23.6994 18.6132 23.9571 18.9299 23.9571ZM20.6293 27.4375C20.6293 27.253 20.4798 27.1036 20.2953 27.1036H18.9269C18.7424 27.1036 18.5929 27.253 18.5929 27.4375C18.5929 27.6221 18.7424 27.7715 18.9269 27.7715H20.2953C20.4798 27.7715 20.6293 27.6221 20.6293 27.4375ZM20.7425 25.3903C20.7425 25.2058 20.5931 25.0564 20.4086 25.0564H19.0399C18.8553 25.0564 18.7059 25.2058 18.7059 25.3903C18.7059 25.5748 18.8553 25.7243 19.0399 25.7243H20.4086C20.5931 25.7243 20.7425 25.5748 20.7425 25.3903ZM26.5004 28.8026V29.8449C26.8449 29.758 27.102 29.5446 27.102 29.3086C27.102 29.0239 26.9501 28.905 26.5004 28.8026ZM30.7684 28.3982C30.7684 30.9358 28.704 33 26.1667 33C23.6294 33 21.5649 30.9355 21.5649 28.3982C21.5649 26.8306 22.3386 25.4048 23.6433 24.5487C23.7841 24.6036 23.9372 24.6342 24.0975 24.6342H28.2361C28.3967 24.6342 28.5501 24.6036 28.6912 24.5485C29.9953 25.404 30.7684 26.8297 30.7684 28.3982ZM27.7697 29.3086C27.7697 28.4661 27.1026 28.2377 26.5004 28.1191V26.9483C26.8146 27.0262 27.0272 27.2071 27.084 27.3799C27.1416 27.555 27.3305 27.6504 27.5056 27.5926C27.6806 27.5349 27.7758 27.3463 27.7182 27.1709C27.566 26.7084 27.0867 26.365 26.5004 26.2687V25.8028C26.5004 25.6183 26.3509 25.4688 26.1664 25.4688C25.9819 25.4688 25.8324 25.6183 25.8324 25.8028V26.2667C25.0988 26.383 24.5631 26.877 24.5631 27.4862C24.5631 28.3292 25.2299 28.5583 25.8324 28.6771V29.8477C25.5238 29.7722 25.3145 29.598 25.2513 29.4255C25.1882 29.2524 24.9964 29.1633 24.823 29.2265C24.6499 29.2899 24.5609 29.4814 24.624 29.6548C24.7896 30.1079 25.2558 30.4349 25.8321 30.5273V30.9923C25.8321 31.1768 25.9816 31.3263 26.1661 31.3263C26.3506 31.3263 26.5001 31.1768 26.5001 30.9923V30.5284C27.2337 30.4121 27.7694 29.9181 27.7694 29.3089L27.7697 29.3086ZM20.4278 17.2639H19.0229V23.2894H20.4278V17.2639ZM15.5755 23.2343H16.9804V19.072H15.5755V23.2343ZM13.5331 20.8782H12.1282V23.1792H13.5331V20.8782ZM23.9825 20.9611L24.334 22.1272H27.999L28.3508 20.96C28.3669 20.9066 28.375 20.8643 28.3789 20.8328H23.9547C23.9583 20.8646 23.9664 20.9074 23.9825 20.9614V20.9611ZM23.8734 20.1657V15.4574H22.4686V23.3442H22.8443C22.8593 22.8221 23.1944 22.3791 23.66 22.2054L23.3424 21.1523C23.2467 20.8306 23.2681 20.5751 23.4053 20.3912C23.5108 20.2498 23.677 20.1705 23.8734 20.1657ZM24.0969 22.7949C23.7738 22.7949 23.5111 23.0576 23.5111 23.3807C23.5111 23.7038 23.7738 23.9665 24.0969 23.9665H28.2356C28.5587 23.9665 28.8214 23.7038 28.8214 23.3807C28.8214 23.0576 28.5587 22.7949 28.2356 22.7949H24.0969ZM23.1159 10.9283H26.3172L22.9901 7.49148V10.8022C22.9901 10.8704 23.0474 10.9283 23.1159 10.9283Z" fill="black"/>
</svg>
