<svg width="40" height="40" viewBox="0 0 40 40" fill="none" xmlns="http://www.w3.org/2000/svg">
<rect width="40" height="40" rx="20" fill="#84BC25"/>
<path d="M19.9972 32C17.7693 32 15.5668 31.3671 13.6681 30.2025C11.7187 28.9873 10.1491 27.2405 9.16173 25.1646C6.32628 19.1646 8.85793 12 14.8326 9.16456C16.4529 8.37975 18.1997 8 19.9719 8C22.1997 8 24.4022 8.63291 26.301 9.79747C28.2503 11.0127 29.82 12.7595 30.8073 14.8354C32.1238 17.5949 32.3263 20.7089 31.4149 23.6203C30.5035 26.5063 28.5541 28.9367 25.9212 30.4051C25.6681 30.557 25.4149 30.6835 25.1364 30.8101C23.5162 31.5949 21.7693 32 19.9972 32ZM19.9719 8.81013C18.301 8.81013 16.6807 9.16456 15.187 9.89873C9.61742 12.557 7.23768 19.2405 9.8959 24.8101C11.744 28.6835 15.7187 31.1899 19.9972 31.1899C21.6681 31.1899 23.2883 30.8354 24.782 30.1013C25.0351 29.9747 25.263 29.8481 25.5162 29.7215C30.5794 26.8354 32.5794 20.4557 30.0731 15.1899C28.2503 11.3165 24.2757 8.81013 19.9719 8.81013Z" fill="black"/>
<path d="M15.9715 31.1898C15.8955 31.1898 15.8196 31.1645 15.7436 31.1139C15.5664 30.9873 15.5158 30.7341 15.617 30.5569C17.2626 28.0759 19.5664 26.1012 22.2753 24.8101C25.0094 23.5189 28.0221 22.9873 31.0094 23.3164C31.2373 23.3417 31.3892 23.5443 31.3639 23.7721C31.3386 24 31.136 24.1519 30.9082 24.1265C28.0727 23.8227 25.1867 24.3038 22.6044 25.5443C20.0221 26.7594 17.8449 28.6582 16.3006 31.0379C16.2246 31.1392 16.0981 31.1898 15.9715 31.1898Z" fill="black"/>
<path d="M10.782 17.1139C10.2251 17.1139 9.69344 17.0886 9.13648 17.038C8.90863 17.0126 8.75673 16.8101 8.78205 16.6076C8.80736 16.3797 9.0099 16.2278 9.21243 16.2531C12.0226 16.5316 14.8833 16.0506 17.4403 14.8354C20.0226 13.5949 22.2251 11.6962 23.7947 9.29112C23.9213 9.06327 24.1745 9.01264 24.377 9.13922C24.5542 9.26581 24.6048 9.51897 24.5036 9.69618C22.858 12.2278 20.5542 14.2278 17.82 15.5443C15.5922 16.5823 13.2124 17.1139 10.782 17.1139Z" fill="black"/>
<path d="M24.2248 31.1139C24.1995 31.1139 24.1489 31.1139 24.1235 31.0886C19.3387 29.8481 15.6679 26.9367 13.7691 22.962C11.8451 18.9367 11.9463 14.2025 14.0476 9.67087C14.1489 9.46834 14.3767 9.39239 14.5792 9.46834C14.7818 9.56961 14.8577 9.79746 14.7818 9.99999C12.7818 14.3038 12.6805 18.7848 14.5033 22.6076C16.3008 26.4051 19.7944 29.1392 24.3261 30.3291C24.5539 30.3797 24.6805 30.6076 24.6046 30.8101C24.5792 30.9873 24.402 31.1139 24.2248 31.1139Z" fill="black"/>
<path d="M25.643 30.481C25.5924 30.481 25.5418 30.481 25.4911 30.4557C25.2886 30.3544 25.1873 30.1266 25.2886 29.9241C27.1367 25.6962 27.162 21.2912 25.3646 17.519C23.5418 13.6709 20.0481 10.9114 15.5418 9.6709C15.3139 9.62027 15.1873 9.39242 15.2633 9.16457C15.3139 8.93673 15.5418 8.81014 15.7696 8.88609C20.5038 10.1772 24.1747 13.0886 26.0734 17.1393C27.9722 21.1393 27.9468 25.7722 26.0228 30.2279C25.9468 30.3798 25.7949 30.481 25.643 30.481Z" fill="black"/>
<path d="M9.71838 25.2912C9.56648 25.2912 9.41458 25.2152 9.36395 25.0633C9.26268 24.8608 9.36395 24.6329 9.56648 24.5317L30.0475 14.7848C30.25 14.6836 30.4779 14.7848 30.5791 14.9874C30.6804 15.1899 30.5791 15.4178 30.3766 15.519L9.89559 25.2405C9.84496 25.2659 9.79433 25.2912 9.71838 25.2912Z" fill="black"/>
<path d="M24.8073 30.557C24.6554 30.557 24.5035 30.481 24.4529 30.3291L14.8073 10.0254C14.706 9.82282 14.8073 9.59497 15.0098 9.49371C15.2124 9.39244 15.4402 9.49371 15.5415 9.69624L25.1871 29.9747C25.2883 30.1772 25.1871 30.4051 24.9845 30.5064C24.9339 30.5317 24.8579 30.557 24.8073 30.557Z" fill="black"/>
<path d="M19.6683 8.30383C18.8076 8.88611 17.9974 9.62029 17.4151 10.5317C16.2506 12.3291 16.0227 14.7089 16.681 17.5697L19.1114 16.8608C19.2126 16.8355 19.3392 16.8355 19.4405 16.8861C19.643 17.0127 19.7189 17.2659 19.6177 17.4684L16.5797 23.7975C16.5544 23.8481 16.5291 23.8735 16.5038 23.8988C16.4531 23.9494 16.3772 24 16.3265 24C16.2 24.0254 16.0734 24.0254 15.9721 23.9494L9.97211 20.3038C9.87084 20.2279 9.7949 20.1266 9.76958 20C9.71895 19.7722 9.87084 19.5697 10.0734 19.4937L12.5291 18.7848C11.8202 15.8735 11.8202 13.2659 12.5038 10.9874C14.3265 9.9494 15.2886 8.73421 19.6683 8.30383Z" fill="black"/>
<path d="M20.2503 31.5949C21.111 31.0126 21.8959 30.2784 22.5035 29.367C23.668 27.5696 23.8959 25.1898 23.2376 22.3291L20.7819 23.0379C20.63 23.0886 20.4528 23.0379 20.3262 22.9113C20.225 22.7848 20.1997 22.6075 20.2756 22.4556L23.3389 16.1012C23.3642 16.0506 23.3895 16.0253 23.4148 16C23.4655 15.9493 23.5414 15.8987 23.5921 15.8987C23.7186 15.8734 23.8452 15.8734 23.9465 15.9493L29.9465 19.6202C30.0984 19.7215 30.1743 19.8734 30.149 20.0506C30.1237 20.2278 29.9971 20.3544 29.8452 20.405L27.3895 21.1139C28.0984 24.0253 28.0984 26.6329 27.4148 28.9113C25.5667 29.9493 24.6047 31.1645 20.2503 31.5949Z" fill="black"/>
<path d="M19.9972 32C17.7693 32 15.5668 31.3671 13.6681 30.2025C11.7187 28.9873 10.1491 27.2405 9.16173 25.1646C6.32628 19.1646 8.85793 12 14.8326 9.16456C16.4529 8.37975 18.1997 8 19.9719 8C22.1997 8 24.4022 8.63291 26.301 9.79747C28.2503 11.0127 29.82 12.7595 30.8073 14.8354C32.1238 17.5949 32.3263 20.7089 31.4149 23.6203C30.5035 26.5063 28.5541 28.9367 25.9212 30.4051C25.6681 30.557 25.4149 30.6835 25.1364 30.8101C23.5162 31.5949 21.7693 32 19.9972 32ZM19.9719 8.81013C18.301 8.81013 16.6807 9.16456 15.187 9.89873C9.61742 12.557 7.23768 19.2405 9.8959 24.8101C11.744 28.6835 15.7187 31.1899 19.9972 31.1899C21.6681 31.1899 23.2883 30.8354 24.782 30.1013C25.0351 29.9747 25.263 29.8481 25.5162 29.7215C30.5794 26.8354 32.5794 20.4557 30.0731 15.1899C28.2503 11.3165 24.2757 8.81013 19.9719 8.81013Z" fill="black"/>
</svg>
