<svg width="40" height="40" viewBox="0 0 40 40" fill="none" xmlns="http://www.w3.org/2000/svg">
<rect width="40" height="40" rx="20" fill="#84BC25"/>
<path fill-rule="evenodd" clip-rule="evenodd" d="M11.7965 8.52177C11.1406 7.86579 10.078 7.86579 9.422 8.52177C8.76602 9.17775 8.76602 10.2403 9.422 10.8963C10.078 11.5523 11.1405 11.5523 11.7965 10.8963C12.4525 10.2403 12.4525 9.17778 11.7965 8.52177ZM11.4445 12.378H9.77305C8.79851 12.378 8 13.1765 8 14.1511V15.9241H13.2174V14.1511C13.2174 13.1765 12.419 12.378 11.4445 12.378ZM20.6576 8H19.5741V9.05942H19.5731C19.5731 9.18936 19.485 9.30777 19.3519 9.34026C19.1895 9.37903 19.0302 9.43143 18.8752 9.49535V9.4943C18.7536 9.54565 18.5535 9.64101 18.4445 9.71227C18.3313 9.79191 18.1741 9.78143 18.0725 9.68083L17.3232 8.93157L16.5572 9.69759L17.3064 10.4468L17.3054 10.4479C17.3976 10.5401 17.4186 10.6868 17.3473 10.8031C17.1985 11.0462 17.0256 11.4277 16.9701 11.7043C16.9481 11.8426 16.8286 11.9485 16.684 11.9485H15.6246V13.032H16.684V13.0331C16.814 13.0331 16.9324 13.1211 16.9649 13.2542C17.034 13.5382 17.1797 13.9196 17.3379 14.1617C17.4175 14.2748 17.4071 14.432 17.3065 14.5337L16.5572 15.2829L17.3232 16.0489L18.0725 15.2997L18.0735 15.3007C18.1657 15.2085 18.3125 15.1876 18.4288 15.2588C18.6719 15.4076 19.0533 15.5805 19.33 15.636C19.4683 15.658 19.5741 15.7775 19.5741 15.9221V16.9815H20.6577V15.9221H20.6587C20.6587 15.7922 20.7467 15.6738 20.8798 15.6413C21.0422 15.6025 21.2015 15.5501 21.3566 15.4862V15.4872C21.4782 15.4359 21.6783 15.3405 21.7873 15.2693C21.9005 15.1896 22.0576 15.2001 22.1593 15.3007L22.9085 16.05L23.6746 15.2839L22.9253 14.5347L22.9264 14.5336C22.8341 14.4414 22.8132 14.2947 22.8844 14.1784C23.0322 13.9353 23.2061 13.5528 23.2617 13.2772C23.2837 13.1389 23.4031 13.033 23.5477 13.033H24.6072V11.9495H23.5477V11.9485C23.4178 11.9485 23.2994 11.8604 23.2669 11.7274C23.2281 11.5649 23.1757 11.4057 23.1118 11.2506H23.1129C23.0615 11.129 22.9662 10.9289 22.8949 10.8199C22.8153 10.7067 22.8257 10.5495 22.9263 10.4479L23.6756 9.69862L22.9096 8.9326L22.1603 9.68186L22.1593 9.68081C22.0671 9.77302 21.9204 9.79398 21.804 9.72272C21.5609 9.57392 21.1785 9.40102 20.9028 9.34549C20.7645 9.32349 20.6587 9.20403 20.6587 9.05942V8H20.6576ZM21.4687 11.1384C22.2159 11.8856 22.2159 13.0959 21.4687 13.843C20.7215 14.5902 19.5112 14.5902 18.7641 13.843C18.0169 13.0958 18.0169 11.8855 18.7641 11.1384C19.5112 10.3913 20.7216 10.3912 21.4687 11.1384ZM20.1169 9.99933C21.4928 9.99933 22.6088 11.1154 22.6088 12.4912C22.6088 13.8671 21.4928 14.9831 20.1169 14.9831C18.741 14.9831 17.625 13.8671 17.625 12.4912C17.625 11.1154 18.741 9.99933 20.1169 9.99933ZM30.7216 8.52284C30.0656 7.86686 29.003 7.86686 28.347 8.52284C27.691 9.17882 27.691 10.2414 28.347 10.8974C29.003 11.5534 30.0655 11.5534 30.7216 10.8974C31.3775 10.2414 31.3775 9.17885 30.7216 8.52284ZM30.3695 12.3791H28.6981C27.7235 12.3791 26.925 13.1776 26.925 14.1522V15.9252H32.1424V14.1522C32.1424 13.1776 31.344 12.3791 30.3695 12.3791ZM28.806 25.789L30.6629 24.5231L26.2449 18.0398L24.388 19.3046C24.1533 19.4649 24.0925 19.7887 24.2518 20.0213L28.0882 25.6516C28.2485 25.8863 28.5723 25.9471 28.805 25.7878L28.806 25.789ZM27.1755 25.3394L26.7542 26.0132L25.7682 26.6944L21.2978 23.468C21.2528 23.4355 21.2025 23.4177 21.1501 23.4145L19.8486 23.2961C19.7176 23.2846 19.5992 23.3621 19.5541 23.4785H19.5531C19.2722 24.1942 18.391 24.452 17.7706 24.0034L18.5723 22.3844L21.6656 20.9226L24.212 20.9918L27.1765 25.3416L27.1755 25.3394ZM14.2308 18.2359L9.56973 24.5472L11.5922 26.0415C11.7902 26.1882 12.0774 26.1442 12.223 25.9462L15.7472 21.1751C15.7619 21.1458 15.7818 21.1207 15.8038 21.0987L16.3476 20.362C16.4943 20.1639 16.4503 19.8768 16.2523 19.7311L14.2298 18.2379L14.2308 18.2359ZM16.1317 21.6259C16.4146 21.6793 16.6923 21.7076 16.9627 21.7129C17.2665 21.7191 17.5589 21.6971 17.8355 21.65L18.2128 21.914C18.1646 21.9413 18.1248 21.9832 18.0975 22.0367L17.1523 23.9459C17.0999 24.0528 17.1167 24.1859 17.2058 24.276C18.0315 25.1175 19.4346 24.9173 19.9973 23.8883L21.0232 23.9816L25.5858 27.2739C25.8236 27.4531 26.0385 27.5359 26.0751 27.8335C26.1391 28.3501 25.5543 28.7127 25.1834 28.4455L23.1693 26.992C23.0404 26.8988 22.8592 26.9281 22.7659 27.058C22.6726 27.188 22.702 27.3682 22.8319 27.4615L24.5861 28.7284C24.6993 28.8091 24.7674 28.939 24.7841 29.0774C24.8481 29.594 24.2633 29.9565 23.8924 29.6893C23.3286 29.2817 22.79 28.8541 22.2357 28.4297C22.1089 28.3333 21.9276 28.3574 21.8301 28.4842C21.7337 28.611 21.7578 28.7923 21.8846 28.8898L23.249 29.9377C23.3674 30.0288 23.4344 30.1367 23.4533 30.2908C23.5172 30.8074 22.9325 31.17 22.5616 30.9027L21.2653 29.9586C21.1364 29.8643 20.9562 29.8926 20.8608 30.0204C20.7665 30.1493 20.7948 30.3295 20.9227 30.4249L21.6352 30.9478C21.7505 31.0327 21.8175 31.1532 21.8354 31.2978C21.8993 31.8144 21.3146 32.177 20.9436 31.9098L19.2229 30.6691C19.2806 30.2457 19.0521 29.8318 18.6613 29.6547C18.9473 29.1318 18.7 28.4727 18.1352 28.2715C18.3438 27.6302 17.8554 26.949 17.1512 26.9931C17.1533 26.2145 16.2699 25.7429 15.6224 26.1935L14.4603 27.0035C14.3995 27.0454 14.345 27.0947 14.2968 27.1471L14.0086 26.9407C13.9185 26.3716 13.7058 25.8236 13.4113 25.3091L16.1296 21.6277L16.1317 21.6259ZM15.2661 28.1082L16.4146 27.3065C16.6703 27.1294 16.6158 26.6662 16.25 26.6013C16.1484 26.5835 16.0426 26.6034 15.9545 26.6642L14.7924 27.4742C14.5158 27.667 14.5944 28.1218 14.9486 28.1846C15.1015 28.2119 15.1665 28.1637 15.2661 28.1071L15.2661 28.1082ZM15.9745 29.2808L17.2539 28.3879C17.365 28.2947 17.5599 28.2748 17.5997 28.0369C17.6605 27.6785 17.2854 27.4406 16.971 27.6387L16.7247 27.7938L15.5741 28.5965L15.2849 28.7673V28.7683C15.0324 28.9161 15.0984 29.3897 15.4369 29.4495C15.6433 29.4862 15.7942 29.3793 15.9745 29.2808ZM18.0126 30.2291L17.4049 30.6535C17.124 30.8516 17.211 31.3011 17.561 31.364C17.6626 31.3818 17.7685 31.3619 17.8565 31.3011L18.4863 30.862C18.5387 30.8253 18.5785 30.7782 18.6068 30.7258C18.6131 30.6944 18.6246 30.664 18.6414 30.6357C18.6697 30.5665 18.6508 30.4062 18.5953 30.3287C18.5261 30.2312 18.4507 30.1725 18.3302 30.1516C18.2348 30.1348 18.1353 30.1505 18.0504 30.204C18.0378 30.2134 18.0252 30.2228 18.0127 30.2301L18.0126 30.2291ZM17.0769 30.1788L18.0367 29.5092C18.3186 29.3132 18.2306 28.8605 17.8806 28.7987C17.7391 28.7736 17.6626 28.8134 17.5631 28.8763L16.2983 29.7586C15.9986 29.9745 16.1075 30.4136 16.4471 30.4743C16.5487 30.4922 16.6546 30.4722 16.7426 30.4115C16.8526 30.335 16.9647 30.2522 17.0769 30.1788Z" fill="black"/>
</svg>
