<svg width="40" height="40" viewBox="0 0 40 40" fill="none" xmlns="http://www.w3.org/2000/svg">
<rect width="40" height="40" rx="20" fill="#3C3C43" fill-opacity="0.29"/>
<path fill-rule="evenodd" clip-rule="evenodd" d="M27.977 21.1279C27.977 19.5071 28.0166 17.9489 28.09 16.4948H25.8411C25.9032 17.727 25.9412 19.0344 25.9511 20.391C26.6505 20.521 27.1822 21.136 27.1822 21.8726V26.259H28.1164C28.0266 24.6647 27.977 22.9352 27.977 21.1279ZM19.1622 24.8838C19.0218 24.7517 19.015 24.5306 19.1473 24.3904C19.2794 24.2499 19.5005 24.2431 19.6407 24.3754C19.7107 24.4415 19.7699 24.492 19.8255 24.5201C19.8692 24.5421 19.9232 24.5541 20 24.5541C20.1098 24.5541 20.2062 24.5172 20.2733 24.4572C20.3302 24.4066 20.3653 24.3385 20.3653 24.2654C20.3653 24.1923 20.3302 24.1241 20.2733 24.0735C20.2062 24.0138 20.1098 23.9766 20 23.9766C19.7149 23.9766 19.4536 23.8707 19.2618 23.6993C19.0598 23.5188 18.9348 23.2675 18.9348 22.9879C18.9348 22.7083 19.0598 22.457 19.2618 22.2764C19.3698 22.18 19.5003 22.1043 19.6452 22.0568L19.6431 21.9635C19.6386 21.7709 19.7909 21.6113 19.9835 21.6066C20.1761 21.6019 20.3357 21.7544 20.3404 21.947L20.343 22.0613C20.4022 22.0801 20.4609 22.1029 20.5165 22.1286C20.6821 22.2057 20.8372 22.3178 20.9258 22.4528C21.0314 22.6137 20.9869 22.8296 20.826 22.9355C20.6651 23.0411 20.4492 22.9965 20.3433 22.8356C20.332 22.8186 20.2843 22.7913 20.2238 22.763C20.1376 22.7229 20.0514 22.6975 20 22.6975C19.8912 22.6975 19.7946 22.735 19.7267 22.7958C19.6698 22.8464 19.6347 22.9145 19.6347 22.9876C19.6347 23.0607 19.6698 23.1289 19.7267 23.1794C19.7938 23.2392 19.8902 23.2764 20 23.2764C20.2851 23.2764 20.5464 23.3823 20.7382 23.5536C20.9402 23.7342 21.0652 23.9855 21.0652 24.2651C21.0652 24.5447 20.9402 24.796 20.7382 24.9766C20.63 25.0733 20.4997 25.149 20.3553 25.1967L20.3569 25.2659C20.3614 25.4585 20.2091 25.6181 20.0165 25.6228C19.8239 25.6272 19.6643 25.475 19.6596 25.2824L19.6578 25.204C19.6069 25.1875 19.5582 25.1673 19.5108 25.1435C19.3805 25.0775 19.2757 24.9907 19.1622 24.8838ZM25.6755 21.0652C25.763 21.0652 25.8476 21.0794 25.9268 21.1053L20.0427 26.177L14.2077 21.0833C14.2622 21.0715 14.3188 21.0652 14.377 21.0652H25.6755ZM26.4317 21.5914C26.4645 21.6789 26.4823 21.7735 26.4823 21.8723V28.6725C26.4823 28.7626 26.4674 28.8494 26.4398 28.9304L22.1889 25.2483L26.4317 21.5914ZM25.9517 29.4306C25.8654 29.4623 25.7724 29.4794 25.6755 29.4794H14.377C14.3204 29.4794 14.2648 29.4733 14.2113 29.4623L18.4704 25.7305L19.8116 26.9013C19.9442 27.0174 20.1399 27.015 20.2696 26.9026L21.6548 25.7087L25.9517 29.4306ZM13.6516 29.0255L17.9403 25.2677L13.65 21.5225C13.5987 21.6284 13.5701 21.7471 13.5701 21.8723V28.6725C13.5698 28.7988 13.5992 28.9188 13.6516 29.0255ZM31.3658 15.7946C31.7152 15.7946 32 15.5098 32 15.1605V13.9252C32 13.5759 31.7152 13.291 31.3658 13.291H8.63416C8.28485 13.291 8 13.5759 8 13.9252V15.1605C8 15.5098 8.28485 15.7946 8.63416 15.7946H31.3658ZM28.3308 12.5911L20.0262 8L11.7216 12.5911H28.3308ZM8.73164 32H31.2684C31.6714 32 32 31.6714 32 31.2684V30.2113C32 29.8082 31.6714 29.4796 31.2684 29.4796H26.9474C26.6796 29.8999 26.2095 30.1795 25.6755 30.1795H14.377C13.8426 30.1795 13.3725 29.8999 13.105 29.4796H8.73164C8.32861 29.4796 8 29.8082 8 30.2113V31.2684C8 31.6714 8.32861 32 8.73164 32ZM11.1561 26.959H12.8699V28.6725C12.8699 28.7084 12.8712 28.7443 12.8738 28.7794H10.4245V27.6906C10.4245 27.2876 10.7531 26.959 11.1561 26.959ZM27.1825 26.959H28.8439C29.2469 26.959 29.5755 27.2876 29.5755 27.6906V28.7794H27.1786C27.1812 28.744 27.1825 28.7084 27.1825 28.6725V26.959ZM14.1807 20.3781C14.1909 19.026 14.2289 17.7233 14.2907 16.4948H12.0421C12.1152 17.9489 12.155 19.5071 12.155 21.1279C12.155 22.9352 12.1058 24.665 12.0156 26.259H12.8702V21.8723C12.8699 21.1079 13.4422 20.4746 14.1807 20.3781ZM18.7804 20.3653C18.7909 19.0178 18.8286 17.7194 18.8905 16.4946H16.6416C16.7032 17.7191 16.7412 19.0176 16.7516 20.3653H18.7804ZM23.3802 20.3653C23.3906 19.0178 23.4284 17.7194 23.4902 16.4946H21.2413C21.3029 17.7191 21.3409 19.0176 21.3514 20.3653H23.3802Z" fill="black"/>
</svg>
