<svg width="40" height="40" viewBox="0 0 40 40" fill="none" xmlns="http://www.w3.org/2000/svg">
<rect width="40" height="40" rx="20" fill="#84BC25"/>
<path fill-rule="evenodd" clip-rule="evenodd" d="M23.6243 25.9757H8.251C8.113 25.9757 8 25.8627 8 25.7237C8 25.5847 8.113 25.4727 8.251 25.4727H23.2231C23.2321 25.4857 23.2401 25.4977 23.2491 25.5107C23.3651 25.6757 23.4903 25.8307 23.6243 25.9757ZM10.1572 18.7305C10.7992 18.7305 11.3202 18.2095 11.3202 17.5675C11.3202 17.3085 11.2352 17.0695 11.0922 16.8765L13.0293 14.6525C13.1943 14.7425 13.3843 14.7945 13.5853 14.7945C13.9583 14.7945 14.2903 14.6185 14.5033 14.3455L19.8415 16.8805C19.8225 16.9645 19.8125 17.0515 19.8125 17.1415C19.8125 17.7835 20.3335 18.3045 20.9755 18.3045C21.6175 18.3045 22.1385 17.7835 22.1385 17.1415C22.1385 16.8725 22.0475 16.6245 21.8935 16.4275L24.0035 13.8864C24.1635 13.9694 24.3445 14.0154 24.5365 14.0154C25.1786 14.0154 25.6996 13.4944 25.6996 12.8524C25.6996 12.2104 25.1786 11.6894 24.5365 11.6894C23.8945 11.6894 23.3735 12.2104 23.3735 12.8524C23.3735 13.1214 23.4645 13.3694 23.6185 13.5664L21.5085 16.1075C21.3485 16.0245 21.1675 15.9784 20.9755 15.9784C20.6025 15.9784 20.2705 16.1545 20.0575 16.4275L14.7193 13.8924C14.7383 13.8084 14.7483 13.7214 14.7483 13.6314C14.7483 12.9894 14.2273 12.4684 13.5853 12.4684C12.9433 12.4684 12.4222 12.9894 12.4222 13.6314C12.4222 13.8904 12.5072 14.1294 12.6502 14.3224L10.7132 16.5465C10.5482 16.4565 10.3582 16.4045 10.1572 16.4045C9.5152 16.4045 8.99418 16.9255 8.99418 17.5675C8.99518 18.2105 9.5152 18.7305 10.1572 18.7305ZM29.2405 26.1935C31.0495 24.9205 31.4855 22.4226 30.2125 20.6124C28.9395 18.8034 26.4416 18.3674 24.6314 19.6404C22.8224 20.9134 22.3864 23.4113 23.6594 25.2215C24.9324 27.0315 27.4313 27.4665 29.2405 26.1935ZM28.5885 25.2665C27.9395 25.7225 27.1675 25.8725 26.4425 25.7465C25.7184 25.6205 25.0434 25.2185 24.5874 24.5695C24.1314 23.9205 23.9814 23.1485 24.1074 22.4235C24.2334 21.6995 24.6354 21.0245 25.2844 20.5684C25.9335 20.1124 26.7055 19.9624 27.4305 20.0884C28.1545 20.2144 28.8295 20.6164 29.2855 21.2655C29.7415 21.9145 29.8915 22.6865 29.7655 23.4115C29.6395 24.1345 29.2375 24.8095 28.5885 25.2665ZM30.2595 23.4945C30.4075 22.6445 30.2305 21.7375 29.6945 20.9765C29.1585 20.2144 28.3645 19.7415 27.5135 19.5935C26.6635 19.4455 25.7564 19.6225 24.9954 20.1585C24.2334 20.6945 23.7604 21.4885 23.6124 22.3395C23.4644 23.1895 23.6414 24.0965 24.1774 24.8575C24.7135 25.6195 25.5075 26.0925 26.3585 26.2405C27.2085 26.3885 28.1155 26.2115 28.8765 25.6755C29.6385 25.1395 30.1115 24.3455 30.2595 23.4945ZM28.8225 27.0115C29.0655 26.8985 29.3025 26.7635 29.5295 26.6045L29.5385 26.5985L29.7165 26.9075L29.7915 26.8645C29.9145 26.7935 30.0745 26.8355 30.1455 26.9595L31.9655 30.1114C32.0365 30.2344 31.9945 30.3944 31.8705 30.4654L31.0045 30.9654C30.8815 31.0364 30.7215 30.9944 30.6505 30.8704L28.8305 27.7185C28.7595 27.5955 28.8015 27.4355 28.9255 27.3645L29.0005 27.3215L28.8225 27.0115ZM19.6214 13.9622C18.2514 13.9622 17.1404 12.8522 17.1404 11.4812C17.1404 10.1111 18.2514 9.00012 19.6214 9.00012C20.9915 9.00012 22.1025 10.1111 22.1025 11.4812C22.1025 12.8522 20.9915 13.9622 19.6214 13.9622ZM20.3914 10.4642C20.4654 10.5542 20.4524 10.6872 20.3624 10.7612C20.2724 10.8352 20.1394 10.8222 20.0654 10.7322C20.0214 10.6782 19.9584 10.6332 19.8824 10.6002C19.8054 10.5672 19.7164 10.5482 19.6204 10.5482C19.4684 10.5482 19.3344 10.5942 19.2394 10.6692C19.1584 10.7332 19.1084 10.8182 19.1084 10.9082C19.1084 10.9992 19.1584 11.0832 19.2394 11.1472C19.3344 11.2222 19.4684 11.2682 19.6204 11.2682C19.8684 11.2682 20.0954 11.3502 20.2624 11.4822C20.4434 11.6252 20.5554 11.8272 20.5554 12.0522C20.5554 12.2782 20.4434 12.4792 20.2624 12.6222C20.1444 12.7162 19.9964 12.7842 19.8314 12.8162V13.0582C19.8314 13.1752 19.7364 13.2702 19.6194 13.2702C19.5024 13.2702 19.4074 13.1752 19.4074 13.0582V12.8162C19.3174 12.7992 19.2324 12.7712 19.1554 12.7342C19.0094 12.6642 18.8874 12.5612 18.8044 12.4372C18.7394 12.3402 18.7654 12.2092 18.8624 12.1442C18.9594 12.0792 19.0904 12.1052 19.1554 12.2022C19.1954 12.2622 19.2594 12.3142 19.3384 12.3522C19.4194 12.3912 19.5164 12.4132 19.6204 12.4132C19.7724 12.4132 19.9064 12.3672 20.0014 12.2922C20.0824 12.2282 20.1324 12.1432 20.1324 12.0532C20.1324 11.9622 20.0824 11.8782 20.0014 11.8142C19.9064 11.7392 19.7724 11.6932 19.6204 11.6932C19.3724 11.6932 19.1454 11.6112 18.9774 11.4792C18.7964 11.3362 18.6844 11.1342 18.6844 10.9092C18.6844 10.6832 18.7964 10.4822 18.9774 10.3392C19.0954 10.2462 19.2444 10.1772 19.4084 10.1452V9.90316C19.4084 9.78616 19.5034 9.69116 19.6204 9.69116C19.7374 9.69116 19.8324 9.78616 19.8324 9.90316V10.1452C19.9094 10.1602 19.9814 10.1822 20.0494 10.2112C20.1874 10.2702 20.3045 10.3582 20.3914 10.4642ZM8.90123 24.8633H11.4143V20.5433H8.90123V24.8633ZM19.7184 24.8633H22.2314V20.1152H19.7184V24.8633ZM16.1574 24.8633V18.2953H18.6704V24.8633H16.1574ZM12.3284 24.8633V16.6072H14.8414V24.8644L12.3284 24.8633ZM25.7926 18.5552C25.2866 18.6882 24.7956 18.9112 24.3426 19.2292C23.9206 19.5262 23.5646 19.8832 23.2796 20.2792V15.827H25.7926V18.5552Z" fill="black"/>
</svg>
