<svg width="40" height="40" viewBox="0 0 40 40" fill="none" xmlns="http://www.w3.org/2000/svg">
<rect width="40" height="40" rx="20" fill="#3C3C43" fill-opacity="0.29"/>
<g style="mix-blend-mode:plus-darker">
<path d="M16.6899 14.6207H19.5864V9.65515H11.3105V9.9386C12.2875 10.4045 12.9657 11.3993 12.9657 12.5517C12.9657 13.7041 12.2875 14.6989 11.3105 15.1648V15.4483H15.5246C15.6959 14.9678 16.1511 14.6207 16.6899 14.6207ZM18.345 10.8965V12.5517H16.2761V10.8965H18.345ZM14.2071 12.5517V10.8965H15.4485V12.5517H14.2071Z" fill="#090909"/>
<path d="M10.0691 15.4483C9.92838 15.4483 9.791 15.4346 9.65527 15.4152V16.6896C9.65527 16.9176 9.84065 17.1034 10.0691 17.1034H15.4484V16.2759H10.4829V15.4152C10.3471 15.4346 10.2098 15.4483 10.0691 15.4483Z" fill="#090909"/>
<path d="M12.1379 12.5518C12.1379 11.4109 11.2098 10.4828 10.069 10.4828C8.92814 10.4828 8 11.4109 8 12.5518C8 13.6926 8.92814 14.6207 10.069 14.6207C11.2098 14.6207 12.1379 13.6926 12.1379 12.5518ZM8.82759 12.9655V12.138H9.65517V11.3104H10.4828V12.138H11.3103V12.9655H10.4828V13.7931H9.65517V12.9655H8.82759Z" fill="#090909"/>
<path d="M10.4829 9.68828V8.82759H20.4139V14.6207H21.2415V8.41379C21.2415 8.18579 21.0561 8 20.8277 8H10.0691C9.84065 8 9.65527 8.18579 9.65527 8.41379V9.68828C9.791 9.66883 9.92838 9.65517 10.0691 9.65517C10.2098 9.65517 10.3471 9.66883 10.4829 9.68828Z" fill="#090909"/>
<path d="M25.3788 24.7673V15.8621C25.3788 15.6341 25.1935 15.4483 24.965 15.4483H16.6892C16.4608 15.4483 16.2754 15.6341 16.2754 15.8621V25.7931C16.2754 26.0211 16.4608 26.2069 16.6892 26.2069H24.226C24.5107 25.6524 24.9026 25.1617 25.3788 24.7673ZM18.3444 16.6897H23.3099V21.6552H18.3444V16.6897ZM18.7581 25.3793H17.9306V24.5518H18.7581V25.3793ZM23.7237 25.3793H19.5857V24.5518H23.7237V25.3793ZM23.7237 23.7242H17.9306V22.8966H23.7237V23.7242Z" fill="#090909"/>
<path d="M28.2759 24.5517C26.2222 24.5517 24.5518 26.2226 24.5518 28.2758C24.5518 30.3291 26.2222 32 28.2759 32C30.3296 32 32 30.3291 32 28.2758C32 26.2226 30.3296 24.5517 28.2759 24.5517ZM27.8621 27.862H28.6897C29.3741 27.862 29.9311 28.419 29.9311 29.1034C29.9311 29.7878 29.3741 30.3448 28.6897 30.3448V31.1724H27.8621V30.3448C27.1777 30.3448 26.6207 29.7878 26.6207 29.1034H27.4483C27.4483 29.3314 27.6337 29.5172 27.8621 29.5172H28.6897C28.9181 29.5172 29.1035 29.3314 29.1035 29.1034C29.1035 28.8754 28.9181 28.6896 28.6897 28.6896H27.8621C27.1777 28.6896 26.6207 28.1327 26.6207 27.4482C26.6207 26.7638 27.1777 26.2069 27.8621 26.2069V25.3793H28.6897V26.2069C29.3741 26.2069 29.9311 26.7638 29.9311 27.4482H29.1035C29.1035 27.2202 28.9181 27.0345 28.6897 27.0345H27.8621C27.6337 27.0345 27.4483 27.2202 27.4483 27.4482C27.4483 27.6762 27.6337 27.862 27.8621 27.862Z" fill="#090909"/>
<path d="M20.4141 19.4149L19.879 18.8799L19.2939 19.465L20.4141 20.5851L22.7756 18.2236L22.1905 17.6385L20.4141 19.4149Z" fill="#090909"/>
<path d="M20.0001 29.5172C14.752 29.5172 10.4829 25.2476 10.4829 19.9999C10.4829 19.6035 10.5077 19.203 10.5565 18.8094L9.73555 18.7076C9.68217 19.1347 9.65527 19.5692 9.65527 19.9999C9.65527 25.7041 14.296 30.3447 20.0001 30.3447C21.0275 30.3447 22.043 30.1945 23.0171 29.8974L22.7762 29.1058C21.88 29.379 20.946 29.5172 20.0001 29.5172Z" fill="#090909"/>
<path d="M29.5175 19.9999C29.5175 20.9467 29.3793 21.8806 29.1062 22.7757L29.8982 23.0169C30.1948 22.0432 30.3451 21.0282 30.3451 19.9999C30.3451 15.4139 27.4005 11.4365 23.0172 10.1024L22.7764 10.894C26.8084 12.1213 29.5175 15.7809 29.5175 19.9999Z" fill="#090909"/>
</g>
</svg>
