<svg width="40" height="40" viewBox="0 0 40 40" fill="none" xmlns="http://www.w3.org/2000/svg">
<rect width="40" height="40" rx="20" fill="#3C3C43" fill-opacity="0.29"/>
<path fill-rule="evenodd" clip-rule="evenodd" d="M10.3294 10.3565H13.6487V11.0947L10.3294 11.0957C9.45554 11.0957 8.73919 11.812 8.73919 12.6859V29.6716C8.73919 30.5455 9.45554 31.2618 10.3294 31.2618H25.5058C26.3797 31.2618 27.0961 30.5455 27.0961 29.6716V28.8512L27.8005 30.0699C27.7163 30.5514 27.4835 30.9834 27.1505 31.3163C26.7284 31.7384 26.1459 32 25.5058 32H10.3294C9.04729 32 8 30.9527 8 29.6706L8.00099 12.6859C8.00099 11.4038 9.04831 10.3565 10.3294 10.3565ZM26.906 25.0583C26.4333 25.3308 26.2698 25.9411 26.5423 26.4137L29.268 31.1359C29.5405 31.6086 30.1509 31.772 30.6235 31.4996L31.5043 30.9903C31.977 30.7178 32.1404 30.1075 31.868 29.6348L29.1423 24.9126C28.8698 24.44 28.2594 24.2765 27.7868 24.549L26.906 25.0583ZM21.6209 14.8874C19.2053 16.2815 18.378 19.371 19.772 21.7865C21.1661 24.2021 24.2555 25.0294 26.671 23.6353C29.0867 22.2413 29.914 19.1518 28.5199 16.7363C27.1258 14.3197 24.0364 13.4924 21.6209 14.8874ZM21.9449 18.6871C21.7784 18.804 21.7388 19.0339 21.8557 19.2004L23.3132 21.2603C23.4509 21.4565 23.7333 21.4674 23.8909 21.293L26.9534 17.9291C27.0902 17.7785 27.0793 17.5456 26.9286 17.4079C26.778 17.2712 26.5452 17.2821 26.4085 17.4327L23.651 20.4615L22.4591 18.7761C22.3422 18.6097 22.1123 18.5702 21.9449 18.6871ZM12.7392 17.3455C12.8769 17.5417 13.1593 17.5526 13.3168 17.3782L14.8318 15.7137C14.9685 15.5631 14.9576 15.3302 14.807 15.1925C14.6564 15.0558 14.4236 15.0667 14.2859 15.2173L13.0761 16.546L12.6193 15.8999C12.5024 15.7335 12.2725 15.6938 12.1061 15.8108C11.9396 15.9277 11.9 16.1576 12.0169 16.324L12.7392 17.3455ZM25.8656 27.0258H22.9772V29.9141L25.8656 27.0258ZM14.3879 13.1256H21.0214V9.9093H19.4152C19.5262 8.88975 18.7296 8 17.7041 8C16.6796 8 15.882 8.88975 15.993 9.9093H14.3878L14.3879 13.1256ZM17.7041 10.6C18.0578 10.6 18.3442 10.3136 18.3442 9.95993C18.3442 9.60621 18.0578 9.31987 17.7041 9.31987C17.3504 9.31987 17.0641 9.60621 17.0641 9.95993C17.0641 10.3127 17.3504 10.6 17.7041 10.6ZM15.4996 24.8429H11.3788V28.9637H15.4996V24.8429ZM15.4996 14.2391H11.3788V18.3599H15.4996V14.2391ZM21.7596 13.8636H13.6497V12.0732H10.9448C10.2056 12.0732 9.60121 12.6776 9.60121 13.4167V28.9388C9.60121 29.678 10.2056 30.2824 10.9448 30.2824H22.239V28.1471C22.1726 28.2115 22.0815 28.2512 21.9814 28.2512L17.3335 28.2522C17.1294 28.2522 16.964 28.0867 16.964 27.8826C16.964 27.6785 17.1294 27.513 17.3335 27.513H21.9814C22.0815 27.513 22.1726 27.5527 22.239 27.6171V26.655C22.239 26.4717 22.3718 26.3201 22.5472 26.2904L17.3334 26.2923C17.1293 26.2923 16.9638 26.1269 16.9638 25.9238C16.9638 25.7196 17.1293 25.5542 17.3334 25.5542H24.168C24.3721 25.5542 24.5375 25.7197 24.5375 25.9238C24.5375 26.1071 24.4048 26.2586 24.2294 26.2874H25.7117C25.5859 25.7068 25.7682 25.0915 26.1972 24.6753C23.8896 25.5502 21.2569 24.8517 19.6855 22.9513H17.3333C17.1292 22.9513 16.9637 22.7858 16.9637 22.5817C16.9637 22.3776 17.1292 22.2122 17.3333 22.2122H19.1663C18.9325 21.8178 18.7532 21.4136 18.6214 20.9905H17.3333C17.1292 20.9905 16.9638 20.825 16.9638 20.6209C16.9638 20.4168 17.1292 20.2513 17.3333 20.2513H18.4431C18.2915 19.3764 18.3469 18.4857 18.5897 17.6474H17.3343C17.1302 17.6474 16.9648 17.4819 16.9648 17.2778C16.9648 17.0737 17.1302 16.9092 17.3343 16.9092H18.8592C19.0504 16.4762 19.2962 16.066 19.5914 15.6875H17.3343C17.1302 15.6875 16.9648 15.5221 16.9648 15.318C16.9648 15.1139 17.1302 14.9484 17.3343 14.9484H20.282C20.5743 14.6858 20.8993 14.449 21.253 14.2449C22.8284 13.3354 24.6585 13.2531 26.2359 13.8625V13.4156C26.2359 12.6765 25.6315 12.0721 24.8924 12.0721L21.7593 12.0731L21.7596 13.8636ZM15.4996 23.6618V19.541H11.3788V23.6618H15.4996ZM14.2858 25.8208L13.076 27.1495L12.6192 26.5035C12.5023 26.337 12.2724 26.2974 12.106 26.4143C11.9395 26.5312 11.8999 26.7611 12.0168 26.9275L12.7391 27.9481C12.8779 28.1442 13.1592 28.1551 13.3168 27.9808L14.8318 26.3162C14.9685 26.1656 14.9576 25.9327 14.807 25.796C14.6564 25.6593 14.4235 25.6702 14.2858 25.8208ZM13.3158 22.6798L14.8308 21.0153C14.9675 20.8647 14.9566 20.6318 14.806 20.4941C14.6554 20.3574 14.4225 20.3683 14.2848 20.5189L13.075 21.8476L12.6183 21.2015C12.5013 21.0351 12.2715 20.9954 12.105 21.1124C11.9386 21.2293 11.8989 21.4592 12.0159 21.6256L12.7382 22.6461C12.8759 22.8423 13.1602 22.8562 13.3158 22.6798ZM27.0961 14.2807C27.3537 14.4333 27.6004 14.6057 27.8342 14.798V12.6846C27.8342 11.4024 26.7869 10.3551 25.5048 10.3551L21.7594 10.3561V11.0943H25.5058C26.3797 11.0943 27.0961 11.8107 27.0961 12.6846L27.0971 14.2808L27.0961 14.2807ZM27.8352 23.7223V23.7362C27.8273 23.7382 27.8184 23.7412 27.8105 23.7432C27.8184 23.7362 27.8263 23.7293 27.8352 23.7223Z" fill="black"/>
</svg>
