<svg width="40" height="40" viewBox="0 0 40 40" fill="none" xmlns="http://www.w3.org/2000/svg">
<rect width="40" height="40" rx="20" fill="#84BC25"/>
<path fill-rule="evenodd" clip-rule="evenodd" d="M9.49581 12.8021H12.1404C12.313 12.8021 12.4548 12.9439 12.4548 13.1165V13.6477C12.4548 13.8203 12.313 13.962 12.1404 13.962H9.49581C9.32321 13.962 9.18144 13.8203 9.18144 13.6477V13.1165C9.18144 12.9439 9.32321 12.8021 9.49581 12.8021ZM9.52047 25.8212C9.85744 25.8212 9.85744 26.3328 9.52047 26.3328L8.5609 26.3339C8.41912 26.3339 8.30508 26.2198 8.30508 26.078V22.0261C8.30508 21.6891 8.81671 21.6891 8.81671 22.0261V25.8224L9.52047 25.8212ZM11.0739 11.9452C11.0739 12.2822 10.5622 12.2822 10.5622 11.9452V10.4268C10.5622 10.285 10.6763 10.1709 10.8181 10.1709H15.5912C15.9282 10.1709 15.9282 10.6826 15.5912 10.6826H11.0737L11.0739 11.9452ZM28.854 12.123C28.854 12.4599 28.3423 12.4599 28.3423 12.123V10.8603L24.7609 10.8593C24.4239 10.8593 24.4239 10.3476 24.7609 10.3476H28.5982C28.74 10.3476 28.8541 10.4617 28.8541 10.6035L28.854 12.123ZM30.8132 26.3337C30.4762 26.3337 30.4762 25.8221 30.8132 25.8221H31.517L31.5159 22.0258C31.5159 21.6888 32.0276 21.6888 32.0276 22.0258V26.0778C32.0276 26.2195 31.9135 26.3336 31.7718 26.3336L30.8132 26.3337ZM29.5115 13.9948L29.2629 13.0198H27.9334L27.6848 13.9948C27.4886 14.0544 27.3006 14.1325 27.1228 14.228L26.2578 13.7144L25.3177 14.6544L25.8314 15.5195C25.7358 15.6972 25.6578 15.8852 25.5982 16.0815L24.6232 16.3301V17.6595L25.5982 17.9082C25.6578 18.1044 25.7358 18.2924 25.8314 18.4701L25.3177 19.3352L26.2578 20.2753L27.1228 19.7616C27.3006 19.8561 27.4886 19.9352 27.6848 19.9948L27.9334 20.9698H29.2629L29.5115 19.9948C29.7077 19.9352 29.8957 19.8571 30.0735 19.7616L30.9386 20.2753L31.8786 19.3352L31.3649 18.4701C31.4594 18.2924 31.5385 18.1044 31.5981 17.9082L32.5731 17.6595V16.3301L31.5981 16.0815C31.5385 15.8852 31.4605 15.6972 31.3649 15.5195L31.8786 14.6544L30.9386 13.7144L30.0735 14.228C29.8957 14.1325 29.7077 14.0544 29.5115 13.9948ZM20.1664 8C22.0024 8 23.4901 9.4887 23.4901 11.3237C23.4901 13.1596 22.0014 14.6474 20.1664 14.6474C18.3305 14.6474 16.8428 13.1587 16.8428 11.3237C16.8428 9.48875 18.3304 8 20.1664 8ZM20.1675 11.0688C19.6671 11.0668 19.4391 10.6106 19.7596 10.3384C20.0997 10.0486 20.713 10.2336 20.7223 10.6394C20.7305 10.9753 21.2401 10.963 21.2318 10.627C21.2205 10.1647 20.863 9.81129 20.4223 9.71368V9.37671C20.4223 9.03974 19.9106 9.03974 19.9106 9.37671V9.71368C19.7257 9.75375 19.5603 9.838 19.4278 9.94998C18.7507 10.5263 19.1812 11.5743 20.1665 11.5784C20.6668 11.5804 20.8949 12.0366 20.5743 12.3089C20.2343 12.5986 19.6209 12.4137 19.6117 12.0078C19.6035 11.6719 19.0939 11.6842 19.1021 12.0202C19.1134 12.4825 19.4709 12.8359 19.9117 12.9335V13.2705C19.9117 13.6075 20.4233 13.6075 20.4233 13.2705V12.9335C20.6082 12.8935 20.7736 12.8102 20.9062 12.6972C21.5822 12.1209 21.1527 11.0739 20.1675 11.0688ZM12.9665 13.3825V13.6476C12.9665 14.1017 12.5946 14.4736 12.1405 14.4736H9.49588C9.04176 14.4736 8.66987 14.1017 8.66987 13.6476V13.3825H8.45514C8.20446 13.3825 8 13.587 8 13.8376V20.5137C8 20.7633 8.20445 20.9688 8.45514 20.9688H13.1812C13.4319 20.9688 13.6363 20.7644 13.6363 20.5137V13.8366C13.6363 13.5869 13.4319 13.3815 13.1812 13.3815H12.9665L12.9665 13.3825ZM9.4487 15.0921C9.67883 14.8476 10.0508 15.1969 9.82062 15.4424L9.24323 16.0578C9.14255 16.1647 8.97201 16.1647 8.87131 16.0578L8.5826 15.7506C8.35246 15.5051 8.72438 15.1558 8.95452 15.4003L9.05726 15.5102L9.4487 15.0921ZM10.5141 15.8308C10.1771 15.8308 10.1771 15.3191 10.5141 15.3191H12.8678C13.2048 15.3191 13.2048 15.8308 12.8678 15.8308H10.5141ZM9.4487 16.9619C9.67883 16.7174 10.0508 17.0667 9.82062 17.3123L9.24323 17.9277C9.14255 18.0345 8.97201 18.0345 8.87131 17.9277L8.5826 17.6205C8.35246 17.3749 8.72438 17.0256 8.95452 17.2701L9.05726 17.3801L9.4487 16.9619ZM10.5141 17.7006C10.1771 17.7006 10.1771 17.189 10.5141 17.189H12.8678C13.2048 17.189 13.2048 17.7006 12.8678 17.7006H10.5141ZM9.4487 18.8318C9.67883 18.5873 10.0508 18.9366 9.82062 19.1821L9.24323 19.7975C9.14255 19.9044 8.97201 19.9044 8.87131 19.7975L8.5826 19.4903C8.35246 19.2448 8.72438 18.8955 8.95452 19.14L9.05726 19.2499L9.4487 18.8318ZM10.5141 19.5705C10.1771 19.5705 10.1771 19.0588 10.5141 19.0588H12.8678C13.2048 19.0588 13.2048 19.5705 12.8678 19.5705H10.5141ZM28.5982 14.825C29.7962 14.825 30.7681 15.7969 30.7681 16.9948C30.7681 18.1927 29.7962 19.1647 28.5982 19.1647C27.4003 19.1647 26.4284 18.1927 26.4284 16.9948C26.4284 15.7958 27.4003 14.825 28.5982 14.825ZM18.1333 22.7655H22.5366C22.777 22.7655 22.9743 22.9618 22.9743 23.2032V27.7886C22.9743 27.8533 22.9599 27.9149 22.9342 27.9704L17.7355 27.9694C17.7099 27.9139 17.6955 27.8523 17.6955 27.7875V23.2032C17.6955 22.9618 17.8929 22.7655 18.1333 22.7655ZM19.1555 23.6419C18.9511 23.6419 18.7836 23.8094 18.7836 24.0138C18.7836 24.2183 18.9511 24.3857 19.1555 24.3857H21.5134C21.7178 24.3857 21.8853 24.2183 21.8853 24.0138C21.8853 23.8094 21.7178 23.6419 21.5134 23.6419H19.1555ZM18.8925 26.5792C18.8329 26.5792 18.7846 26.6275 18.7846 26.6871V27.2337C18.7846 27.2932 18.8329 27.3415 18.8925 27.3415H20.1829C20.2425 27.3415 20.2908 27.2932 20.2908 27.2337V26.6871C20.2908 26.6275 20.2425 26.5792 20.1829 26.5792H18.8925ZM11.712 22.7655H16.1154C16.3558 22.7655 16.5531 22.9618 16.5531 23.2032V27.7886C16.5531 27.8533 16.5387 27.9149 16.513 27.9704L11.3143 27.9694C11.2886 27.9139 11.2742 27.8523 11.2742 27.7875L11.2753 23.2032C11.2753 22.9618 11.4716 22.7655 11.712 22.7655ZM12.7353 23.6419C12.5309 23.6419 12.3634 23.8094 12.3634 24.0138C12.3634 24.2183 12.5309 24.3857 12.7353 24.3857H15.0932C15.2976 24.3857 15.4651 24.2183 15.4651 24.0138C15.4651 23.8094 15.2976 23.6419 15.0932 23.6419H12.7353ZM12.4713 26.5792C12.4117 26.5792 12.3634 26.6275 12.3634 26.6871V27.2337C12.3634 27.2932 12.4117 27.3415 12.4713 27.3415H13.7617C13.8213 27.3415 13.8695 27.2932 13.8695 27.2337V26.6871C13.8695 26.6275 13.8213 26.5792 13.7617 26.5792H12.4713ZM24.0572 25.4881H29.455L27.6961 22.7481C27.4999 22.4429 27.1978 22.2786 26.8352 22.2786H24.0572L24.0572 25.4881ZM24.0572 27.9693H29.6678V25.9998L24.0572 26.0008V27.9693ZM16.0148 29.8885C15.2381 29.1118 13.9046 29.6645 13.9046 30.7628C13.9046 31.861 15.2381 32.4138 16.0148 31.6371C16.4977 31.1542 16.4977 30.3713 16.0148 29.8885ZM27.5174 29.8885C26.7407 29.1118 25.4071 29.6645 25.4071 30.7628C25.4071 31.861 26.7407 32.4138 27.5174 31.6371C28.0002 31.1542 28.0002 30.3713 27.5174 29.8885ZM28.2889 30.173C28.2006 29.9275 28.0598 29.7066 27.879 29.5268C26.9688 28.6166 25.4266 28.9741 24.9972 30.173H16.7873C16.6989 29.9275 16.5582 29.7066 16.3774 29.5268C15.4671 28.6166 13.925 28.9741 13.4955 30.173H10.665V28.4809H29.6676V30.173H28.2889ZM26.9112 30.4946C27.0592 30.6426 27.0592 30.883 26.9112 31.0309C26.6729 31.2693 26.264 31.0998 26.264 30.7628C26.264 30.4258 26.6739 30.2562 26.9112 30.4946ZM26.6431 29.872C27.4342 29.872 27.8328 30.8326 27.2729 31.3936C26.7129 31.9535 25.7513 31.5549 25.7513 30.7638C25.7523 30.2707 26.151 29.872 26.6431 29.872ZM15.4085 30.4946C15.5565 30.6426 15.5565 30.883 15.4085 31.0309C15.1702 31.2693 14.7613 31.0998 14.7613 30.7628C14.7613 30.4258 15.1712 30.2562 15.4085 30.4946ZM15.1404 29.872C15.9315 29.872 16.3301 30.8326 15.7702 31.3936C15.2103 31.9535 14.2486 31.5549 14.2486 30.7638C14.2496 30.2707 14.6493 29.872 15.1404 29.872Z" fill="black"/>
</svg>
