<svg width="40" height="40" viewBox="0 0 40 40" fill="none" xmlns="http://www.w3.org/2000/svg">
<rect width="40" height="40" rx="20" fill="#3C3C43" fill-opacity="0.29"/>
<path fill-rule="evenodd" clip-rule="evenodd" d="M17.203 28.1161C17.203 27.9207 17.361 27.7627 17.5552 27.7627C17.7506 27.7627 17.9086 27.9207 17.9086 28.1161V28.6734C17.9086 28.8688 17.7506 29.0268 17.5552 29.0268H14.3191C14.1237 29.0268 13.9657 28.8687 13.9657 28.6734V25.436C13.9657 25.342 14.0031 25.2527 14.0695 25.1864C14.1358 25.12 14.2251 25.0826 14.3191 25.0826H16.3576H16.3564C16.4517 25.0802 16.5446 25.1164 16.6133 25.1827C16.6809 25.2491 16.7195 25.3408 16.7195 25.436C16.7195 25.5313 16.6809 25.623 16.6133 25.6893C16.5446 25.7557 16.4517 25.7919 16.3564 25.7883H14.6702V28.3201H17.202V28.115L17.203 28.1161ZM21.3126 25.5963C21.508 25.5963 21.666 25.7543 21.666 25.9485C21.666 26.1439 21.508 26.3019 21.3126 26.3019H20.127C19.9328 26.3019 19.7748 26.1439 19.7748 25.9485C19.7748 25.7543 19.9328 25.5963 20.127 25.5963H21.3126ZM22.3717 27.8073C22.5671 27.8073 22.7251 27.9653 22.7251 28.1607C22.7251 28.3549 22.5671 28.5129 22.3717 28.5129H20.127C19.9328 28.5129 19.7748 28.3549 19.7748 28.1607C19.7748 27.9653 19.9328 27.8073 20.127 27.8073H22.3717ZM30.0938 21.8765C28.8176 20.6015 26.8191 20.4049 25.3184 21.4073C23.8179 22.4084 23.2353 24.3311 23.9253 25.998C24.6152 27.6649 26.3871 28.6118 28.1566 28.2596C29.9261 27.9086 31.201 26.355 31.201 24.5505C31.2022 23.5481 30.8042 22.5857 30.0938 21.8765ZM27.9805 29.0026V29.0038C27.6078 29.0497 27.2315 29.0497 26.8588 29.0038V30.526C26.8588 30.7202 26.7008 30.8782 26.5054 30.8782H14.4482V32H27.9804L27.9805 29.0026ZM27.4196 20.0623C27.6066 20.0623 27.7936 20.0744 27.9805 20.0973V14.1835H26.8588V20.0986C27.0445 20.0756 27.2315 20.0636 27.4196 20.0636V20.0623ZM25.3197 24.0392C25.38 24.0392 25.4379 24.0633 25.4801 24.1055L26.6477 25.2743L26.6489 25.2731C26.7864 25.4119 27.0107 25.4119 27.1482 25.2731L29.358 23.0634C29.4472 22.9766 29.5883 22.9754 29.6776 23.061L29.6812 23.0646C29.7681 23.1551 29.7669 23.2962 29.68 23.3855L27.4703 25.5964L27.0071 26.0596C26.9468 26.1187 26.8503 26.1187 26.79 26.0596L25.1593 24.4289C25.0941 24.3637 25.0748 24.266 25.1098 24.1804C25.1448 24.096 25.228 24.0405 25.3197 24.0405L25.3197 24.0392ZM24.6599 23.6074C25.0241 23.2431 25.6152 23.2431 25.9794 23.6074L26.8986 24.5265L28.8598 22.5664L28.8586 22.5652C29.2241 22.2022 29.814 22.2022 30.1794 22.5652C30.5413 22.9307 30.5413 23.5193 30.1794 23.8836L27.5053 26.5577C27.17 26.893 26.6259 26.893 26.2894 26.5577L25.8262 26.0946L24.6599 24.927C24.2968 24.5627 24.2968 23.9716 24.6599 23.6074ZM17.0137 8.63129C16.2888 7.90515 15.1514 7.79176 14.2974 8.36231C13.4434 8.93286 13.1105 10.0268 13.5037 10.9749C13.8969 11.9242 14.9053 12.4634 15.9113 12.2631C16.9184 12.0629 17.6446 11.1788 17.6434 10.1523C17.6446 9.58177 17.4178 9.03416 17.0137 8.63129ZM13.2469 21.6376C13.0514 21.6376 12.8934 21.4796 12.8934 21.2842C12.8934 21.09 13.0515 20.932 13.2469 20.932H14.6774C14.8728 20.932 15.0308 21.0901 15.0308 21.2842C15.0308 21.4796 14.8728 21.6376 14.6774 21.6376H13.2469ZM16.3517 16.3954H14.6353V18.762L15.2432 18.154H15.2444C15.3819 18.0165 15.6051 18.0165 15.7426 18.154L16.3517 18.762L16.3517 16.3954ZM18.8099 16.3954H17.0573V19.6148C17.0573 19.7583 16.9704 19.8874 16.8378 19.9417C16.7051 19.9947 16.5531 19.9634 16.453 19.8621L15.4916 18.9031L14.5303 19.8645C14.4302 19.9646 14.2782 19.9947 14.1467 19.9405C14.0141 19.8862 13.9284 19.7571 13.9284 19.6148V16.3954H12.177V23.0272H18.8097L18.8099 16.3954ZM19.5155 20.0622V23.3804C19.5155 23.5758 19.3575 23.7338 19.1621 23.7338H12.6208V30.1726H26.153V28.8567C24.9046 28.4888 23.8782 27.5974 23.3378 26.4141C22.7974 25.2308 22.7974 23.8715 23.3378 22.6871C23.8782 21.5038 24.9046 20.6124 26.153 20.2445V12.356H17.3103C17.2549 12.4018 17.1982 12.4452 17.1391 12.4863V12.4875C18.7771 12.8602 20.2377 13.7781 21.2848 15.0916C22.3318 16.404 22.9023 18.0323 22.9023 19.7114C22.9023 19.9068 22.7443 20.0648 22.5501 20.0648H22.5188L19.5155 20.0622ZM11.8249 15.6898C11.7308 15.6898 11.6416 15.7272 11.5752 15.7936C11.5089 15.8599 11.4715 15.9492 11.4715 16.0432V19.3602H8.7998C8.92043 17.0515 10.2219 14.9683 12.2434 13.8478C14.265 12.726 16.722 12.726 18.7436 13.8478C20.7652 14.9683 22.0668 17.0514 22.1872 19.3602H19.5155V16.0432C19.5155 15.8478 19.3575 15.6898 19.1621 15.6898L11.8249 15.6898ZM15.505 27.0306L16.2806 27.8062L16.2794 27.805C16.4169 27.9425 16.6413 27.9425 16.7788 27.805L18.3143 26.2695C18.453 26.132 18.453 25.9076 18.3143 25.7701C18.1768 25.6326 17.9536 25.6326 17.8161 25.7701L16.5291 27.0571L16.0044 26.5324V26.5312C15.9381 26.4625 15.8476 26.4239 15.7535 26.4227C15.6582 26.4215 15.5665 26.4588 15.499 26.5252C15.4327 26.5927 15.3953 26.6844 15.3965 26.7797C15.3965 26.875 15.4363 26.9655 15.505 27.0306Z" fill="black"/>
</svg>
