<svg width="40" height="40" viewBox="0 0 40 40" fill="none" xmlns="http://www.w3.org/2000/svg">
<rect width="40" height="40" rx="20" fill="#84BC25"/>
<path d="M31.4996 19.5185C31.4996 13.74 27.1849 8.92459 21.5605 8.1156C23.217 10.0418 24.1801 14.7801 24.2957 19.557C26.453 17.939 29.3808 17.939 31.4996 19.5185Z" fill="black"/>
<path d="M23.5257 19.5185C23.3716 12.8925 21.561 8 19.943 8C18.325 8 16.5144 12.8925 16.3604 19.5185C18.4791 17.939 21.4069 17.939 23.5257 19.5185Z" fill="black"/>
<path d="M15.5896 19.557C15.7052 14.7801 16.6682 10.0418 18.3247 8.1156C12.7003 8.92459 8.38574 13.74 8.38574 19.5185C10.5045 17.939 13.4323 17.939 15.5896 19.557Z" fill="black"/>
<path d="M32.0004 25.7593L31.1144 25.4896C31.0373 25.2585 30.9603 25.0273 30.8447 24.7962L31.2685 23.9872C31.3455 23.8331 31.3455 23.6405 31.1914 23.5249L30.3439 22.6774C30.2284 22.5618 30.0357 22.5233 29.8816 22.6004L29.0727 23.0241C28.8415 22.9085 28.6104 22.8315 28.3792 22.7545L28.1096 21.8684C28.0711 21.7143 27.917 21.5988 27.7243 21.5988H26.4916C26.299 21.5988 26.1834 21.7143 26.1064 21.8684L25.8367 22.7545C25.6056 22.8315 25.3744 22.9085 25.1433 23.0241L24.3343 22.6004C24.1802 22.5233 23.9876 22.5618 23.872 22.6774L22.986 23.5634C22.8704 23.679 22.8319 23.8716 22.9089 24.0257L23.3327 24.8347C23.2171 25.0659 23.1401 25.297 23.063 25.5281L22.254 25.7593C22.0999 25.7978 21.9844 25.9519 21.9844 26.1445V27.4158C21.9844 27.5699 22.0999 27.724 22.254 27.801L23.1401 28.0707C23.2171 28.3018 23.2942 28.5329 23.4097 28.7641L22.986 29.5731C22.9089 29.7272 22.9475 29.9198 23.063 30.0354L23.9491 30.9214C24.0646 31.037 24.2572 31.0755 24.4113 30.9984L25.2203 30.5747C25.4515 30.6902 25.6826 30.7673 25.9137 30.8443L26.1834 31.7304C26.2219 31.8845 26.376 32 26.5686 32H27.8014C27.9555 32 28.1096 31.8845 28.1866 31.7304L28.4563 30.8443C28.6874 30.7673 28.9186 30.6902 29.1497 30.5747L29.9587 30.9984C30.1128 31.0755 30.3054 31.037 30.421 30.9214L31.307 30.0354C31.4226 29.9198 31.4611 29.7272 31.3841 29.5731L30.9603 28.7641C31.0759 28.5329 31.1529 28.3018 31.23 28.0707L32.116 27.801C32.2701 27.7625 32.3857 27.6084 32.3857 27.4158V26.106C32.2701 25.9519 32.1545 25.7978 32.0004 25.7593ZM27.1465 28.8411C25.9908 28.8411 25.0662 27.9166 25.0662 26.7609C25.0662 25.6052 25.9908 24.6806 27.1465 24.6806C28.3022 24.6806 29.2267 25.6052 29.2267 26.7609C29.2267 27.9166 28.2637 28.8411 27.1465 28.8411Z" fill="black"/>
<path d="M8.77093 29.8041C9.42583 29.8041 9.92663 29.3033 9.92663 28.6484C9.92663 28.4558 9.88811 28.3017 9.81106 28.1476L12.161 25.7977C12.4692 25.9518 12.8159 25.9518 13.1626 25.7977L14.9347 27.5698C14.8576 27.7239 14.8191 27.878 14.8191 28.0706C14.8191 28.7255 15.3584 29.2263 15.9748 29.2263C16.8223 29.2263 17.4001 28.3402 17.0149 27.5698L20.9058 23.6789V24.8346C20.9058 25.0272 21.0984 25.2199 21.291 25.2199C21.4836 25.2199 21.6762 25.0272 21.6762 24.8346V22.7544C21.6762 22.5618 21.5221 22.3691 21.291 22.3691H19.2107C18.9796 22.3691 18.8255 22.5618 18.8255 22.7544C18.8255 22.947 18.9796 23.1396 19.2107 23.1396H20.3664L16.4756 27.069C16.1674 26.9149 15.7822 26.9149 15.474 27.069L13.7019 25.2969C13.8945 24.8732 13.856 24.3338 13.4708 23.9871C12.7774 23.2937 11.5061 23.756 11.5061 24.7961C11.5061 24.9887 11.5446 25.1428 11.6217 25.2969L9.27174 27.6468C9.11764 27.5698 8.96355 27.5313 8.77093 27.5313C8.11604 27.5313 7.61523 28.0706 7.61523 28.687C7.61523 29.3033 8.11604 29.8041 8.77093 29.8041Z" fill="black"/>
</svg>
