<svg width="40" height="40" viewBox="0 0 40 40" fill="none" xmlns="http://www.w3.org/2000/svg">
<rect width="40" height="40" rx="20" fill="#3C3C43" fill-opacity="0.29"/>
<path d="M16.8383 30.7146H13.3553C12.4106 30.7146 11.6416 29.9456 11.6416 29.0009V16.8596C11.6416 16.6229 11.8333 16.4312 12.07 16.4312C12.3067 16.4312 12.4984 16.6229 12.4984 16.8596V29.0009C12.4984 29.4733 12.8829 29.8578 13.3553 29.8578H16.8383C17.075 29.8578 17.2667 30.0495 17.2667 30.2862C17.2667 30.5229 17.075 30.7146 16.8383 30.7146Z" fill="black"/>
<path d="M27.9209 20.8438C27.6842 20.8438 27.4925 20.6521 27.4925 20.4154V14.2956L23.3476 10.1507H14.8415C14.6048 10.1507 14.4131 9.95894 14.4131 9.72224C14.4131 9.48554 14.6048 9.29382 14.8415 9.29382H23.5256C23.6391 9.29382 23.7484 9.33881 23.8287 9.41914L28.2242 13.8146C28.3045 13.895 28.3495 14.0042 28.3495 14.1178V20.4156C28.3495 20.6523 28.1576 20.8438 27.9209 20.8438Z" fill="black"/>
<path d="M26.6358 30.7146H21.5505C21.3138 30.7146 21.1221 30.5229 21.1221 30.2862C21.1221 30.0495 21.3138 29.8578 21.5505 29.8578H26.6358C26.8725 29.8578 27.0643 30.0495 27.0643 30.2862C27.0643 30.5229 26.8725 30.7146 26.6358 30.7146Z" fill="black"/>
<path d="M27.9217 14.5463H24.8113C23.8667 14.5463 23.0977 13.7773 23.0977 12.8326V9.72224C23.0977 9.48554 23.2894 9.29382 23.5261 9.29382C23.7628 9.29382 23.9545 9.48554 23.9545 9.72224V12.8326C23.9545 13.305 24.339 13.6895 24.8113 13.6895H27.9217C28.1584 13.6895 28.3501 13.8812 28.3501 14.1179C28.3501 14.3546 28.1584 14.5463 27.9217 14.5463Z" fill="black"/>
<path d="M16.3028 16.8725H14.3063C14.0707 16.8725 13.8779 17.0653 13.8779 17.3009V19.3016C13.8779 19.5373 14.0707 19.7301 14.3063 19.7301H16.3028C16.5427 19.7301 16.7312 19.5373 16.7312 19.3016V17.3009C16.7312 17.0653 16.5427 16.8725 16.3028 16.8725ZM15.8743 18.8732H14.7348V17.7293H15.8743V18.8732Z" fill="black"/>
<path d="M22.3321 18.1439H17.9558C17.7191 18.1439 17.5273 17.9522 17.5273 17.7155C17.5273 17.4788 17.7191 17.2871 17.9558 17.2871H22.3321C22.5688 17.2871 22.7605 17.4788 22.7605 17.7155C22.7605 17.9522 22.5688 18.1439 22.3321 18.1439Z" fill="black"/>
<path d="M20.1717 19.3166H17.9567C17.72 19.3166 17.5283 19.1249 17.5283 18.8882C17.5283 18.6515 17.72 18.4598 17.9567 18.4598H20.1717C20.4084 18.4598 20.6001 18.6515 20.6001 18.8882C20.6001 19.1249 20.4084 19.3166 20.1717 19.3166Z" fill="black"/>
<path d="M16.3028 20.8224H14.3063C14.0707 20.8224 13.8779 21.0152 13.8779 21.2509V23.2473C13.8779 23.4872 14.0707 23.6757 14.3063 23.6757H16.3028C16.5427 23.6757 16.7312 23.4872 16.7312 23.2473V21.2509C16.7312 21.0152 16.5427 20.8224 16.3028 20.8224ZM15.8743 22.8189H14.7348V21.6793H15.8743V22.8189Z" fill="black"/>
<path d="M22.3321 22.0917H17.9558C17.7191 22.0917 17.5273 21.9 17.5273 21.6633C17.5273 21.4266 17.7191 21.2349 17.9558 21.2349H22.3321C22.5688 21.2349 22.7605 21.4266 22.7605 21.6633C22.7605 21.9 22.5688 22.0917 22.3321 22.0917Z" fill="black"/>
<path d="M20.1717 23.2647H17.9567C17.72 23.2647 17.5283 23.073 17.5283 22.8363C17.5283 22.5996 17.72 22.4078 17.9567 22.4078H20.1717C20.4084 22.4078 20.6001 22.5996 20.6001 22.8363C20.6001 23.073 20.4084 23.2647 20.1717 23.2647Z" fill="black"/>
<path d="M16.3028 24.7727H14.3063C14.0707 24.7727 13.8779 24.9612 13.8779 25.2011V27.1975C13.8779 27.4332 14.0707 27.626 14.3063 27.626H16.3028C16.5427 27.626 16.7312 27.4332 16.7312 27.1975V25.2011C16.7312 24.9612 16.5427 24.7727 16.3028 24.7727ZM15.8743 26.7691H14.7348V25.6295H15.8743V26.7691Z" fill="black"/>
<path d="M19.1199 26.0397H17.9567C17.72 26.0397 17.5283 25.848 17.5283 25.6113C17.5283 25.3746 17.72 25.1829 17.9567 25.1829H19.1199C19.3566 25.1829 19.5483 25.3746 19.5483 25.6113C19.5483 25.848 19.3566 26.0397 19.1199 26.0397Z" fill="black"/>
<path d="M18.4975 27.2135H17.9577C17.721 27.2135 17.5293 27.0218 17.5293 26.7851C17.5293 26.5484 17.721 26.3567 17.9577 26.3567H18.4975C18.7342 26.3567 18.926 26.5484 18.926 26.7851C18.926 27.0218 18.7342 27.2135 18.4975 27.2135Z" fill="black"/>
<path d="M15.8914 9.74365L14.9317 9.29382L12.2498 8.03856C12.1342 7.98715 12.0056 7.98715 11.89 8.03856L8.24848 9.74368C8.09425 9.81222 8 9.96645 8 10.1292V12.2756C8 13.8179 8.76688 15.2316 10.0521 16.0586L11.6416 17.0911L11.8386 17.2196C11.9072 17.2667 11.9886 17.2881 12.07 17.2881C12.1514 17.2881 12.2328 17.2667 12.3013 17.2196L12.4984 17.0911L14.0878 16.0586C15.3731 15.2317 16.14 13.8179 16.14 12.2756V10.1292C16.14 9.96644 16.0456 9.81219 15.8914 9.74365ZM13.865 11.6758L12.0185 13.5223C11.9371 13.6037 11.8257 13.6465 11.7143 13.6465C11.6072 13.6465 11.4958 13.6037 11.4144 13.5223L10.2748 12.3827C10.1077 12.2156 10.1077 11.9457 10.2748 11.7787C10.4462 11.6116 10.7161 11.6116 10.8832 11.7787L11.7143 12.6141L13.2566 11.0718C13.4237 10.9047 13.6936 10.9047 13.865 11.0718C14.0321 11.2389 14.0321 11.5088 13.865 11.6758Z" fill="black"/>
<path d="M27.7934 31.3488L27.0051 30.0678L27.0008 30.0636C26.988 30.0464 26.9794 30.0293 26.9666 30.0164C26.958 30.0036 26.9451 29.9907 26.9323 29.9779C26.9066 29.9522 26.8809 29.9307 26.8509 29.9179C26.8295 29.9008 26.8081 29.8922 26.7823 29.8836C26.7652 29.8793 26.7481 29.8708 26.7309 29.8665C26.7009 29.8622 26.6667 29.8579 26.6367 29.8579H18.9723C18.8309 29.8579 18.6981 29.9307 18.6167 30.0464L17.7513 31.3317C17.6614 31.4645 17.6528 31.6316 17.7256 31.7729C17.8027 31.9143 17.9484 32 18.1069 32H27.4293C27.5835 32 27.7249 31.9143 27.802 31.7815C27.8791 31.6444 27.8748 31.4773 27.7934 31.3488ZM18.9122 31.1432L19.1993 30.7148H26.3967L26.6623 31.1432H18.9122Z" fill="black"/>
<path d="M31.5027 29.4251L26.9701 25.3465L27.4842 24.8324L27.6641 25.0167C27.7455 25.0938 27.8526 25.1409 27.9683 25.1409C28.084 25.1409 28.1911 25.0938 28.2725 25.0167L29.2193 24.0656C29.3864 23.8942 29.3864 23.6243 29.2193 23.4572L25.9589 20.1927C25.8775 20.1156 25.7704 20.0685 25.6548 20.0685C25.5391 20.0685 25.432 20.1156 25.3506 20.1927L24.3995 21.1438C24.2324 21.3109 24.2324 21.5808 24.3995 21.7479L24.5794 21.9321L21.9232 24.5926L21.7433 24.4084C21.5762 24.2413 21.302 24.2413 21.1349 24.4084L20.1838 25.3595C20.1067 25.4409 20.0596 25.548 20.0596 25.6636C20.0596 25.7793 20.1067 25.8864 20.1838 25.9678L23.4483 29.2282C23.6154 29.3953 23.8896 29.3953 24.0523 29.2282L25.0077 28.2814C25.0848 28.2 25.132 28.0929 25.132 27.9772C25.132 27.8658 25.0848 27.7544 25.0077 27.673L24.8235 27.4931L25.3376 26.979L29.4162 31.5116C29.6903 31.8158 30.0673 31.9871 30.4743 32H30.5129C30.9071 32 31.2755 31.8457 31.5582 31.5673C31.8453 31.2759 31.9995 30.8904 31.9909 30.4834C31.9781 30.0764 31.8069 29.6993 31.5027 29.4251ZM24.5238 27.7971C24.4381 27.8785 24.331 27.9213 24.2196 27.9213C24.1125 27.9213 24.0011 27.8785 23.9154 27.7971L21.6191 25.4965C21.452 25.3294 21.452 25.0595 21.6191 24.8924C21.7862 24.7254 22.0561 24.7254 22.2232 24.8924L24.5238 27.1888C24.6909 27.3558 24.6909 27.63 24.5238 27.7971ZM24.8837 22.2319C24.7166 22.0648 24.7166 21.7949 24.8837 21.6279C25.0508 21.4608 25.3207 21.4608 25.4877 21.6279L27.7883 23.9242C27.9554 24.0955 27.9554 24.3654 27.7883 24.5325C27.7027 24.6139 27.5913 24.6568 27.4841 24.6568C27.3728 24.6568 27.2657 24.6139 27.18 24.5325L24.8837 22.2319Z" fill="black"/>
</svg>
