<svg width="40" height="40" viewBox="0 0 40 40" fill="none" xmlns="http://www.w3.org/2000/svg">
<rect width="40" height="40" rx="20" fill="#3C3C43" fill-opacity="0.29"/>
<path d="M10.3875 17.5148H19.4194C19.2672 17.1932 19.1428 16.8592 19.0477 16.5163L17.9625 16.085C17.9251 16.0699 17.893 16.0441 17.8703 16.0107C17.8476 15.9774 17.8353 15.9381 17.835 15.8978V13.8711C17.8351 13.8304 17.8473 13.7906 17.87 13.7568C17.8927 13.723 17.9249 13.6967 17.9625 13.6812L19.0477 13.2552C19.0993 13.0653 19.1617 12.8781 19.2295 12.6936L17.2923 11.9855L8 15.4799V17.5148H10.3875Z" fill="black"/>
<path d="M10.1841 30.5621V25.0084V17.9218H9.15039V30.5621H10.1841Z" fill="black"/>
<path d="M24.4004 22.1759V25.0084V30.5621H25.4341V22.1759H24.4004Z" fill="black"/>
<path d="M17.0887 25.2118H14.6171V26.7365C14.6171 26.7905 14.5956 26.8423 14.5575 26.8804C14.5193 26.9186 14.4675 26.94 14.4136 26.94H13.2632C13.2095 26.9393 13.1581 26.9177 13.1201 26.8797C13.0821 26.8416 13.0604 26.7903 13.0597 26.7365V25.2118H10.5908V30.5756H17.1022L17.0887 25.2118Z" fill="black"/>
<path d="M13.4668 26.5331H14.2102V25.2118H13.8385H13.4668V26.5331Z" fill="black"/>
<path d="M21.525 26.7365C21.5243 26.7903 21.5027 26.8416 21.4647 26.8797C21.4267 26.9177 21.3753 26.9393 21.3216 26.94H20.1712C20.1172 26.94 20.0655 26.9186 20.0273 26.8804C19.9892 26.8423 19.9677 26.7905 19.9677 26.7365V25.2118H17.4961V30.5756H24.0075V25.2118H21.525V26.7365Z" fill="black"/>
<path d="M20.375 26.5331H21.1184V25.2118H20.7467H20.375V26.5331Z" fill="black"/>
<path d="M18.0715 19.4519V20.9767C18.0715 21.0306 18.05 21.0824 18.0119 21.1205C17.9737 21.1587 17.922 21.1801 17.868 21.1801H16.7176C16.6637 21.1801 16.6119 21.1587 16.5738 21.1205C16.5356 21.0824 16.5142 21.0306 16.5142 20.9767V19.4519H14.0371V24.8048H20.5485V20.6104L19.39 19.4519H18.0715Z" fill="black"/>
<path d="M17.6643 19.4574H16.9209V20.776H17.6643V19.4574Z" fill="black"/>
<path d="M24.1972 30.969H17.2923H10.3875H8V32H9.15035H10.184H24.4006H25.4343H26.5847V30.969H24.1972Z" fill="black"/>
<path d="M32.0111 14.0095L30.9259 13.5727C30.896 13.5611 30.8693 13.5424 30.848 13.5184C30.8268 13.4943 30.8116 13.4655 30.8038 13.4343C30.6681 12.8921 30.4552 12.3722 30.1717 11.8906C30.1576 11.8623 30.1502 11.8312 30.1502 11.7997C30.1502 11.7681 30.1576 11.737 30.1717 11.7088L30.6356 10.6236L29.3984 9.38639L28.3457 9.83948C28.3169 9.85468 28.2848 9.86263 28.2521 9.86263C28.2195 9.86263 28.1874 9.85468 28.1585 9.83948C27.6681 9.54152 27.1359 9.3184 26.5795 9.17748C26.5487 9.16909 26.5201 9.15371 26.4961 9.13254C26.4721 9.11138 26.4533 9.08498 26.4412 9.05539L26.0016 8H24.2517L23.8393 9.03911C23.827 9.06912 23.8079 9.09582 23.7834 9.11703C23.7588 9.13824 23.7297 9.15338 23.6982 9.1612C23.1253 9.29988 22.5766 9.52396 22.0704 9.82591C22.0419 9.84066 22.0102 9.84836 21.9781 9.84836C21.946 9.84836 21.9144 9.84066 21.8859 9.82591L20.863 9.38639L19.6394 10.6344L20.0817 11.6572C20.0941 11.6869 20.0994 11.7191 20.0971 11.7511C20.0947 11.7832 20.0848 11.8142 20.0681 11.8417C19.7674 12.3437 19.5434 12.8878 19.4034 13.456C19.3956 13.4875 19.3804 13.5167 19.3592 13.5412C19.338 13.5657 19.3113 13.5848 19.2813 13.5971L18.2422 14.0095V15.7594L19.2949 16.1773C19.3245 16.1894 19.3509 16.2082 19.372 16.2322C19.3932 16.2562 19.4086 16.2848 19.417 16.3156C19.5588 16.8721 19.7828 17.4043 20.0817 17.8947C20.0964 17.9236 20.1041 17.9557 20.1041 17.9883C20.1041 18.0208 20.0964 18.0529 20.0817 18.0819L19.6286 19.1345L20.8657 20.3717L21.951 19.9078C21.9795 19.893 22.0111 19.8853 22.0432 19.8853C22.0753 19.8853 22.107 19.893 22.1355 19.9078C22.6162 20.1913 23.1352 20.4041 23.6765 20.5399C23.7077 20.5477 23.7365 20.5629 23.7606 20.5841C23.7846 20.6054 23.8033 20.6321 23.8149 20.662L24.2517 21.7472H26.0016L26.4412 20.6376C26.4528 20.6077 26.4714 20.5809 26.4955 20.5597C26.5196 20.5385 26.5484 20.5233 26.5795 20.5155C27.1092 20.3769 27.6169 20.1651 28.088 19.8861C28.1168 19.8721 28.1483 19.8649 28.1802 19.8649C28.2122 19.8649 28.2437 19.8721 28.2725 19.8861L29.3767 20.3636L30.6139 19.1264L30.1364 18.0222C30.1225 17.9934 30.1152 17.9619 30.1152 17.9299C30.1152 17.898 30.1225 17.8664 30.1364 17.8377C30.4156 17.3667 30.6274 16.8589 30.7658 16.3292C30.7742 16.2983 30.7896 16.2698 30.8108 16.2458C30.8319 16.2218 30.8583 16.203 30.8879 16.1908L31.9976 15.7513L32.0111 14.0095ZM25.0982 18.8388C24.3104 18.8388 23.5404 18.6052 22.8854 18.1676C22.2305 17.7299 21.72 17.1079 21.4185 16.3801C21.1171 15.6524 21.0382 14.8516 21.1919 14.079C21.3456 13.3064 21.7249 12.5967 22.2819 12.0397C22.8389 11.4827 23.5486 11.1034 24.3212 10.9497C25.0938 10.796 25.8946 10.8749 26.6223 11.1763C27.3501 11.4778 27.9721 11.9883 28.4098 12.6432C28.8474 13.2982 29.081 14.0683 29.081 14.856C29.0796 15.9119 28.6595 16.9241 27.9129 17.6707C27.1663 18.4173 26.154 18.8374 25.0982 18.8388Z" fill="black"/>
<path d="M25.0983 18.4319C25.8056 18.4319 26.4969 18.2221 27.085 17.8292C27.673 17.4363 28.1313 16.8778 28.402 16.2244C28.6726 15.571 28.7434 14.852 28.6055 14.1584C28.4675 13.4647 28.1269 12.8276 27.6268 12.3275C27.1267 11.8274 26.4896 11.4868 25.7959 11.3489C25.1023 11.2109 24.3833 11.2817 23.7299 11.5523C23.0765 11.823 22.518 12.2813 22.1251 12.8694C21.7322 13.4574 21.5225 14.1488 21.5225 14.856C21.5239 15.8039 21.9011 16.7126 22.5714 17.3829C23.2417 18.0532 24.1504 18.4304 25.0983 18.4319Z" fill="black"/>
</svg>
