<svg width="25" height="24" viewBox="0 0 25 24" fill="none" xmlns="http://www.w3.org/2000/svg">
<path opacity="0.4" d="M12.2629 22C17.7858 22 22.2629 17.5228 22.2629 12C22.2629 6.47715 17.7858 2 12.2629 2C6.74009 2 2.26294 6.47715 2.26294 12C2.26294 17.5228 6.74009 22 12.2629 22Z" fill="#AEAEB2"/>
<path d="M13.3233 12.0001L15.6233 9.70011C15.9133 9.41011 15.9133 8.93011 15.6233 8.64011C15.3333 8.35011 14.8533 8.35011 14.5633 8.64011L12.2633 10.9401L9.96329 8.64011C9.67329 8.35011 9.19329 8.35011 8.90329 8.64011C8.61329 8.93011 8.61329 9.41011 8.90329 9.70011L11.2033 12.0001L8.90329 14.3001C8.61329 14.5901 8.61329 15.0701 8.90329 15.3601C9.05329 15.5101 9.24329 15.5801 9.43329 15.5801C9.62329 15.5801 9.81329 15.5101 9.96329 15.3601L12.2633 13.0601L14.5633 15.3601C14.7133 15.5101 14.9033 15.5801 15.0933 15.5801C15.2833 15.5801 15.4733 15.5101 15.6233 15.3601C15.9133 15.0701 15.9133 14.5901 15.6233 14.3001L13.3233 12.0001Z" fill="#AEAEB2"/>
</svg>
