<svg xmlns="http://www.w3.org/2000/svg" shape-rendering="geometricPrecision" text-rendering="geometricPrecision" viewBox="0 0 900 900"><defs><filter id="a" width="400%" height="400%" x="-150%" y="-150%"><feGaussianBlur result="result" stdDeviation="10,10"/></filter></defs><path fill="rgba(12,12,12,0.7)" d="M677.248 652.59h-40.701V318.868c0-78.791-43.299-122.094-122.093-122.094h-138.37v-40.047c18.883 4.559 37.766 7.163 56.979 7.163 30.6 0 61.207-5.86 90.51-17.581 9.117-3.581 15.3-12.698 15.3-22.791V25.843c0-8.139-3.907-15.627-10.744-20.185s-15.3-5.535-22.788-2.605c-46.56 18.558-98.001 18.558-144.56 0-7.488-2.93-15.953-1.953-22.79 2.605s-10.744 12.046-10.744 20.185v170.931H188.875c-78.79 0-122.093 43.303-122.093 122.094V652.59H26.085c-13.349 0-24.419 11.067-24.419 24.419 0 13.347 11.07 24.418 24.419 24.418h651.163c13.347 0 24.418-11.071 24.418-24.418 0-13.352-11.071-24.419-24.418-24.419m-480.56 0H115.62V375.844h81.07zm130.233 0h-81.395V375.844h81.395zm130.233 0h-81.396V375.844h81.396zm130.556 0h-81.72V375.844h81.72z" filter="url(#a)" opacity=".64" transform="translate(30.672 120.933)"/><path fill="#ae0000" d="M843.243 728.843h-40.7V395.12c0-78.79-43.3-122.093-122.094-122.093H542.08V232.98c18.883 4.559 37.766 7.163 56.979 7.163 30.6 0 61.207-5.86 90.51-17.581 9.117-3.582 15.3-12.698 15.3-22.791v-97.675c0-8.14-3.907-15.628-10.744-20.186s-15.3-5.535-22.788-2.604c-46.56 18.558-98.001 18.558-144.56 0-7.488-2.93-15.953-1.954-22.79 2.604s-10.744 12.047-10.744 20.186v170.93H354.87c-78.79 0-122.093 43.303-122.093 122.094v333.723H192.08c-13.349 0-24.419 11.066-24.419 24.418 0 13.348 11.07 24.419 24.419 24.419h651.163c13.347 0 24.418-11.071 24.418-24.419 0-13.352-11.071-24.418-24.418-24.418m-480.56 0h-81.069V452.097h81.07zm130.233 0h-81.395V452.097h81.395zm130.233 0h-81.396V452.097h81.396zm130.556 0h-81.719V452.097h81.719z"/></svg>