<svg xmlns="http://www.w3.org/2000/svg" width="20" height="20" fill="none"><path fill="#AEAEB2" d="M18.333 17.708h-1.041V9.167c0-2.017-1.109-3.125-3.126-3.125h-3.541V5.017c.483.116.966.183 1.458.183.784 0 1.567-.15 2.317-.45a.63.63 0 0 0 .391-.583v-2.5c0-.209-.1-.4-.274-.517a.63.63 0 0 0-.584-.067 4.98 4.98 0 0 1-3.7 0 .63.63 0 0 0-.583.067.62.62 0 0 0-.275.517v4.375H5.833c-2.017 0-3.125 1.108-3.125 3.125v8.541H1.667a.63.63 0 0 0-.625.625.63.63 0 0 0 .625.625h16.666a.63.63 0 0 0 .625-.625.63.63 0 0 0-.625-.625m-12.3 0H3.958v-7.083h2.075zm3.334 0H7.283v-7.083h2.084zm3.333 0h-2.083v-7.083H12.7zm3.342 0H13.95v-7.083h2.092z"/></svg>