<svg xmlns="http://www.w3.org/2000/svg" shape-rendering="geometricPrecision" text-rendering="geometricPrecision" viewBox="0 0 950 1000"><defs><filter id="a" width="400%" height="400%" x="-150%" y="-150%"><feGaussianBlur in="SourceAlpha" stdDeviation="10,10"/><feOffset dx="-200" dy="70" result="tmp"/><feFlood flood-color="rgba(62,61,61,0.8)"/><feComposite in2="tmp" operator="in"/><feMerge result="result"><feMergeNode/><feMergeNode in="SourceGraphic"/></feMerge><feGaussianBlur in="result" stdDeviation="84,150"/><feOffset dy="-100" result="tmp"/><feComposite in2="SourceGraphic" k2="-1" k3="1" operator="arithmetic"/><feColorMatrix values="0 0 0 0 0 0 0 0 0 0 0 0 0 0 0 0 0 0 1 0"/><feMerge result="result"><feMergeNode in="result"/><feMergeNode/></feMerge></filter></defs><path fill="#ffdf63" d="M695.984 279.852C662.219 95.69 506.175 7.765 366.612 2.232l-.394-.016C227.048-3.303 64.929 72.006 16.31 252.506-38.277 454.093 79.474 631.32 187.915 744.603c40.196 41.867 93.016 64.102 146.634 66.227s108.033-15.856 151.024-54.425c117.072-104.34 248.472-271.291 210.41-476.553M459.787 390.92l-78.848-3.126-3.127 78.85c-.64 16.162-14.577 29.034-30.741 28.395s-29.037-14.577-28.396-30.741l3.126-78.85-78.85-3.126c-16.164-.64-29.037-14.577-28.396-30.74s14.577-29.037 30.741-28.396l78.85 3.126 3.127-78.85c.64-16.163 14.577-29.036 30.741-28.395s29.037 14.577 28.396 30.74l-3.126 78.85 78.852 3.126c16.163.641 29.036 14.577 28.397 30.741-.645 16.164-14.577 29.037-30.746 28.396" filter="url(#a)" transform="rotate(-1.42 3107.847 -8162.682)"/></svg>