<svg xmlns="http://www.w3.org/2000/svg" width="20" height="20" fill="none"><path fill="#AEAEB2" d="M17.183 7.25C16.317 3.392 12.95 1.667 10 1.667h-.01c-2.941 0-6.3 1.725-7.175 5.575-.983 4.3 1.65 7.941 4.034 10.241A4.53 4.53 0 0 0 10 18.758a4.5 4.5 0 0 0 3.142-1.275c2.383-2.3 5.016-5.933 4.041-10.233m-4.892 2.542h-1.666v1.666a.63.63 0 0 1-.625.625.63.63 0 0 1-.625-.625V9.792H7.708a.63.63 0 0 1-.625-.625.63.63 0 0 1 .625-.625h1.667V6.875A.63.63 0 0 1 10 6.25a.63.63 0 0 1 .625.625v1.667h1.666a.63.63 0 0 1 .625.625.63.63 0 0 1-.625.625"/></svg>