<svg xmlns="http://www.w3.org/2000/svg" shape-rendering="geometricPrecision" text-rendering="geometricPrecision" viewBox="0 0 950 1000"><defs><filter id="a" width="400%" height="400%" x="-150%" y="-150%"><feGaussianBlur in="SourceAlpha" stdDeviation="5,5"/><feOffset dx="-200" dy="70" result="tmp"/><feFlood flood-color="rgba(62,61,61,0.8)"/><feComposite in2="tmp" operator="in"/><feMerge result="result"><feMergeNode/><feMergeNode in="SourceGraphic"/></feMerge><feGaussianBlur in="result" stdDeviation="84,150"/><feOffset dy="-100" result="tmp"/><feComposite in2="SourceGraphic" k2="-1" k3="1" operator="arithmetic"/><feColorMatrix values="0 0 0 0 0 0 0 0 0 0 0 0 0 0 0 0 0 0 1 0"/><feMerge result="result"><feMergeNode in="result"/><feMergeNode/></feMerge></filter></defs><path fill="#ffdf63" d="M700.58 799.34c-42.022 39.623-95.975 58.946-149.63 58.15s-107.01-21.715-148.23-62.573c-111.21-110.56-233.32-284.82-183.74-487.69 44.132-181.65 204.33-260.95 343.6-258.88l.394.006c139.66 2.074 297.83 86.106 336.15 269.37 43.135 204.26-84.089 374.41-198.54 481.62zm3.804-448.39c11.445-11.444 11.445-30.385 0-41.828-11.44-11.444-30.38-11.444-41.826 0l-136.93 136.93-38.277-38.276c-11.444-11.444-30.384-11.444-41.828 0s-11.444 30.384 0 41.829l59.19 59.19c5.92 5.919 13.416 8.68 20.914 8.68s14.995-2.76 20.914-8.68l157.84-157.84z" filter="url(#a)"/></svg>