<svg width="72" height="72" viewBox="0 0 72 72" fill="none" xmlns="http://www.w3.org/2000/svg">
<path d="M36 68.25C18.21 68.25 3.75 53.79 3.75 36C3.75 18.21 18.21 3.75 36 3.75C53.79 3.75 68.25 18.21 68.25 36C68.25 53.79 53.79 68.25 36 68.25ZM36 8.25C20.7 8.25 8.25 20.7 8.25 36C8.25 51.3 20.7 63.75 36 63.75C51.3 63.75 63.75 51.3 63.75 36C63.75 20.7 51.3 8.25 36 8.25Z" fill="#84BC25"/>
<path d="M31.7401 46.74C31.1401 46.74 30.5701 46.5 30.1501 46.08L21.6601 37.59C20.7901 36.72 20.7901 35.28 21.6601 34.41C22.5301 33.54 23.9701 33.54 24.8401 34.41L31.7401 41.3101L47.1601 25.89C48.0301 25.02 49.4701 25.02 50.3401 25.89C51.2101 26.76 51.2101 28.2 50.3401 29.07L33.3301 46.08C32.9101 46.5 32.3401 46.74 31.7401 46.74Z" fill="#84BC25"/>
</svg>
