<svg width="20" height="20" viewBox="0 0 20 20" fill="none" xmlns="http://www.w3.org/2000/svg">
<path d="M3.33398 7.2219H6.11176V16.6663H3.33398V7.2219ZM4.71454 6.11079H4.69898C3.8701 6.11079 3.33398 5.49301 3.33398 4.72134C3.33398 3.93301 3.88676 3.33301 4.73065 3.33301C5.57565 3.33301 6.09621 3.93301 6.11176 4.72134C6.11176 5.49245 5.57565 6.11079 4.71454 6.11079ZM16.6673 16.6663H13.8895V11.6113C13.8895 10.3902 13.209 9.5569 12.1162 9.5569C11.2823 9.5569 10.8312 10.1191 10.6123 10.6625C10.5323 10.8569 10.5562 11.3947 10.5562 11.6663V16.6663H7.77843V7.2219H10.5562V8.67523C10.9568 8.05523 11.584 7.2219 13.1884 7.2219C15.1762 7.2219 16.6668 8.4719 16.6668 11.263L16.6673 16.6663Z" fill="#040408"/>
</svg>
