<svg width="21" height="20" viewBox="0 0 21 20" fill="none" xmlns="http://www.w3.org/2000/svg">
<path d="M18.5961 18.9583H1.92938C1.58772 18.9583 1.30438 18.6749 1.30438 18.3333C1.30438 17.9916 1.58772 17.7083 1.92938 17.7083H18.5961C18.9377 17.7083 19.2211 17.9916 19.2211 18.3333C19.2211 18.6749 18.9377 18.9583 18.5961 18.9583Z" fill="#AEAEB2"/>
<path d="M12.346 5.19153C11.5627 5.19153 10.7794 5.04155 10.0294 4.74155C9.79603 4.64988 9.6377 4.41654 9.6377 4.1582V1.6582C9.6377 1.44987 9.7377 1.25821 9.9127 1.14154C10.0877 1.02487 10.3044 0.99986 10.496 1.07486C11.6877 1.54986 13.0044 1.54986 14.196 1.07486C14.3877 0.99986 14.6044 1.02487 14.7794 1.14154C14.9544 1.25821 15.0544 1.44987 15.0544 1.6582V4.1582C15.0544 4.41654 14.896 4.64155 14.6627 4.74155C13.9127 5.04155 13.1294 5.19153 12.346 5.19153ZM10.8877 3.72485C11.8377 4.01652 12.8544 4.01652 13.8044 3.72485V2.51656C12.846 2.74989 11.846 2.74989 10.8877 2.51656V3.72485Z" fill="#AEAEB2"/>
<path d="M10.2627 7.29175C9.92103 7.29175 9.6377 7.00841 9.6377 6.66675V4.16675C9.6377 3.82508 9.92103 3.54175 10.2627 3.54175C10.6044 3.54175 10.8877 3.82508 10.8877 4.16675V6.66675C10.8877 7.00841 10.6044 7.29175 10.2627 7.29175Z" fill="#AEAEB2"/>
<path d="M16.9293 18.9584H3.59601C3.25434 18.9584 2.97101 18.6751 2.97101 18.3334V9.16675C2.97101 7.15008 4.07934 6.04175 6.09601 6.04175H14.4293C16.446 6.04175 17.5543 7.15008 17.5543 9.16675V18.3334C17.5543 18.6751 17.271 18.9584 16.9293 18.9584ZM4.22101 17.7084H16.3043V9.16675C16.3043 7.85008 15.746 7.29175 14.4293 7.29175H6.09601C4.77934 7.29175 4.22101 7.85008 4.22101 9.16675V17.7084Z" fill="#AEAEB2"/>
<path d="M16.4461 10.625H4.07941C3.73774 10.625 3.45441 10.3417 3.45441 10C3.45441 9.65833 3.73774 9.375 4.07941 9.375H16.4461C16.7877 9.375 17.0711 9.65833 17.0711 10C17.0711 10.3417 16.7877 10.625 16.4461 10.625Z" fill="#AEAEB2"/>
<path d="M7.5462 10H6.2962V18.3333H7.5462V10Z" fill="#AEAEB2"/>
<path d="M10.8796 10H9.62958V18.3333H10.8796V10Z" fill="#AEAEB2"/>
<path d="M14.2129 10H12.9629V18.3333H14.2129V10Z" fill="#AEAEB2"/>
</svg>
