<svg width="17" height="16" viewBox="0 0 17 16" fill="none" xmlns="http://www.w3.org/2000/svg">
<path d="M14.4294 6.09995C12.8894 3.67995 10.6361 2.28662 8.26274 2.28662C7.07607 2.28662 5.92274 2.63329 4.8694 3.27995C3.81607 3.93329 2.8694 4.88662 2.09607 6.09995C1.4294 7.14662 1.4294 8.84662 2.09607 9.89329C3.63607 12.32 5.8894 13.7066 8.26274 13.7066C9.4494 13.7066 10.6027 13.36 11.6561 12.7133C12.7094 12.06 13.6561 11.1066 14.4294 9.89329C15.0961 8.85329 15.0961 7.14662 14.4294 6.09995ZM8.26274 10.6933C6.7694 10.6933 5.5694 9.48662 5.5694 7.99995C5.5694 6.51329 6.7694 5.30662 8.26274 5.30662C9.75607 5.30662 10.9561 6.51329 10.9561 7.99995C10.9561 9.48662 9.75607 10.6933 8.26274 10.6933Z" fill="#F5BD4F"/>
<path d="M8.26267 6.09326C7.216 6.09326 6.36267 6.94659 6.36267 7.99993C6.36267 9.04659 7.216 9.89993 8.26267 9.89993C9.30934 9.89993 10.1693 9.04659 10.1693 7.99993C10.1693 6.95326 9.30934 6.09326 8.26267 6.09326Z" fill="#F5BD4F"/>
</svg>
